<svg xmlns="http://www.w3.org/2000/svg" xmlns:xlink="http://www.w3.org/1999/xlink" width="1080" zoomAndPan="magnify" viewBox="0 0 810 809.999993" height="1080" preserveAspectRatio="xMidYMid meet" version="1.0"><defs><clipPath id="b626313f32"><path d="M 102 86.96875 L 709.785156 86.96875 L 709.785156 728 L 102 728 Z M 102 86.96875 " clip-rule="nonzero"/></clipPath></defs><g clip-path="url(#b626313f32)"><path fill="#ffffff" d="M 128.128906 370.925781 C 145.367188 374.4375 162.285156 362.945312 165.480469 345.699219 C 187.507812 232.023438 287.75 149.316406 403.953125 149.316406 C 538.03125 149.316406 646.894531 258.207031 646.894531 392.320312 C 646.894531 526.4375 538.03125 635.324219 403.953125 635.324219 C 343.933594 635.324219 287.109375 613.292969 242.417969 573.695312 L 308.816406 569.226562 C 326.375 567.949219 339.785156 552.621094 338.507812 535.058594 C 337.230469 517.496094 321.90625 504.402344 304.347656 505.359375 L 156.539062 515.578125 C 138.980469 516.855469 125.574219 532.183594 126.851562 549.746094 L 137.066406 697.59375 C 138.34375 714.515625 152.390625 727.289062 168.992188 727.289062 C 169.628906 727.289062 170.585938 727.289062 171.226562 727.289062 C 188.785156 726.011719 202.191406 710.683594 200.914062 693.121094 L 195.808594 617.441406 C 252.632812 670.128906 326.058594 699.1875 403.953125 699.1875 C 573.148438 699.1875 710.742188 561.5625 710.742188 392.320312 C 710.742188 223.082031 573.148438 85.453125 403.953125 85.453125 C 257.421875 85.453125 130.683594 189.871094 102.90625 333.246094 C 99.394531 350.488281 110.890625 367.414062 128.128906 370.605469 Z M 128.128906 370.925781 " fill-opacity="1" fill-rule="nonzero"/></g></svg>