<svg xmlns="http://www.w3.org/2000/svg" xmlns:xlink="http://www.w3.org/1999/xlink" width="1080" zoomAndPan="magnify" viewBox="0 0 810 809.999993" height="1080" preserveAspectRatio="xMidYMid meet" version="1.0"><defs><clipPath id="4893f4e263"><path d="M 102 81 L 709.785156 81 L 709.785156 722 L 102 722 Z M 102 81 " clip-rule="nonzero"/></clipPath></defs><g clip-path="url(#4893f4e263)"><path fill="#000000" d="M 128.128906 364.957031 C 145.367188 368.472656 162.285156 356.976562 165.480469 339.734375 C 187.507812 226.054688 287.75 143.351562 403.953125 143.351562 C 538.03125 143.351562 646.894531 252.238281 646.894531 386.351562 C 646.894531 520.46875 538.03125 629.355469 403.953125 629.355469 C 343.933594 629.355469 287.109375 607.324219 242.417969 567.726562 L 308.816406 563.257812 C 326.375 561.980469 339.785156 546.652344 338.507812 529.089844 C 337.230469 511.527344 321.90625 498.433594 304.347656 499.394531 L 156.539062 509.609375 C 138.980469 510.886719 125.574219 526.214844 126.851562 543.777344 L 137.066406 691.625 C 138.34375 708.546875 152.390625 721.320312 168.992188 721.320312 C 169.628906 721.320312 170.585938 721.320312 171.226562 721.320312 C 188.785156 720.042969 202.191406 704.714844 200.914062 687.152344 L 195.808594 611.476562 C 252.632812 664.164062 326.058594 693.222656 403.953125 693.222656 C 573.148438 693.222656 710.742188 555.59375 710.742188 386.351562 C 710.742188 217.113281 573.148438 79.484375 403.953125 79.484375 C 257.421875 79.484375 130.683594 183.902344 102.90625 327.277344 C 99.394531 344.523438 110.890625 361.445312 128.128906 364.640625 Z M 128.128906 364.957031 " fill-opacity="1" fill-rule="nonzero"/></g></svg>