<svg width="561" height="572" viewBox="0 0 561 572" fill="none" xmlns="http://www.w3.org/2000/svg">
<path d="M224.246 238.375L224.464 247.023L205.017 247.03C194.322 247.033 183.754 247.255 181.533 247.522L177.495 248.007V259.43V270.854H194.801H212.107V282.384V293.915L198.839 293.922C191.541 293.925 183.754 294.146 181.533 294.413L177.495 294.898V306.311V317.723L200.762 317.926L224.028 318.13L224.245 326.665L224.461 335.202L219.71 335.698C217.096 335.971 201.164 336.194 184.304 336.194H153.651V282.761V229.328L188.84 229.527L224.028 229.727L224.246 238.375Z" fill="white" fill-opacity="0.7"/>
<path d="M282.868 226.653V229.343L287.675 229.35C290.32 229.353 294.3 229.574 296.521 229.841C300.495 230.319 300.559 230.367 300.559 232.909C300.559 235.41 300.656 235.493 303.635 235.493H306.712V238.568C306.712 241.549 306.633 241.642 304.11 241.642H301.509L300.968 247.408L300.427 253.173H294.725H289.021V250.552V247.931L282.676 247.419C279.186 247.139 273.908 247.021 270.946 247.159L265.562 247.408L265.324 250.29C265.098 253.016 264.941 253.173 262.44 253.173H259.794V258.939V264.704H265.562H271.331V267.779V270.854H280.176H289.021V273.498C289.021 275.998 289.178 276.155 291.906 276.381C294.633 276.606 294.803 276.776 295.029 279.502C295.261 282.304 295.352 282.384 298.297 282.384C301.32 282.384 301.328 282.392 301.328 285.459C301.328 288.461 301.392 288.534 304.02 288.534H306.712V303.524V318.514H304.098H301.484L300.949 323.836L300.414 329.158L294.718 329.692L289.021 330.225V332.716C289.021 335.2 289.01 335.208 284.293 335.701C281.694 335.972 274.476 336.194 268.254 336.194C262.033 336.194 254.815 335.972 252.215 335.701L247.487 335.207V332.626V330.045H241.719H235.95V321.204V312.364H239.027H242.103V309.289C242.103 306.288 242.167 306.215 244.795 306.215C247.344 306.215 247.487 306.354 247.487 308.825V311.436L253.641 311.98L259.794 312.524V315.135V317.745H268.639H277.484V315.055C277.484 312.493 277.613 312.364 280.176 312.364H282.868V306.215V300.065H280.176C277.628 300.065 277.484 299.925 277.484 297.454V294.844L271.331 294.299L265.178 293.755V291.145V288.534H259.409H253.641V285.934V283.334L247.957 282.802L242.273 282.269L241.738 276.561L241.203 270.854H238.577H235.95V259.369V247.885L238.835 247.646C241.634 247.415 241.726 247.312 241.955 244.141C242.184 240.976 242.274 240.874 244.839 240.874C247.353 240.874 247.487 240.737 247.487 238.183C247.487 235.557 247.561 235.493 250.564 235.493H253.641V232.418V229.343H259.794H265.947V226.653V223.962H274.408H282.868V226.653Z" fill="white" fill-opacity="0.7"/>
<path d="M382.857 226.653V229.343H389.011H395.164V232.418V235.493H400.932H406.701V241.258V247.023H404.009C401.381 247.023 401.317 247.096 401.317 250.098V253.173H392.472H383.627V250.573V247.973L377.779 247.426C374.562 247.124 369.197 247.12 365.857 247.415L359.783 247.952V250.563C359.783 253.096 359.692 253.173 356.706 253.173H353.63V256.248C353.63 259.23 353.551 259.323 351.025 259.323H348.42L347.864 270.79C347.559 277.096 347.561 287.647 347.871 294.236L348.432 306.215H350.985C353.379 306.215 353.552 306.393 353.776 309.097L354.014 311.98L359.591 312.206L365.167 312.432V315.089V317.745H374.397H383.627V315.12V312.496L389.395 311.955L395.164 311.415V308.815C395.164 306.364 395.316 306.215 397.81 306.215C400.311 306.215 400.468 306.371 400.694 309.097C400.919 311.823 401.089 311.993 403.817 312.218C406.197 312.415 406.703 312.752 406.708 314.14C406.711 315.066 406.933 317.64 407.199 319.859L407.685 323.895H404.501H401.317V326.97V330.045H398.24C395.264 330.045 395.164 330.128 395.164 332.618V335.19L386.511 335.689C375.493 336.324 359.367 336.326 352.668 335.693L347.477 335.204V332.702V330.201L342.093 329.66L336.709 329.12V326.508C336.709 323.985 336.606 323.895 333.722 323.895H330.736L330.195 318.13L329.655 312.364H327.029H324.402V306.215V300.065H321.776H319.15L318.653 294.492C318.379 291.426 318.264 283.557 318.394 277.003L318.634 265.088L321.518 264.85L324.402 264.611V258.892V253.173H327.004H329.606L330.142 247.451L330.678 241.728L333.501 241.493C336.159 241.272 336.338 241.089 336.562 238.375L336.802 235.493H342.093H347.384L347.623 232.61L347.861 229.727L356.514 229.51L365.167 229.292V226.627V223.962H374.012H382.857V226.653Z" fill="white" fill-opacity="0.7"/>
<path d="M530.694 259.131L530.918 265.088L533.803 265.327L536.687 265.566V270.88V276.195L548.417 276.407L560.146 276.619L560.384 279.502L560.624 282.384H557.5H554.377V285.459V288.534H551.301H548.224V303.14V317.745H545.148C542.162 317.745 542.071 317.668 542.071 315.132V312.52L536.687 311.98L531.303 311.439V308.827V306.215H525.15H518.997V309.289V312.364H515.92C512.917 312.364 512.843 312.428 512.843 315.055V317.745H507.075H501.306V314.67C501.306 311.695 501.39 311.596 503.881 311.596H506.456L506.958 303.404C507.234 298.899 507.459 293.711 507.459 291.873V288.534H504.383C501.394 288.534 501.306 288.459 501.306 285.909V283.285L495.538 282.744L489.769 282.204V279.711C489.769 277.277 489.865 277.206 493.807 276.733C496.028 276.466 502.605 276.245 508.421 276.242L518.997 276.235V267.779V259.323H521.689C524.317 259.323 524.381 259.25 524.381 256.248C524.381 253.179 524.386 253.173 527.425 253.173H530.469L530.694 259.131Z" fill="white" fill-opacity="0.7"/>
<path d="M501.306 138.25V147.09H503.952C506.453 147.09 506.61 147.247 506.836 149.973L507.075 152.856L518.804 153.068L530.534 153.28V155.861V158.441L524.765 158.981L518.997 159.521V162.146C518.997 164.613 518.841 164.771 516.412 164.771C513.832 164.771 513.827 164.778 513.37 169.191C513.117 171.622 513.118 175.6 513.371 178.031C513.831 182.443 513.836 182.451 516.414 182.451H518.997V188.708V194.965L514.959 194.48C512.737 194.214 510.141 193.992 509.19 193.989C507.726 193.983 507.459 193.567 507.459 191.292C507.459 188.665 507.386 188.601 504.383 188.601H501.306V185.526V182.451H495.538H489.769V185.142C489.769 187.769 489.696 187.832 486.692 187.832H483.616V190.907C483.616 193.582 483.391 193.983 481.885 193.989C480.934 193.992 478.338 194.214 476.117 194.48L472.079 194.965V185.633V176.302H474.771H477.463V170.536V164.771H471.694H465.925V161.696V158.621H462.849C459.864 158.621 459.772 158.544 459.772 156.011V153.4L465.846 152.863C469.187 152.568 474.551 152.572 477.768 152.874L483.616 153.421V150.255C483.616 147.176 483.686 147.09 486.201 147.09C488.745 147.09 488.793 147.027 489.271 143.055C489.538 140.835 489.759 136.857 489.762 134.215L489.769 129.41H495.538H501.306V138.25Z" fill="white" fill-opacity="0.7"/>
<path d="M401.171 38.1251C401.397 40.851 401.554 41.0078 404.055 41.0078H406.701L406.708 45.8123C406.711 48.4551 406.933 52.4332 407.199 54.6525L407.685 58.6883H421.806H435.929V61.3011V63.9132L430.545 64.4536L425.161 64.994V67.6061C425.161 70.1421 425.07 70.219 422.084 70.219H419.007V82.1341V94.0492H421.699C424.328 94.0492 424.391 94.1222 424.391 97.124V100.199H418.623H412.854V97.124V94.0492H409.778C406.799 94.0492 406.701 93.9669 406.701 91.4655C406.701 88.9234 406.637 88.8749 402.663 88.3976C395.214 87.5036 395.164 87.5205 395.164 90.9743V94.0492H389.395H383.627V97.124V100.199H380.55H377.473V85.2089V70.219H374.781C372.226 70.219 372.089 70.0845 372.089 67.5723C372.089 65.0086 371.987 64.9187 368.821 64.6896C365.648 64.4605 365.545 64.3691 365.313 61.571L365.074 58.6883H376.996H388.918L389.157 55.8056C389.382 53.0797 389.552 52.9098 392.28 52.6846L395.164 52.4455V43.6053V34.7651L398.048 35.0042C400.776 35.2294 400.946 35.3993 401.171 38.1251Z" fill="white" fill-opacity="0.7"/>
<path d="M282.875 4.68604C282.878 7.11671 283.1 10.9219 283.367 13.1419C283.844 17.1139 283.893 17.1777 286.436 17.1777C288.939 17.1777 289.021 17.2753 289.021 20.2525V23.3274H300.943C314.516 23.3274 313.358 22.5748 312.375 30.7539L311.897 34.722L306.712 35.2425L301.526 35.7629L301.049 39.731C300.786 41.9126 300.569 49.6651 300.566 56.9587L300.559 70.219H297.867C295.303 70.219 295.175 70.0906 295.175 67.5285C295.175 64.9018 295.102 64.838 292.098 64.838H289.021V61.7631V58.6883H280.176H271.331V61.3134V63.9378L265.562 64.4782L259.794 65.0186V67.6184C259.794 70.1398 259.7 70.219 256.717 70.219H253.641V64.4536V58.6883H256.223H258.805L259.3 53.963C259.572 51.3647 259.794 47.3866 259.794 45.1227V41.0078H256.717H253.641V37.933V34.8581H250.564H247.487V31.7832C247.487 28.7814 247.424 28.7084 244.795 28.7084C242.232 28.7084 242.103 28.58 242.103 26.0179V23.3274H256.717H271.331V17.1777V11.0279H273.945H276.559L277.1 5.64693L277.64 0.265923H280.254H282.868L282.875 4.68604Z" fill="white" fill-opacity="0.7"/>
<path d="M157.28 35.6199C158.926 35.6268 158.992 35.9243 159.202 44.2749L159.42 52.9229L162.304 53.1612C165.032 53.3872 165.189 53.544 165.189 56.0439V58.6883H176.726H188.263V61.3011V63.9132L182.921 64.4498L177.579 64.9856L177.345 67.7945C177.124 70.4358 176.939 70.6172 174.226 70.8416L171.342 71.0807V79.4897V87.8994H174.034H176.726V94.0492C176.726 101.016 177.2 100.658 169.227 99.7008C165.252 99.2234 165.189 99.175 165.189 96.6328C165.189 94.1314 165.091 94.0492 162.112 94.0492C159.133 94.0492 159.035 93.9669 159.035 91.4655C159.035 88.9234 158.972 88.8749 154.997 88.3976C147.548 87.5036 147.498 87.5205 147.498 90.9743V94.0492H144.422C141.443 94.0492 141.345 94.1314 141.345 96.6328C141.345 99.175 141.281 99.2234 137.307 99.7008C129.136 100.682 129.808 101.463 129.808 90.9743V81.7497H132.5H135.192V76.4464V71.1438L129.808 70.6033L124.424 70.0629V67.4509C124.424 64.9149 124.333 64.838 121.347 64.838H118.271V61.7631V58.6883H130.192H142.114V55.6134C142.114 52.6116 142.178 52.5385 144.806 52.5385H147.498V43.5915V34.6436L151.536 35.1287C153.757 35.3954 156.342 35.6168 157.28 35.6199Z" fill="white" fill-opacity="0.7"/>
<path d="M65.1994 135.56V141.71H67.8576H70.5158L70.7419 147.283L70.968 152.856L82.6975 153.068L94.427 153.28V155.905C94.427 158.381 94.2655 158.542 91.5427 158.767C88.8153 158.993 88.6454 159.162 88.42 161.888C88.1862 164.708 88.1124 164.771 85.0527 164.771H81.9238L82.2145 179.569L82.5053 194.366L79.621 194.605L76.7366 194.844V191.813V188.782L70.968 188.241L65.1994 187.701V185.077V182.451H59.477H53.7553L53.5161 185.334C53.2907 188.06 53.1207 188.23 50.3933 188.455C47.6659 188.681 47.509 188.838 47.509 191.338V193.982H41.7404H35.9718V190.907C35.9718 187.905 36.0357 187.832 38.6638 187.832H41.3559V176.302V164.771H38.2793C35.2904 164.771 35.2027 164.696 35.2027 162.146V159.521L29.4341 158.981L23.6655 158.441V155.95C23.6655 153.465 23.677 153.458 28.3934 152.965C30.9931 152.694 37.5693 152.472 43.0072 152.472H52.8931V148.741C52.8931 146.688 53.1153 142.883 53.3869 140.285L53.8814 135.56H56.4635C58.964 135.56 59.0462 135.461 59.0462 132.485V129.41H62.1228H65.1994V135.56Z" fill="white" fill-opacity="0.7"/>
<path d="M35.5626 258.939L36.1033 264.704H38.7292H41.3559V270.77V276.836L53.0854 276.727L64.8149 276.619L65.0533 279.502L65.2925 282.384H62.169H59.0462V285.459V288.534H55.8689H52.6916L53.0415 303.14L53.3915 317.745H50.0657C46.7968 317.745 46.7399 317.701 46.7399 315.132V312.52L41.3559 311.98L35.9718 311.439V308.827V306.215H29.8186H23.6655V309.289V312.364H20.5889C17.5853 312.364 17.5123 312.428 17.5123 315.055V317.745H11.7437H5.97505V315.055C5.97505 312.514 6.11889 312.364 8.55785 312.364H11.1399L11.6344 307.639C11.906 305.041 12.1282 299.679 12.1282 295.724V288.534H9.05164C6.05889 288.534 5.97505 288.463 5.97505 285.89C5.97505 283.39 5.81815 283.233 3.09075 283.007C0.277977 282.775 0.206444 282.692 0.206444 279.694V276.619L11.936 276.407L23.6655 276.195V267.805V259.416L26.5498 259.177C29.2772 258.952 29.4471 258.782 29.6725 256.056C29.8971 253.351 30.0694 253.173 32.4668 253.173H35.0219L35.5626 258.939Z" fill="white" fill-opacity="0.7"/>
<path d="M64.701 380.972C64.9679 383.192 65.1894 387.17 65.1925 389.812L65.1994 394.617H67.8914C70.5196 394.617 70.5835 394.69 70.5835 397.692V400.766H82.5053H94.427V403.841C94.427 406.843 94.3632 406.916 91.735 406.916C89.1715 406.916 89.043 407.045 89.043 409.607C89.043 412.296 89.0422 412.297 85.4611 412.297H81.8792L82.3876 425.778C82.6675 433.193 82.6745 441.149 82.403 443.459C81.9138 447.615 81.8822 447.658 79.3225 447.658C76.8182 447.658 76.7366 447.561 76.7366 444.583C76.7366 441.581 76.6728 441.508 74.0446 441.508C71.4895 441.508 71.3526 441.374 71.3526 438.862C71.3526 436.298 71.2503 436.208 68.0837 435.979C64.911 435.75 64.8079 435.658 64.5764 432.86C64.3503 430.134 64.1934 429.978 61.6921 429.978C59.1939 429.978 59.0462 430.124 59.0462 432.603V435.227L53.2776 435.768L47.509 436.308V438.908C47.509 441.429 47.4152 441.508 44.4324 441.508H41.3559V444.583C41.3559 447.585 41.292 447.658 38.6638 447.658H35.9718V441.508V435.359H38.6638H41.3559V423.828V412.297H35.5872H29.8186V409.222V406.147H26.742C23.7385 406.147 23.6655 406.084 23.6655 403.457V400.766H38.2793H52.8931V396.652C52.8931 394.388 53.1153 390.41 53.3869 387.811L53.8814 383.086H56.4635C58.964 383.086 59.0462 382.988 59.0462 380.011C59.0462 377.034 59.1285 376.936 61.6313 376.936C64.1749 376.936 64.2234 377 64.701 380.972Z" fill="white" fill-opacity="0.7"/>
<path d="M154.997 471.218L159.035 471.703V475.711C159.035 477.915 159.258 481.845 159.529 484.443L160.024 489.169H174.143H188.263V491.859C188.263 494.421 188.135 494.55 185.571 494.55C182.943 494.55 182.879 494.623 182.879 497.625V500.699H179.802C176.799 500.699 176.726 500.763 176.726 503.39C176.726 505.952 176.597 506.08 174.034 506.08H171.342V512.23V518.38H174.034H176.726V527.22V536.06H173.649C170.663 536.06 170.573 535.984 170.573 533.448V530.835L165.231 530.299L159.888 529.763L159.655 526.954C159.432 524.279 159.274 524.133 156.343 523.888C154.651 523.746 150.758 523.862 147.691 524.146L142.114 524.661V527.285C142.114 529.835 142.027 529.911 139.038 529.911H135.961V532.985V536.06H132.884H129.808V524.53V512.999H132.5C135.128 512.999 135.192 512.926 135.192 509.924C135.192 506.922 135.128 506.849 132.5 506.849C129.872 506.849 129.808 506.776 129.808 503.774V500.699H126.731C123.728 500.699 123.655 500.636 123.655 498.009C123.655 495.447 123.526 495.318 120.963 495.318C118.334 495.318 118.271 495.245 118.271 492.244V489.169L128.846 489.162C134.663 489.159 141.24 488.937 143.46 488.671L147.498 488.186V479.453C147.498 469.527 146.85 470.24 154.997 471.218Z" fill="white" fill-opacity="0.7"/>
<path d="M282.868 504.814C282.868 507.078 283.091 511.056 283.362 513.655L283.857 518.38H286.439C288.939 518.38 289.021 518.478 289.021 521.455V524.53H300.989H312.958L312.719 527.412C312.494 530.138 312.324 530.308 309.596 530.533C306.869 530.759 306.712 530.916 306.712 533.416C306.712 535.989 306.628 536.06 303.635 536.06H300.559V553.741V571.421H297.867C295.238 571.421 295.175 571.348 295.175 568.346V565.271H292.098C289.105 565.271 289.021 565.2 289.021 562.627C289.021 560.127 288.865 559.97 286.137 559.744C283.41 559.519 283.24 559.349 283.014 556.623C282.788 553.898 282.631 553.741 280.13 553.741C277.637 553.741 277.484 553.891 277.484 556.341V558.941L271.759 559.478L266.032 560.013L265.798 562.835C265.57 565.561 265.452 565.664 262.294 565.892C259.127 566.121 259.025 566.211 259.025 568.775C259.025 571.287 258.888 571.421 256.333 571.421H253.641V565.656V559.891H256.263H258.886L259.425 553.426C259.722 549.872 259.718 544.51 259.416 541.511L258.869 536.06H253.609H248.35L248.11 533.178C247.885 530.452 247.715 530.282 244.988 530.057C242.26 529.831 242.103 529.674 242.103 527.174V524.53H256.717H271.331V518.38V512.23H273.958H276.584L277.124 506.465L277.665 500.699H280.266H282.868V504.814Z" fill="white" fill-opacity="0.7"/>
<path d="M400.957 471.104L401.498 476.869H404.067H406.636L406.861 482.827L407.086 488.784L421.507 488.993L435.929 489.203V491.876C435.929 494.419 435.797 494.55 433.237 494.55C430.608 494.55 430.545 494.623 430.545 497.625V500.699H427.468C424.465 500.699 424.391 500.763 424.391 503.39C424.391 505.952 424.263 506.08 421.699 506.08H419.007V515.305V524.53H421.699H424.391V530.295V536.06H421.315C418.329 536.06 418.238 535.984 418.238 533.448V530.835L412.854 530.295L407.47 529.755V527.252C407.47 524.753 407.461 524.748 402.772 524.258C400.188 523.988 396.208 523.986 393.927 524.254C389.845 524.733 389.78 524.781 389.78 527.282C389.78 529.721 389.65 529.831 386.511 530.059C383.338 530.288 383.235 530.38 383.004 533.178C382.777 535.904 382.621 536.06 380.119 536.06H377.473V524.145V512.23H380.165C382.729 512.23 382.857 512.102 382.857 509.54C382.857 506.978 382.729 506.849 380.165 506.849C377.537 506.849 377.473 506.776 377.473 503.774V500.699H371.705H365.936V494.954V489.209L377.666 488.997L389.395 488.784L389.634 485.902C389.86 483.176 390.017 483.019 392.518 483.019H395.164V474.179V465.339H397.79H400.416L400.957 471.104Z" fill="white" fill-opacity="0.7"/>
<path d="M495.153 379.627C495.153 382.254 495.226 382.317 498.23 382.317H501.306V391.051V399.783L505.344 400.268C507.566 400.535 514.142 400.757 519.958 400.76L530.534 400.766V403.411C530.534 405.911 530.377 406.068 527.65 406.294C524.922 406.519 524.752 406.689 524.527 409.415C524.301 412.14 524.144 412.297 521.643 412.297C519.131 412.297 518.997 412.434 518.997 414.988C518.997 417.541 518.862 417.678 516.35 417.678C514.894 417.678 513.489 418.025 513.227 418.448C512.965 418.872 512.99 421.639 513.281 424.598L513.811 429.978H516.404H518.997V438.818V447.658H516.351C513.849 447.658 513.693 447.501 513.466 444.775C513.235 441.977 513.132 441.886 509.959 441.657C506.81 441.428 506.69 441.326 506.69 438.839V436.259L500.922 435.718L495.153 435.178V432.578C495.153 430.118 495.007 429.978 492.461 429.978C489.833 429.978 489.769 430.051 489.769 433.053V436.127H486.692C483.689 436.127 483.616 436.191 483.616 438.818C483.616 441.445 483.543 441.508 480.539 441.508H477.463V444.583C477.463 447.585 477.399 447.658 474.771 447.658H472.079V435.743V423.828H474.771C477.334 423.828 477.463 423.7 477.463 421.137C477.463 418.575 477.334 418.447 474.771 418.447C472.142 418.447 472.079 418.374 472.079 415.372V412.297H469.002H465.925V409.222V406.147H462.849C459.845 406.147 459.772 406.084 459.772 403.457V400.766H471.694H483.616V397.692C483.616 394.714 483.698 394.617 486.201 394.617C488.745 394.617 488.793 394.553 489.271 390.581C489.538 388.361 489.759 384.384 489.762 381.741L489.769 376.936H492.461C495.025 376.936 495.153 377.065 495.153 379.627Z" fill="white" fill-opacity="0.7"/>
</svg>
