<svg width="639" height="633" viewBox="0 0 639 633" fill="none" xmlns="http://www.w3.org/2000/svg">
<path d="M187.464 47.8802C189.622 55.1628 191.723 62.2792 192.134 63.696C192.793 65.9705 195.016 66.2706 211.17 66.2706C229.354 66.2706 232.805 67.321 226.215 70.8476C218.866 74.7802 201.509 88.6009 201.509 90.5194C201.509 91.6552 203.892 99.2865 206.805 107.478C209.718 115.67 211.722 122.754 211.257 123.219C210.792 123.684 204.06 119.289 196.296 113.454L182.181 102.845L178.237 105.401C176.067 106.806 169.159 111.848 162.889 116.604C156.618 121.361 151.487 124.547 151.487 123.687C151.487 122.828 153.88 114.718 156.805 105.669L162.125 89.2159L157.909 85.8277C155.59 83.9636 149.253 79.2983 143.826 75.4584C138.4 71.6185 133.931 68.0008 133.895 67.4196C133.86 66.837 141.884 66.175 151.725 65.9484L169.618 65.535L174.531 50.8227C181.138 31.0347 180.825 31.7453 182.275 33.2901C182.971 34.0316 185.307 40.5977 187.464 47.8802Z" fill="#D9D9D9"/>
<path d="M267.053 263.923C267.528 265.821 267.706 269.959 267.449 273.118L266.978 278.863L245.645 279.599L224.313 280.334V293.575V306.816L242.703 307.552L261.093 308.288L261.551 315.501C261.854 320.277 261.357 323.129 260.08 323.939C259.019 324.611 250.371 325.172 240.864 325.185L223.577 325.207V340.615V356.025L245.278 356.431L266.978 356.838L267.418 365.252C267.826 373.036 267.598 373.731 264.384 374.537C260.041 375.627 203.529 374.805 202.363 373.635C200.87 372.136 199.567 298.703 200.711 280.599C201.716 264.716 202.085 263.097 204.97 261.934C206.708 261.233 221.192 260.617 237.158 260.565L266.187 260.473L267.053 263.923Z" fill="#D9D9D9"/>
<path d="M339.753 262.883C342.557 264.048 345.359 265.803 345.983 266.783C347.552 269.252 347.456 285.484 345.871 285.484C345.164 285.484 340.841 283.829 336.267 281.806C320.668 274.907 305.966 278.217 305.966 288.629C305.966 296.028 308.46 298.473 323.924 306.232C332.115 310.343 340.76 315.136 343.135 316.883C348.857 321.089 353.116 329.719 354.081 339.061C355.614 353.921 345.127 369.194 329.807 374.414C314.733 379.55 287.409 375.592 281.704 367.444C278.83 363.343 278.714 350.421 281.542 349.335C282.673 348.901 287.143 350.35 291.473 352.554C297.074 355.405 302.33 356.757 309.692 357.241C319.289 357.871 320.385 357.631 324.772 353.938C328.581 350.733 329.505 348.858 329.505 344.333C329.505 337.314 324.995 333.175 309.581 326.053C288.875 316.487 282.132 307.961 282.132 291.348C282.132 275.732 293.248 263.143 309.561 260.284C317.528 258.89 333.435 260.258 339.753 262.883Z" fill="#D9D9D9"/>
<path d="M437.099 262.872C440.848 264.046 445.082 266.297 446.509 267.875C449.853 271.569 451.06 283.845 448.423 287.343C446.576 289.797 446.186 289.749 441.319 286.48C429.856 278.779 416.555 277.424 406.779 282.962C394.972 289.649 388.569 311.619 392.673 331.368C394.71 341.183 398.989 348.104 405.895 352.757C413.648 357.983 428.054 357.505 439.175 351.657C443.824 349.21 447.975 347.556 448.398 347.98C448.822 348.404 449.468 352.35 449.831 356.749C450.429 363.949 450.105 365.108 446.589 368.368C440.667 373.856 426.172 377.224 412.006 376.403C382.684 374.706 366.23 354.489 366.321 320.271C366.363 305.264 367.831 297.252 372.276 287.796C383.327 264.285 409.498 254.222 437.099 262.872Z" fill="#D9D9D9"/>
<path d="M328.708 18.8235L334.162 35.3748H352.789H371.418L360.467 43.0988C354.444 47.3462 347.641 52.4778 345.351 54.5008L341.184 58.1788L347.115 75.7645C350.376 85.4363 353.045 93.5295 353.045 93.7502C353.045 93.9694 346.445 89.1997 338.378 83.1515C330.312 77.1033 322.939 72.1555 321.996 72.1555C321.052 72.1555 314.5 76.4589 307.437 81.7185C300.374 86.9781 293.887 91.2815 293.023 91.2815C292.152 91.2815 294.024 83.634 297.234 74.0784C300.412 64.617 302.436 56.5061 301.733 56.0559C301.028 55.6057 294.358 50.933 286.912 45.6734L273.371 36.1104L291.783 35.7L310.196 35.288L312.57 26.8726C317.484 9.45764 321.041 -0.15683 322.13 1.03781C322.748 1.71603 325.708 9.72099 328.708 18.8235Z" fill="#D9D9D9"/>
<path d="M470.911 53.4724C473.453 61.7245 476.175 69.2852 476.959 70.2724C477.907 71.4626 484.393 72.2055 496.225 72.4792L514.064 72.8911L499.123 83.5531L484.183 94.2151L489.968 111.437C493.15 120.911 495.754 129.148 495.754 129.744C495.754 130.341 489.166 125.902 481.116 119.882C473.063 113.862 465.841 108.936 465.064 108.936C464.288 108.936 457.482 113.571 449.939 119.235C442.396 124.899 435.791 129.533 435.262 129.533C434.732 129.533 436.871 121.776 440.015 112.292C443.159 102.81 445.73 94.6992 445.725 94.2696C445.721 93.84 439.06 88.854 430.925 83.1897L416.131 72.8911L434.494 72.1555C444.592 71.7509 453.112 71.0889 453.426 70.6843C453.739 70.2797 456.274 62.5705 459.059 53.5533C461.844 44.5347 464.61 37.4522 465.207 37.8112C465.803 38.1716 468.37 45.2188 470.911 53.4724Z" fill="#D9D9D9"/>
<path d="M564.862 162.636L567.403 171.463L586.794 172.199L606.185 172.935L594.739 180.623C588.443 184.853 581.52 189.818 579.351 191.658L575.411 195.003L581.028 211.922C584.116 221.228 586.432 229.072 586.172 229.355C585.911 229.637 579.361 225.169 571.618 219.424C563.874 213.68 557.041 208.98 556.435 208.98C555.829 208.98 549.092 213.614 541.467 219.278C533.841 224.943 527.102 229.577 526.491 229.577C525.879 229.577 527.974 221.854 531.145 212.417C535.11 200.616 536.453 194.707 535.447 193.494C534.64 192.524 527.976 187.501 520.636 182.333L507.289 172.935L525.985 172.199L544.683 171.463L549.022 157.487C556.172 134.458 556.026 134.631 559.425 144.981C561.018 149.836 563.466 157.781 564.862 162.636Z" fill="#D9D9D9"/>
<path d="M590.612 275.553C590.946 276.565 593.264 284.16 595.765 292.429L600.312 307.467L619.458 307.877L638.603 308.288L623.017 319.187C611.438 327.281 607.663 330.687 608.336 332.428C612.698 343.719 619.255 364.031 618.714 364.574C617.925 365.361 611.99 361.376 599.139 351.427C594.1 347.525 589.598 344.333 589.136 344.333C588.673 344.333 581.621 349.323 573.466 355.421C565.31 361.52 558.435 366.309 558.187 366.063C557.942 365.816 560.325 358.012 563.487 348.721C566.647 339.429 569.251 331.386 569.274 330.846C569.297 330.306 562.675 325.01 554.556 319.076L539.797 308.288L558.486 307.552L577.174 306.816L582.44 290.277C587.435 274.589 589.227 271.358 590.612 275.553Z" fill="#D9D9D9"/>
<path d="M564.818 418.227L570.2 434.813L589.054 435.549L607.908 436.285L593.026 446.474C584.84 452.078 578.143 457.397 578.143 458.293C578.143 459.189 580.479 466.793 583.335 475.191C586.191 483.591 588.333 491.047 588.094 491.762C587.856 492.477 581.433 488.397 573.819 482.696C566.207 476.995 559.323 472.33 558.524 472.33C557.724 472.33 550.831 477.018 543.206 482.749C535.582 488.479 529.094 492.919 528.789 492.614C528.483 492.309 530.525 484.991 533.326 476.352C536.128 467.714 538.42 459.762 538.42 458.684C538.42 457.604 531.738 451.978 523.569 446.18L508.717 435.639L527.615 435.227L546.512 434.813L552.188 417.44C555.31 407.884 558.217 400.42 558.649 400.853C559.082 401.286 561.858 409.104 564.818 418.227Z" fill="#D9D9D9"/>
<path d="M456.287 519.041L461.5 536.328L480.337 537.064L499.175 537.799L485.03 547.362C477.252 552.622 470.552 557.733 470.143 558.719C469.734 559.706 470.74 564.34 472.379 569.017C474.02 573.696 476.581 581.368 478.073 586.067L480.786 594.612L476.868 592.083C474.713 590.693 468.228 586.02 462.457 581.699C456.686 577.38 451.154 573.844 450.164 573.844C449.174 573.844 442.052 578.497 434.338 584.183C426.624 589.871 420.079 594.289 419.792 594.003C419.506 593.716 421.585 586.618 424.411 578.226C430.257 560.868 430.651 557.184 426.865 555.311C422.118 552.96 401.668 537.839 401.631 536.65C401.612 536.019 407.057 535.79 413.733 536.14C420.41 536.49 428.744 536.346 432.258 535.818L438.644 534.857L443.93 518.306C446.839 509.203 449.636 501.754 450.146 501.754C450.657 501.754 453.421 509.534 456.287 519.041Z" fill="#D9D9D9"/>
<path d="M334.85 566.488L337.638 574.58H355.642C365.543 574.58 373.645 575.045 373.644 575.611C373.642 576.179 367.353 581.029 359.666 586.388C351.978 591.748 345.689 597.057 345.689 598.189C345.689 599.32 348.064 607.268 350.966 615.851C353.869 624.434 355.968 631.733 355.632 632.07C355.295 632.405 348.783 628.049 341.162 622.389C333.541 616.728 326.566 612.096 325.661 612.096C324.756 612.096 317.803 616.719 310.21 622.37C302.616 628.019 296.231 632.14 296.022 631.525C295.813 630.91 297.964 623.509 300.803 615.079C303.643 606.647 305.966 599.008 305.966 598.105C305.966 597.2 299.673 591.926 291.983 586.384C284.293 580.842 278.302 576.007 278.669 575.639C279.036 575.273 286.487 575.055 295.226 575.158C303.965 575.261 311.829 574.842 312.701 574.227C313.572 573.612 316.1 567.243 318.315 560.074C320.532 552.903 323.026 545.289 323.856 543.155C325.502 538.923 324.965 537.786 334.85 566.488Z" fill="#D9D9D9"/>
<path d="M198.156 515.762L203.715 531.914L221.82 532.65L239.927 533.386L225.866 543.442C217.017 549.771 211.807 554.48 211.807 556.15C211.807 557.609 214.132 565.308 216.974 573.26C219.815 581.212 221.963 588.248 221.748 588.895C221.532 589.541 215.069 585.45 207.386 579.802C199.703 574.153 192.424 569.535 191.21 569.541C189.996 569.546 183.045 574.098 175.762 579.656C168.479 585.216 162.312 589.194 162.056 588.499C161.799 587.803 163.986 579.822 166.916 570.761C169.845 561.701 171.709 553.827 171.059 553.263C170.41 552.701 164.069 548.076 156.969 542.984C149.87 537.893 143.778 533.269 143.433 532.71C143.088 532.151 149.712 531.984 158.157 532.337C180.791 533.286 179.45 534.176 185.312 514.304C188.066 504.969 190.83 497.844 191.457 498.471C192.082 499.096 195.097 506.877 198.156 515.762Z" fill="#D9D9D9"/>
<path d="M100.937 428.887L106.492 445.767L125.637 446.174L144.784 446.583L129.745 457.316C121.474 463.22 114.706 468.883 114.706 469.901C114.706 470.919 117.023 478.632 119.855 487.042C122.687 495.452 125.005 502.855 125.005 503.495C125.005 504.133 118.992 500.196 111.643 494.745C104.293 489.294 97.4912 484.27 96.5261 483.58C95.38 482.761 89.5275 486.267 79.6541 493.683C71.3401 499.93 64.1855 504.689 63.756 504.26C63.3264 503.829 63.7574 502.013 64.7152 500.226C66.3909 497.095 74.9034 471.212 74.9564 469.086C74.9711 468.516 68.2152 463.22 59.944 457.316L44.9051 446.583L63.7118 446.171L82.5185 445.758L84.54 441.022C85.6522 438.416 88.0827 430.823 89.9394 424.147C91.7961 417.471 93.7808 412.009 94.3487 412.009C94.9166 412.009 97.8811 419.605 100.937 428.887Z" fill="#D9D9D9"/>
<path d="M55.7848 289.53C58.4286 298.229 61.1268 305.918 61.7786 306.618C62.4304 307.318 70.9635 307.78 80.7427 307.645C91.0928 307.502 98.5226 307.982 98.5226 308.789C98.5226 309.554 97.6957 310.497 96.6835 310.887C94.843 311.595 69.098 329.69 69.098 330.275C69.098 330.446 71.7241 338.445 74.9343 348.051C78.1445 357.656 80.6162 365.673 80.425 365.864C80.2337 366.054 73.469 361.308 65.392 355.316C57.3164 349.323 50.3736 344.4 49.9646 344.377C49.5556 344.352 42.6085 349.248 34.527 355.255C26.4456 361.262 19.6662 366.01 19.4617 365.805C19.2572 365.602 21.6317 357.733 24.7375 348.317L30.3841 331.201L26.5692 327.659C24.4712 325.713 17.7977 320.558 11.7392 316.204L0.722626 308.288L19.3778 307.877L38.033 307.465L43.5869 290.59C46.6411 281.308 49.5542 273.714 50.0588 273.714C50.5634 273.714 53.1396 280.83 55.7848 289.53Z" fill="#D9D9D9"/>
<path d="M95.4918 151.517L100.729 166.881L119.488 166.492C129.804 166.279 138.246 166.386 138.246 166.732C138.246 167.076 134.109 170.213 129.051 173.701C123.994 177.189 117.089 182.258 113.707 184.962L107.559 189.879L113.326 207.044C116.498 216.485 118.887 224.414 118.636 224.666C118.384 224.918 111.658 220.198 103.687 214.178C95.7154 208.157 88.4799 203.655 87.606 204.173C86.7321 204.693 80.191 209.374 73.0703 214.576C65.9495 219.779 59.7586 223.67 59.3128 223.224C58.8671 222.778 60.4722 216.246 62.8806 208.708C65.2904 201.171 67.6944 193.591 68.2241 191.863C69.0494 189.176 67.0221 187.169 54.1032 177.887L39.0187 167.05L58.0034 166.314L76.9896 165.579L81.5593 151.602C84.0736 143.915 86.6792 136.301 87.3486 134.683C88.7698 131.25 88.1313 129.931 95.4918 151.517Z" fill="#D9D9D9"/>
</svg>
