<svg width="2735" height="2359" viewBox="0 0 2735 2359" fill="none" xmlns="http://www.w3.org/2000/svg">
<path fill-rule="evenodd" clip-rule="evenodd" d="M568.072 728.615C568.485 728.827 568.83 723.001 568.84 715.667C568.95 635.567 623.704 557.978 700.318 529.352C726.637 519.518 745.685 515.85 770.473 515.84C801.142 515.828 829.466 523.928 856.822 540.533C860.753 542.247 861.913 542.567 861.19 541.858C861.178 541.846 861.166 541.834 861.153 541.823L865.566 544.848L872.475 551.755C882.281 561.558 891.041 572.355 898.614 583.971L901.566 588.5L915.566 614L920.706 625.993C924.939 635.871 928.37 646.074 930.964 656.503L935.066 673L937.286 694.365C938.471 705.767 938.656 717.25 937.839 728.683L937.754 729.881C936.964 740.937 935.173 751.9 932.403 762.633C929.85 772.527 926.474 782.19 922.311 791.522L918.082 801L905.029 824.834C904.594 824.834 902.232 826.913 899.78 829.455C893.004 836.478 878.764 848.153 869.036 854.66C842.419 872.465 815.347 883.512 783.813 889.438C770.528 891.935 738.002 892.458 723.822 890.403C701.914 887.228 685.024 881.969 665.82 872.342C649.42 864.12 637.908 855.844 623.641 842.019L614.96 833.607L616.159 817.014C616.471 812.69 616.22 808.343 615.411 804.084L612.851 790.603C611.832 785.237 609.941 780.075 607.253 775.321L598.083 759.104C595.423 754.399 592.018 750.157 587.999 746.542L568.072 728.615ZM720.822 554.574C732.728 550.171 749.402 546.251 762.033 544.885C772.92 543.707 791.74 543.688 799.322 544.848C833.327 550.051 861.67 568.586 887.224 602.334C897.379 615.745 904.853 628.953 909.009 640.834C917.848 666.099 917.291 689.746 907.236 716.06C904.199 724.008 902.822 725.342 902.822 720.335C902.822 714.601 898.941 697.36 894.831 684.834C880.769 641.976 863.008 615.328 834.07 593.666C813.991 578.635 790.47 571.846 758.45 571.838C739.947 571.833 726.995 573.489 707.028 578.41C694.263 581.557 671.056 589.593 663.6 593.449C658.84 595.91 660.295 592.933 667.072 586.343C678.826 574.914 700.566 562.064 720.822 554.574ZM622.612 737.896C610.382 720.882 615.677 694.587 633.128 685.676C639.636 682.353 649.066 682.122 655.322 685.132C662.057 688.373 667.948 694.339 671.437 701.452C674.073 706.827 674.318 708.24 674.279 717.834C674.245 726.331 673.834 729.212 672.128 732.937C665.983 746.349 652.206 753.46 639.189 749.938C634.075 748.554 626.119 742.775 622.612 737.896ZM636.822 785.834C636.822 781.964 640.801 774.896 643.875 773.307C656.191 766.938 666.716 784.488 657.295 795.683C652.033 801.938 642.658 800.257 638.842 792.375C637.731 790.08 636.822 787.137 636.822 785.834Z" fill="url(#paint0_linear_939_953)" fill-opacity="0.1"/>
<path d="M869.036 854.66C878.764 848.153 893.004 836.478 899.78 829.455C902.232 826.913 904.594 824.834 905.029 824.834L905.071 824.844C905.362 825.015 904.072 827.306 902.11 830.084C890.685 846.26 874.614 863.41 860.15 874.863C848.212 884.316 825.682 893.885 801.673 899.701C732.387 916.483 663.486 900.216 616.629 856.013L609.904 849.669L611.312 846.002C612.087 843.984 613.224 840.37 613.84 837.971L614.96 833.607L623.641 842.019C637.908 855.844 649.42 864.12 665.82 872.342C685.024 881.969 701.914 887.228 723.822 890.403C738.002 892.458 770.528 891.935 783.813 889.438C815.347 883.512 842.419 872.465 869.036 854.66Z" fill="url(#paint1_linear_939_953)" fill-opacity="0.1"/>
<path d="M643.875 773.307C640.801 774.896 636.822 781.964 636.822 785.834C636.822 787.137 637.731 790.08 638.842 792.375C642.658 800.257 652.033 801.938 657.295 795.683C666.716 784.488 656.191 766.938 643.875 773.307Z" fill="url(#paint2_linear_939_953)" fill-opacity="0.1"/>
<path d="M633.128 685.676C615.677 694.587 610.382 720.882 622.612 737.896C626.119 742.775 634.075 748.554 639.189 749.938C652.206 753.46 665.983 746.349 672.128 732.937C673.834 729.212 674.245 726.331 674.279 717.834C674.318 708.24 674.073 706.827 671.437 701.452C667.948 694.339 662.057 688.373 655.322 685.132C649.066 682.122 639.636 682.353 633.128 685.676Z" fill="url(#paint3_linear_939_953)" fill-opacity="0.1"/>
<path d="M762.033 544.885C749.402 546.251 732.728 550.171 720.822 554.574C700.566 562.064 678.826 574.914 667.072 586.343C660.295 592.933 658.84 595.91 663.6 593.449C671.056 589.593 694.263 581.557 707.028 578.41C726.995 573.489 739.947 571.833 758.45 571.838C790.47 571.846 813.991 578.635 834.07 593.666C863.008 615.328 880.769 641.976 894.831 684.834C898.941 697.36 902.822 714.601 902.822 720.335C902.822 725.342 904.199 724.008 907.236 716.06C917.291 689.746 917.848 666.099 909.009 640.834C904.853 628.953 897.379 615.745 887.224 602.334C861.67 568.586 833.327 550.051 799.322 544.848C791.74 543.688 772.92 543.707 762.033 544.885Z" fill="url(#paint4_linear_939_953)" fill-opacity="0.1"/>
<path d="M508.116 759.008C501.002 762.326 495.02 770.708 492.181 781.334C490.157 788.913 490.465 804.109 492.832 813.424C498.594 836.098 514.173 856.668 531.539 864.534C539.248 868.026 549.431 868.287 555.367 865.144C561.165 862.074 567.177 855.103 569.934 848.253C572.066 842.955 572.313 840.813 572.295 827.834C572.275 814.005 572.119 812.881 568.908 803.543C563.699 788.391 555.144 775.457 544.92 767.275C531.547 756.574 519.255 753.812 508.116 759.008Z" fill="url(#paint5_linear_939_953)" fill-opacity="0.1"/>
<path d="M506.822 743.417C511.85 738.109 518.452 734.165 525.292 732.384C538.526 728.937 552.224 732.236 566.259 742.252C582.349 753.733 595.711 774.19 601.012 795.457C604.226 808.352 604.212 827.39 600.981 837.834C599.704 841.959 597.491 847.352 596.061 849.819C590.722 859.032 581.805 866.566 573.013 869.291C570.914 869.941 571.032 869.576 574.306 865.287C579.016 859.117 580.153 856.818 582.941 847.834C586.059 837.785 586.072 819.249 582.969 807.592C577.994 788.905 570.633 775.668 558.322 763.272C541.48 746.315 525.332 741.136 505.822 746.433C503.464 747.073 503.521 746.902 506.822 743.417Z" fill="url(#paint6_linear_939_953)" fill-opacity="0.1"/>
<path d="M686.822 497.843C649.344 504.558 616.153 519.501 586.822 542.863C575.323 552.022 556.715 571.248 548.136 582.834C525.855 612.922 512.145 646.699 507.343 683.334C506.034 693.32 505.141 726.834 506.184 726.834C506.383 726.834 509.431 725.526 512.958 723.926C520.163 720.659 528.604 718.834 536.506 718.834H541.822V712.058C541.822 698.674 545.178 677.036 549.815 660.522C561.055 620.494 582.69 584.7 614.109 554.149C641.422 527.592 672.505 509.259 707.822 498.877C711.947 497.664 716.447 496.255 717.822 495.744C722.299 494.083 699.009 495.659 686.822 497.843Z" fill="url(#paint7_linear_939_953)" fill-opacity="0.1"/>
<path d="M653.346 537.643C678.256 521.108 709.018 509.001 740.51 503.339C745.356 502.467 755.847 501.539 763.822 501.276C778.152 500.804 778.445 500.838 788.822 504.169C811.033 511.299 827.973 519.425 846.788 531.974L846.789 531.975L861.153 541.823C861.166 541.834 861.178 541.846 861.19 541.858C861.913 542.567 860.753 542.247 856.822 540.533C829.466 523.928 801.142 515.828 770.473 515.84C745.685 515.85 726.637 519.518 700.318 529.352C623.704 557.978 568.95 635.567 568.84 715.667C568.83 723.001 568.485 728.827 568.072 728.615C567.659 728.403 564.284 726.786 560.572 725.022L553.822 721.814L553.839 714.574C553.938 673.293 571.743 624.377 600.027 587.683C614.082 569.449 634.985 549.832 653.346 537.643Z" fill="url(#paint8_linear_939_953)" fill-opacity="0.1"/>
<path d="M599.875 865.918C598.07 868.164 594.389 871.585 591.697 873.52L586.8 877.037L591.08 880.305C617.826 900.727 653.612 915.419 691.322 921.461C705.938 923.803 738.818 923.798 753.822 921.452C770.783 918.801 771.836 917.925 757.322 918.542C702.737 920.863 651.008 902.901 610.995 867.734C607.325 864.508 604.06 861.861 603.739 861.851C603.419 861.842 601.68 863.672 599.875 865.918Z" fill="url(#paint9_linear_939_953)" fill-opacity="0.1"/>
<path d="M872.522 880.6C827.753 918.393 774.046 937.164 715.322 935.542C673.71 934.392 640.261 924.579 600.174 901.759L596.025 899.397L586.174 902.715C561.915 910.885 533.974 927.406 513.914 945.441L508.639 950.184L516.087 952.813C534.231 959.217 551.706 975.362 562.746 995.922C566.774 1003.42 570.822 1016.49 570.822 1021.99C570.822 1023.56 571.159 1024.83 571.572 1024.83C571.985 1024.83 577.722 1023.46 584.322 1021.79C597.967 1018.33 611.121 1016.89 612.258 1018.73C612.655 1019.37 614.057 1025.2 615.372 1031.68C616.687 1038.16 619.349 1048.98 621.287 1055.71C624.597 1067.21 632.29 1088.45 633.729 1090.06C634.087 1090.46 635.901 1088.21 637.76 1085.06C658.555 1049.82 690.555 1023.12 722.136 1014.67C725.758 1013.7 726.721 1013.04 726.229 1011.87C725.876 1011.03 725.369 1006.06 725.102 1000.83C724.501 989.031 726.807 981.796 733.215 975.388C742.432 966.171 786.311 951.179 816.822 946.822C828.875 945.101 845.687 945.404 850.891 947.435C865.389 953.096 880.487 969.738 886.352 986.523L888.65 993.099L896.737 993.217C901.184 993.281 904.823 993.207 904.822 993.051C904.822 992.895 903.753 990.645 902.446 988.051C899.845 982.887 895.492 971.074 894.443 966.334C893.984 964.26 894.797 965.197 897.078 969.37C901.184 976.884 908.5 986.466 913.451 990.813L917.211 994.114L927.421 993.489C945.173 992.403 972.871 987.691 974.73 985.44C976.39 983.43 978.926 971.741 979.516 963.376C980.841 944.6 974.036 921.016 961.721 901.706C958.924 897.32 958.496 897.054 953.546 896.64C950.185 896.358 943.685 894.215 935.322 890.632C918.741 883.527 907.131 879.428 893.322 875.803C887.272 874.215 882.187 872.897 882.022 872.875C881.857 872.852 877.582 876.329 872.522 880.6Z" fill="url(#paint10_linear_939_953)" fill-opacity="0.1"/>
<path d="M494.683 964.584C477.554 982.412 459.301 1012.8 450.984 1037.33C449.306 1042.28 446.737 1049.03 445.276 1052.33C440.86 1062.3 438.822 1072.09 438.822 1083.31C438.822 1100.04 443.31 1110.98 455.299 1123.49C459.162 1127.52 463.938 1132.62 465.912 1134.82C468.571 1137.79 470.258 1138.83 472.412 1138.8C478.636 1138.73 480.998 1134.38 483.833 1117.77C487.175 1098.18 490.87 1089.08 499.101 1080.15C505.488 1073.22 508.935 1074.25 511.704 1083.9C514.158 1092.47 519.499 1105.15 521.974 1108.3C523.31 1110 524.949 1110.83 526.946 1110.83C531.374 1110.83 532.954 1106.36 532.159 1096.05C531.688 1089.94 531.936 1086.96 533.23 1083.21C535.914 1075.44 536.47 1062.82 534.37 1057.32C533.411 1054.81 532.906 1051.76 533.25 1050.54C533.909 1048.21 550.706 1034.34 555.83 1031.9C563.209 1028.38 561.362 1012.66 551.693 996.692C547.186 989.247 545.603 987.238 538.522 979.973C526.631 967.773 513.274 960.588 501.284 959.944C500.068 959.878 497.408 961.748 494.683 964.584Z" fill="url(#paint11_linear_939_953)" fill-opacity="0.1"/>
<path d="M599.05 1046.88C590.405 1050.8 580.05 1057.54 579.365 1059.7C577.02 1067.09 600.202 1116.48 609.417 1123.73C611.666 1125.5 612.172 1125.52 617.737 1124.12L623.663 1122.63L624.354 1117.98C624.734 1115.42 625.798 1111.08 626.717 1108.33L628.388 1103.33L624.09 1093.53C618.975 1081.86 612.986 1064.69 609.813 1052.58C608.551 1047.77 607.127 1043.83 606.649 1043.83C606.17 1043.83 602.75 1045.21 599.05 1046.88Z" fill="url(#paint12_linear_939_953)" fill-opacity="0.1"/>
<path d="M580.322 1033.38C570.895 1036.04 559.526 1040.89 556.684 1043.46C555.127 1044.87 555.149 1045.45 557.013 1052.03C570.502 1099.7 597.175 1159.81 620.288 1194.64C632.196 1212.58 637.559 1215.41 659.322 1215.22C672.809 1215.11 685.338 1212.67 695.491 1208.18L699.66 1206.33L690.717 1195.33C685.798 1189.28 681.302 1184.17 680.725 1183.98C677.987 1183.04 658.702 1191.66 650.572 1197.45C647.96 1199.31 645.822 1200.44 645.822 1199.96C645.822 1198.32 660.781 1184.88 667.804 1180.21L674.822 1175.54L671.516 1171.44C669.697 1169.18 666.717 1165.45 664.894 1163.14C661.906 1159.36 661.023 1158.88 655.95 1158.26C644.697 1156.89 637.954 1154.1 632.327 1148.47C629.078 1145.22 626.575 1141.61 625.634 1138.81C624.218 1134.59 623.937 1134.35 620.727 1134.58C608.97 1135.42 607.226 1135.26 604.031 1132.98C599.578 1129.81 588.777 1113.06 581.81 1098.53C570.298 1074.51 566.828 1059.41 571.383 1053.16C574.475 1048.92 586.21 1041.34 596.072 1037.21C603.295 1034.19 604.822 1033.17 604.822 1031.36C604.822 1030.15 604.592 1028.94 604.312 1028.66C603.569 1027.91 590.726 1030.44 580.322 1033.38Z" fill="url(#paint13_linear_939_953)" fill-opacity="0.1"/>
<path d="M723.084 1024.99C690.813 1034.91 659.467 1063.75 640.962 1100.56C631.486 1119.4 631.494 1136.19 640.98 1142.95C643.796 1144.95 652.822 1148.26 652.822 1147.29C652.822 1147.04 651.199 1144.58 649.214 1141.82C646.233 1137.67 645.715 1136.23 646.228 1133.57C647.252 1128.24 656.498 1110.01 663.589 1099.33C671.672 1087.16 690.427 1067.99 703.135 1058.91C713.45 1051.53 728.232 1043.78 737.95 1040.65L744.822 1038.44V1034.2C744.822 1029.13 743.356 1024.81 741.027 1023.03C738.961 1021.45 732.187 1022.19 723.084 1024.99Z" fill="url(#paint14_linear_939_953)" fill-opacity="0.1"/>
<path d="M781.878 984.778C779.248 987.408 778.287 993.128 779.843 996.885C782.698 1003.78 790.096 1005.92 795.082 1001.29C799.621 997.085 798.524 988.573 792.868 984.116C790.409 982.178 784.098 982.558 781.878 984.778Z" fill="url(#paint15_linear_939_953)" fill-opacity="0.1"/>
<path fill-rule="evenodd" clip-rule="evenodd" d="M805.322 958.972C792.117 961.581 776.715 966.074 763.973 971.034C754.478 974.731 753.5 975.36 752.117 978.669C748.962 986.222 753.408 998.142 765.251 1013.88C775.024 1026.86 779.335 1028.54 797.021 1026.22C816.677 1023.65 847.289 1016.58 850.007 1013.99C850.384 1013.63 846.671 1007.71 841.757 1000.84C831.775 986.878 830.77 983.594 835.372 979.973C836.775 978.87 838.415 977.803 839.017 977.602C839.619 977.402 836.334 972.41 831.717 966.51L823.322 955.782L819.322 956.389C817.122 956.723 810.822 957.886 805.322 958.972ZM798.789 978.459C795.883 976.014 794.521 975.455 789.322 974.572C784.004 973.669 777.422 976.81 773.43 982.157C770.598 985.95 769.993 996.303 772.332 1000.93C776.239 1008.65 781.572 1012.12 789.528 1012.12C806.092 1012.12 812.239 989.777 798.789 978.459Z" fill="url(#paint16_linear_939_953)" fill-opacity="0.1"/>
<path d="M841.352 965.47C850.85 977.621 851.071 979.667 843.473 985.124C841.745 986.365 842.195 987.246 850.379 998.628L859.133 1010.8L862.728 1008.66C872.781 1002.66 876.812 997.888 876.818 991.974C876.824 986.442 871.107 977.052 862.359 968.226C857.938 963.767 852.747 959.28 850.822 958.257C847.705 956.6 836.469 954.753 834.602 955.592C834.206 955.769 837.244 960.215 841.352 965.47Z" fill="url(#paint17_linear_939_953)" fill-opacity="0.1"/>
<path d="M890.033 1010.9L889.744 1018.47L899.533 1018.57C910.93 1018.69 920.162 1020.61 929.302 1024.75L935.822 1027.71V1024.72C935.822 1020.62 933.686 1016.85 928.932 1012.55C920.931 1005.32 913.026 1002.9 898.322 1003.18L890.322 1003.33L890.033 1010.9Z" fill="url(#paint18_linear_939_953)" fill-opacity="0.1"/>
<path d="M888.652 1028.83C886.723 1028.83 884.516 1030.37 880.696 1034.37C874.231 1041.15 866.09 1045.33 855.322 1047.4C850.922 1048.25 834.947 1051.83 819.822 1055.36C787.695 1062.85 783.681 1063.43 774.067 1061.94C763.986 1060.38 756.796 1057.44 751.404 1052.7C746.14 1048.06 746.129 1048.06 733.891 1052.95C705.889 1064.13 677.598 1091.26 662.581 1121.33C662.38 1121.74 662.185 1122.13 661.996 1122.5L661.588 1123.32C658.633 1129.2 657.283 1131.89 657.584 1134.38C657.836 1136.47 659.254 1138.42 661.864 1142.01C662.192 1142.47 662.54 1142.94 662.906 1143.45C670.375 1153.8 699.166 1189.85 709.746 1202.11C726.504 1221.53 729.032 1224.61 733.854 1231.53C736.613 1235.49 741.222 1243.13 744.096 1248.5L749.322 1258.27L757.822 1262.55C768.676 1268.03 784.869 1273.22 797.947 1275.4C818.296 1278.81 842.455 1275.85 861.581 1267.61L869.322 1264.28L869.031 1249.31C868.678 1231.12 866.942 1216.86 862.291 1193.96C859.318 1179.31 857.283 1172.51 852.09 1159.83C851.752 1159.01 853.199 1160.36 855.307 1162.83C859.556 1167.82 867.822 1180.19 867.822 1181.56C867.822 1184.1 870.152 1184.58 875.931 1183.23C883.897 1181.37 890.122 1178.08 898.95 1171.06C919.534 1154.69 933.911 1132.31 939.561 1107.83C940.877 1102.13 941.279 1096.01 941.236 1082.33C941.182 1065.32 941.004 1063.68 937.97 1052.4C936.206 1045.84 934.24 1039.84 933.602 1039.07C932.215 1037.4 922.797 1032.59 917.649 1030.92C912.125 1029.13 901.949 1027.93 896.322 1028.4C893.572 1028.63 890.121 1028.82 888.652 1028.83Z" fill="url(#paint19_linear_939_953)" fill-opacity="0.1"/>
<path d="M951.608 1077.71C952.569 1107.65 945.081 1132.91 928.756 1154.8C923.161 1162.3 907.683 1177.91 902.433 1181.35L899.678 1183.16L911 1194.59L922.322 1206.02L932.822 1205.43C954.479 1204.19 979.641 1195.95 1003.32 1182.34C1011.79 1177.47 1024.22 1169.37 1027.14 1166.82C1028.28 1165.81 1021.62 1148.44 1015.07 1135.33C1002.3 1109.8 983.74 1087.48 960.822 1070.12C955.597 1066.16 951.279 1062.9 951.226 1062.88C951.174 1062.85 951.346 1069.53 951.608 1077.71Z" fill="url(#paint20_linear_939_953)" fill-opacity="0.1"/>
<path d="M875.16 1012.41C861.367 1022.93 832.673 1031.84 798.022 1036.35C791.257 1037.23 784.309 1037.81 782.582 1037.64L782.462 1037.63L782.317 1037.61C781.385 1037.52 780.739 1037.46 780.241 1037.7C779.115 1038.24 778.746 1040.35 777.542 1047.22L777.39 1048.08L776.731 1051.83H783.606C788.421 1051.83 796.75 1050.33 811.401 1046.81C832.111 1041.83 840.216 1040.07 852.822 1037.83C856.397 1037.2 861.177 1035.86 863.444 1034.87C868.799 1032.52 875.177 1026.71 877.286 1022.27C878.8 1019.08 881.007 1008.83 880.181 1008.83C879.993 1008.83 877.734 1010.44 875.16 1012.41Z" fill="url(#paint21_linear_939_953)" fill-opacity="0.1"/>
<path d="M998.322 1196.58C977.333 1207.12 958.809 1212.99 940.001 1215.05C931.363 1216 929.76 1216.44 930.175 1217.76C930.448 1218.62 931.849 1222.15 933.289 1225.59C939.737 1241 942.354 1259.55 941.297 1282.35C940.727 1294.67 940.874 1298.02 942.117 1301C942.958 1303.01 954.006 1315.92 966.918 1329.98C997.021 1362.76 1002.41 1368.08 1008.67 1371.26C1025.17 1379.62 1042.17 1378.16 1049.37 1367.77C1057.4 1356.17 1052.35 1327.69 1037.11 1298.57C1033.67 1292.01 1033.6 1291.65 1034.64 1286.07C1039.94 1257.58 1039.36 1216.75 1033.23 1187.34C1032.43 1183.49 1031.53 1179.57 1031.25 1178.64C1030.81 1177.23 1028.88 1178.15 1020.02 1183.99C1014.14 1187.88 1004.37 1193.54 998.322 1196.58Z" fill="url(#paint22_linear_939_953)" fill-opacity="0.1"/>
<path d="M755.23 1284.99C757.032 1299.22 759.822 1331.78 759.822 1338.57C759.822 1347.54 773.364 1378.67 784.337 1394.93C790.832 1404.55 801.24 1415.58 807.845 1419.84C812.818 1423.04 833.081 1430.14 843.618 1432.38C859.21 1435.68 869.169 1433.27 873.635 1425.1C877.228 1418.54 878.508 1405.54 876.956 1391.39C875.089 1374.37 871.15 1362.26 863.699 1350.64L860.691 1345.95L862.741 1333.64C865.419 1317.56 867.58 1299.6 868.444 1286.24C869.111 1275.93 869.062 1275.53 867.23 1276.28C836.619 1288.87 804.439 1290.09 773.631 1279.83C767.2 1277.69 760.225 1275.06 758.131 1273.98C756.036 1272.9 754.175 1272.16 753.995 1272.34C753.815 1272.51 754.371 1278.21 755.23 1284.99Z" fill="url(#paint23_linear_939_953)" fill-opacity="0.1"/>
<path d="M1089.21 823.868C1086.71 824.868 1083.09 826.678 1082.71 826.868C1082.46 826.993 1081.92 827.243 1081.26 827.556C1079.27 828.493 1076.08 829.993 1075.71 830.368L1070.74 833.723L1059.53 844.425C1049.02 854.457 1041.38 860.834 1039.86 860.834C1039.5 860.834 1038.35 860.206 1037.3 859.438C1035.71 858.281 1035.36 856.636 1035.22 849.85C1035.01 839.898 1032.8 834.065 1028.91 833.243C1027.49 832.942 1025.29 832.277 1024.03 831.765C1019.7 830.013 1019.23 830.546 1017.99 838.521C1017.33 842.749 1015.72 848.486 1014.41 851.271C1011.97 856.485 1010.38 863.237 1009.34 872.834C1008.27 882.726 1002.82 897.819 1002.82 890.893C1002.82 887.76 1001.3 887.647 995.239 890.328C988.52 893.3 979.247 895.834 975.094 895.834C973.478 895.834 971.904 896.086 971.596 896.394C971.288 896.701 973.213 901.089 975.874 906.144C981.373 916.591 987.218 933.23 988.762 942.834C990.249 952.086 990.037 967.153 988.305 975.334C987.489 979.183 986.822 982.436 986.822 982.562C986.822 983.411 1003.16 976.674 1011.95 972.201C1026.48 964.801 1040.57 954.162 1050.82 942.845C1055.5 937.683 1068.83 923.982 1080.45 912.397C1102.56 890.362 1109.74 881.28 1111.86 872.69C1113.22 867.19 1112.09 864.19 1108.31 863.242C1104.34 862.245 1096.01 864.808 1091.14 868.525C1086.34 872.186 1086.34 871.666 1091.14 865.503C1094.8 860.79 1100.29 857.237 1106.43 855.595L1111.08 854.35L1110.47 846.842C1109.43 834.011 1106.58 827.609 1099.9 823.108C1097.81 820.977 1092.73 822.683 1089.66 823.716C1089.5 823.768 1089.35 823.819 1089.21 823.868Z" fill="url(#paint24_linear_939_953)" fill-opacity="0.1"/>
<path d="M736.74 988.207C734.633 992.847 734.228 1002.15 735.875 1008.08C736.732 1011.17 737.369 1011.83 739.483 1011.83C743.616 1011.83 749.391 1015.72 751.908 1020.2C753.724 1023.43 754.32 1026.29 754.642 1033.33C754.868 1038.28 755.528 1042.92 756.108 1043.64C757.481 1045.34 765.782 1050.21 766.349 1049.64C766.588 1049.4 767.444 1045.76 768.25 1041.55L769.715 1033.89L763.972 1028.11C757.193 1021.29 747.363 1006.7 744.063 998.558C742.775 995.382 741.458 990.555 741.136 987.833C740.466 982.182 739.436 982.27 736.74 988.207Z" fill="url(#paint25_linear_939_953)" fill-opacity="0.1"/>
<path fill-rule="evenodd" clip-rule="evenodd" d="M851.666 520.526C822.543 501.201 785.884 487.766 751.822 483.937C740.973 482.717 708.823 482.68 698.322 483.875C635.516 491.022 577.289 524.135 539.204 574.364C517.902 602.458 504.239 633.403 497.117 669.685C494.641 682.297 494.423 685.461 494.253 711.334L494.069 739.334L490.507 745.172C485.715 753.028 483.19 760.913 480.689 775.834C474.81 810.9 484.308 841.214 508.151 863.481C516.917 871.668 524.677 876.068 534.324 878.323C538.173 879.222 543.948 880.64 547.157 881.472C550.983 882.464 556.553 882.897 563.33 882.728L573.667 882.472L579.245 886.774C582.312 889.141 584.821 891.36 584.819 891.706C584.818 892.051 581.233 893.6 576.852 895.147C519.859 915.275 463.469 971.99 442.934 1029.83C441.079 1035.06 438.301 1042.49 436.76 1046.35C431.526 1059.46 429.675 1067.71 429.132 1080.33C428.157 1102.99 432.544 1113.76 450.799 1133.52C457.454 1140.73 464.233 1147.18 465.865 1147.85C467.554 1148.55 471.169 1148.89 474.255 1148.63C485.027 1147.74 490.439 1140.3 493.284 1122.49C494.148 1117.08 495.324 1110.55 495.897 1107.99C497.088 1102.67 501.733 1091.83 502.825 1091.83C503.226 1091.83 504.564 1094.65 505.798 1098.08C508.731 1106.25 512.936 1113.62 516.753 1117.27C519.254 1119.66 520.881 1120.28 525.571 1120.61C530.365 1120.94 531.896 1120.62 534.768 1118.67C540.763 1114.6 542.124 1111.04 541.993 1099.8C541.913 1092.93 542.477 1087.59 543.85 1082.22C545.976 1073.91 546.423 1062.42 544.835 1056.88C544.119 1054.38 544.172 1053.24 545.028 1052.71C545.854 1052.2 548.367 1058.49 553.393 1073.65C566.842 1114.24 580.348 1145.89 596.849 1175.51C606.582 1192.98 619.96 1212.94 623.996 1216.01C639.603 1227.9 665.664 1229.11 694.081 1219.28C699.713 1217.33 705.026 1215.5 705.887 1215.21C706.953 1214.86 709.754 1217.46 714.665 1223.35C732.442 1244.68 741.979 1263.4 744.721 1282.33C746.213 1292.63 748.611 1318.52 749.399 1332.83C749.981 1343.39 750.624 1346.89 753.547 1355.33C765.777 1390.68 787.08 1420.89 806.749 1430.79C813.391 1434.13 831.234 1439.96 842.153 1442.35C852.505 1444.62 865.664 1444.06 871.322 1441.1C876.664 1438.31 881.273 1433.35 883.764 1427.7C891.592 1409.98 887.055 1369.81 874.968 1349.82L871.211 1343.61L873.013 1332.47C881.485 1280.13 881.559 1238.13 873.252 1197.19C872.63 1194.12 872.719 1194.03 876.968 1193.32C879.363 1192.92 883.563 1191.71 886.303 1190.64L891.283 1188.68L903.916 1201.51C914.071 1211.83 917.289 1215.81 920.325 1221.84C929.201 1239.46 931.214 1250.13 931.276 1279.86C931.321 1301.91 931.374 1302.48 933.822 1307.1C935.197 1309.7 948.022 1324.54 962.322 1340.08C987.705 1367.66 991.864 1372.2 996.767 1375.69C997.781 1376.41 998.827 1377.09 1000.1 1377.91C1022.02 1392.16 1050.57 1388.64 1059.6 1370.57C1067.13 1355.49 1062.61 1327.33 1047.96 1298.08L1044.09 1290.33L1045.4 1282.83C1046.13 1278.71 1047.26 1267.54 1047.93 1258.01C1049.88 1230 1046.82 1197.82 1039.8 1172.5C1025.5 1120.94 996.35 1080.4 953.777 1052.88C947.672 1048.94 947.24 1048.4 945.643 1042.73C944.349 1038.14 944.199 1036.05 945.002 1033.75C946.466 1029.55 945.57 1019.08 943.355 1014.48C942.335 1012.37 939.997 1009.04 938.161 1007.09C936.324 1005.15 934.822 1003.45 934.822 1003.32C934.822 1003.2 937.634 1002.79 941.072 1002.43C989.254 997.287 1028.7 980.276 1054.65 953.441C1059.49 948.432 1073.8 933.759 1086.44 920.834C1099.08 907.909 1111.09 895.02 1113.13 892.192C1120.94 881.355 1124.19 870.5 1121.8 863.253C1121.1 861.146 1120.62 856.417 1120.73 852.744C1121.15 838.16 1117.02 824.939 1109.88 818.007C1106.19 814.423 1099.68 812.971 1095.64 812.873C1095.35 812.867 1095.06 812.893 1094.78 812.942L1083.71 814.868C1083.21 814.868 1074.16 818.826 1073.21 819.368C1072.81 819.592 1072.33 819.921 1071.67 820.376C1071.26 820.657 1070.78 820.986 1070.21 821.368L1061.82 827.997C1061.82 828.362 1058.14 832.086 1053.63 836.273L1045.44 843.884L1044.14 838.807C1043.42 836.014 1042.35 832.814 1041.75 831.696C1041.18 830.642 1039.98 828.704 1039 828.009L1031 822.291C1029.69 821.356 1028.18 820.751 1026.59 820.526L1021.36 819.787C1018.43 819.373 1014.96 821.54 1012.87 823.629C1011.25 825.251 1009.72 827.648 1009.48 828.956C1009.23 830.264 1008.5 834.235 1007.85 837.78C1007.2 841.325 1005.84 845.833 1004.84 847.796C1003.13 851.143 1000.86 860.855 999.091 872.334C998.331 877.275 998.245 877.372 991.822 880.592C983.919 884.553 972.612 886.834 960.879 886.834C952.659 886.834 951.461 886.549 941.717 882.278C928.509 876.489 909.697 869.673 899.072 866.826C894.534 865.61 890.822 864.45 890.822 864.249C890.822 864.048 894.695 859.26 899.429 853.609C906.295 845.413 912.515 836.853 918.082 827.997L905.071 824.844C905.362 825.015 904.072 827.306 902.11 830.084C890.685 846.26 874.614 863.41 860.15 874.863C848.212 884.316 825.682 893.885 801.673 899.701C732.387 916.483 663.486 900.216 616.629 856.013L609.904 849.669L611.312 846.002C612.087 843.984 613.224 840.37 613.84 837.971L614.96 833.607L616.159 817.014C616.471 812.69 616.22 808.343 615.411 804.084L612.851 790.603C611.832 785.237 609.941 780.075 607.253 775.321L598.083 759.104C595.423 754.399 592.018 750.157 587.999 746.542L568.072 728.615C567.659 728.403 564.284 726.786 560.572 725.022L553.822 721.814L553.839 714.574C553.938 673.293 571.743 624.377 600.027 587.683C614.082 569.449 634.985 549.832 653.346 537.643C678.256 521.108 709.018 509.001 740.51 503.339C745.356 502.467 755.847 501.539 763.822 501.276C778.152 500.804 778.445 500.838 788.822 504.169C811.033 511.299 827.973 519.425 846.788 531.974L855.566 523.169C854.278 522.277 852.978 521.396 851.666 520.526ZM686.822 497.843C649.344 504.558 616.153 519.501 586.822 542.863C575.323 552.022 556.715 571.248 548.136 582.834C525.855 612.922 512.145 646.699 507.343 683.334C506.034 693.32 505.141 726.834 506.184 726.834C506.383 726.834 509.431 725.526 512.958 723.926C520.163 720.659 528.604 718.834 536.506 718.834H541.822V712.058C541.822 698.674 545.178 677.036 549.815 660.522C561.055 620.494 582.69 584.7 614.109 554.149C641.422 527.592 672.505 509.259 707.822 498.877C711.947 497.664 716.447 496.255 717.822 495.744C722.299 494.083 699.009 495.659 686.822 497.843ZM525.292 732.384C518.452 734.165 511.85 738.109 506.822 743.417C503.521 746.902 503.464 747.073 505.822 746.433C525.332 741.136 541.48 746.315 558.322 763.272C570.633 775.668 577.994 788.905 582.969 807.592C586.072 819.249 586.059 837.785 582.941 847.834C580.153 856.818 579.016 859.117 574.306 865.287C571.032 869.576 570.914 869.941 573.013 869.291C581.805 866.566 590.722 859.032 596.061 849.819C597.491 847.352 599.704 841.959 600.981 837.834C604.212 827.39 604.226 808.352 601.012 795.457C595.711 774.19 582.349 753.733 566.259 742.252C552.224 732.236 538.526 728.937 525.292 732.384ZM508.116 759.008C501.002 762.326 495.02 770.708 492.181 781.334C490.157 788.913 490.465 804.109 492.832 813.424C498.594 836.098 514.173 856.668 531.539 864.534C539.248 868.026 549.431 868.287 555.367 865.144C561.165 862.074 567.177 855.103 569.934 848.253C572.066 842.955 572.313 840.813 572.295 827.834C572.275 814.005 572.119 812.881 568.908 803.543C563.699 788.391 555.144 775.457 544.92 767.275C531.547 756.574 519.255 753.812 508.116 759.008ZM1082.71 826.868C1082.46 826.993 1081.92 827.243 1081.26 827.556C1079.27 828.493 1076.08 829.993 1075.71 830.368L1070.74 833.723L1059.53 844.425C1049.02 854.457 1041.38 860.834 1039.86 860.834C1039.5 860.834 1038.35 860.206 1037.3 859.438C1035.71 858.281 1035.36 856.636 1035.22 849.85C1035.01 839.898 1032.8 834.065 1028.91 833.243C1027.49 832.942 1025.29 832.277 1024.03 831.765C1019.7 830.013 1019.23 830.546 1017.99 838.521C1017.33 842.749 1015.72 848.486 1014.41 851.271C1011.97 856.485 1010.38 863.237 1009.34 872.834C1008.27 882.726 1002.82 897.819 1002.82 890.893C1002.82 887.76 1001.3 887.647 995.239 890.328C988.52 893.3 979.247 895.834 975.094 895.834C973.478 895.834 971.904 896.086 971.596 896.394C971.288 896.701 973.213 901.089 975.874 906.144C981.373 916.591 987.218 933.23 988.762 942.834C990.249 952.086 990.037 967.153 988.305 975.334C987.489 979.183 986.822 982.436 986.822 982.562C986.822 983.411 1003.16 976.674 1011.95 972.201C1026.48 964.801 1040.57 954.162 1050.82 942.845C1055.5 937.683 1068.83 923.982 1080.45 912.397C1102.56 890.362 1109.74 881.28 1111.86 872.69C1113.22 867.19 1112.09 864.19 1108.31 863.242C1104.34 862.245 1096.01 864.808 1091.14 868.525C1086.34 872.186 1086.34 871.666 1091.14 865.503C1094.8 860.79 1100.29 857.237 1106.43 855.595L1111.08 854.35L1110.47 846.842C1109.43 834.011 1106.58 827.609 1099.9 823.108C1097.81 820.977 1092.73 822.683 1089.66 823.716C1089.5 823.768 1089.35 823.819 1089.21 823.868C1086.71 824.868 1083.09 826.678 1082.71 826.868ZM599.875 865.918C598.07 868.164 594.389 871.585 591.697 873.52L586.8 877.037L591.08 880.305C617.826 900.727 653.612 915.419 691.322 921.461C705.938 923.803 738.818 923.798 753.822 921.452C770.783 918.801 771.836 917.925 757.322 918.542C702.737 920.863 651.008 902.901 610.995 867.734C607.325 864.508 604.06 861.861 603.739 861.851C603.419 861.842 601.68 863.672 599.875 865.918ZM872.522 880.6C827.753 918.393 774.046 937.164 715.322 935.542C673.71 934.392 640.261 924.579 600.174 901.759L596.025 899.397L586.174 902.715C561.915 910.885 533.974 927.406 513.914 945.441L508.639 950.184L516.087 952.813C534.231 959.217 551.706 975.362 562.746 995.922C566.774 1003.42 570.822 1016.49 570.822 1021.99C570.822 1023.56 571.159 1024.83 571.572 1024.83C571.985 1024.83 577.722 1023.46 584.322 1021.79C597.967 1018.33 611.121 1016.89 612.258 1018.73C612.655 1019.37 614.057 1025.2 615.372 1031.68C616.687 1038.16 619.349 1048.98 621.287 1055.71C624.597 1067.21 632.29 1088.45 633.729 1090.06C634.087 1090.46 635.901 1088.21 637.76 1085.06C658.555 1049.82 690.555 1023.12 722.136 1014.67C725.758 1013.7 726.721 1013.04 726.229 1011.87C725.876 1011.03 725.369 1006.06 725.102 1000.83C724.501 989.031 726.807 981.796 733.215 975.388C742.432 966.171 786.311 951.179 816.822 946.822C828.875 945.101 845.687 945.404 850.891 947.435C865.389 953.096 880.487 969.738 886.352 986.523L888.65 993.099L896.737 993.217C901.184 993.281 904.823 993.207 904.822 993.051C904.822 992.895 903.753 990.645 902.446 988.051C899.845 982.887 895.492 971.074 894.443 966.334C893.984 964.26 894.797 965.197 897.078 969.37C901.184 976.884 908.5 986.466 913.451 990.813L917.211 994.114L927.421 993.489C945.173 992.403 972.871 987.691 974.73 985.44C976.39 983.43 978.926 971.741 979.516 963.376C980.841 944.6 974.036 921.016 961.721 901.706C958.924 897.32 958.496 897.054 953.546 896.64C950.185 896.358 943.685 894.215 935.322 890.632C918.741 883.527 907.131 879.428 893.322 875.803C887.272 874.215 882.187 872.897 882.022 872.875C881.857 872.852 877.582 876.329 872.522 880.6ZM841.352 965.47C850.85 977.621 851.071 979.667 843.473 985.124C841.745 986.365 842.195 987.246 850.379 998.628L859.133 1010.8L862.728 1008.66C872.781 1002.66 876.812 997.888 876.818 991.974C876.824 986.442 871.107 977.052 862.359 968.226C857.938 963.767 852.747 959.28 850.822 958.257C847.705 956.6 836.469 954.753 834.602 955.592C834.206 955.769 837.244 960.215 841.352 965.47ZM805.322 958.972C792.117 961.581 776.715 966.074 763.973 971.034C754.478 974.731 753.5 975.36 752.117 978.669C748.962 986.222 753.408 998.142 765.251 1013.88C775.024 1026.86 779.335 1028.54 797.021 1026.22C816.677 1023.65 847.289 1016.58 850.007 1013.99C850.384 1013.63 846.671 1007.71 841.757 1000.84C831.775 986.878 830.77 983.594 835.372 979.973C836.775 978.87 838.415 977.803 839.017 977.602C839.619 977.402 836.334 972.41 831.717 966.51L823.322 955.782L819.322 956.389C817.122 956.723 810.822 957.886 805.322 958.972ZM494.683 964.584C477.554 982.412 459.301 1012.8 450.984 1037.33C449.306 1042.28 446.737 1049.03 445.276 1052.33C440.86 1062.3 438.822 1072.09 438.822 1083.31C438.822 1100.04 443.31 1110.98 455.299 1123.49C459.162 1127.52 463.938 1132.62 465.912 1134.82C468.571 1137.79 470.258 1138.83 472.412 1138.8C478.636 1138.73 480.998 1134.38 483.833 1117.77C487.175 1098.18 490.87 1089.08 499.101 1080.15C505.488 1073.22 508.935 1074.25 511.704 1083.9C514.158 1092.47 519.499 1105.15 521.974 1108.3C523.31 1110 524.949 1110.83 526.946 1110.83C531.374 1110.83 532.954 1106.36 532.159 1096.05C531.688 1089.94 531.936 1086.96 533.23 1083.21C535.914 1075.44 536.47 1062.82 534.37 1057.32C533.411 1054.81 532.906 1051.76 533.25 1050.54C533.909 1048.21 550.706 1034.34 555.83 1031.9C563.209 1028.38 561.362 1012.66 551.693 996.692C547.186 989.247 545.603 987.238 538.522 979.973C526.631 967.773 513.274 960.588 501.284 959.944C500.068 959.878 497.408 961.748 494.683 964.584ZM736.74 988.207C734.633 992.847 734.228 1002.15 735.875 1008.08C736.732 1011.17 737.369 1011.83 739.483 1011.83C743.616 1011.83 749.391 1015.72 751.908 1020.2C753.724 1023.43 754.32 1026.29 754.642 1033.33C754.868 1038.28 755.528 1042.92 756.108 1043.64C757.481 1045.34 765.782 1050.21 766.349 1049.64C766.588 1049.4 767.444 1045.76 768.25 1041.55L769.715 1033.89L763.972 1028.11C757.193 1021.29 747.363 1006.7 744.063 998.558C742.775 995.382 741.458 990.555 741.136 987.833C740.466 982.182 739.436 982.27 736.74 988.207ZM890.033 1010.9L889.744 1018.47L899.533 1018.57C910.93 1018.69 920.162 1020.61 929.302 1024.75L935.822 1027.71V1024.72C935.822 1020.62 933.686 1016.85 928.932 1012.55C920.931 1005.32 913.026 1002.9 898.322 1003.18L890.322 1003.33L890.033 1010.9ZM875.16 1012.41C861.367 1022.93 832.673 1031.84 798.022 1036.35C791.257 1037.23 784.309 1037.81 782.582 1037.64L782.462 1037.63L782.317 1037.61C781.385 1037.52 780.739 1037.46 780.241 1037.7C779.115 1038.24 778.746 1040.35 777.542 1047.22L777.39 1048.08L776.731 1051.83H783.606C788.421 1051.83 796.75 1050.33 811.401 1046.81C832.111 1041.83 840.216 1040.07 852.822 1037.83C856.397 1037.2 861.177 1035.86 863.444 1034.87C868.799 1032.52 875.177 1026.71 877.286 1022.27C878.8 1019.08 881.007 1008.83 880.181 1008.83C879.993 1008.83 877.734 1010.44 875.16 1012.41ZM723.084 1024.99C690.813 1034.91 659.467 1063.75 640.962 1100.56C631.486 1119.4 631.494 1136.19 640.98 1142.95C643.796 1144.95 652.822 1148.26 652.822 1147.29C652.822 1147.04 651.199 1144.58 649.214 1141.82C646.233 1137.67 645.715 1136.23 646.228 1133.57C647.252 1128.24 656.498 1110.01 663.589 1099.33C671.672 1087.16 690.427 1067.99 703.135 1058.91C713.45 1051.53 728.232 1043.78 737.95 1040.65L744.822 1038.44V1034.2C744.822 1029.13 743.356 1024.81 741.027 1023.03C738.961 1021.45 732.187 1022.19 723.084 1024.99ZM888.652 1028.83C886.723 1028.83 884.516 1030.37 880.696 1034.37C874.231 1041.15 866.09 1045.33 855.322 1047.4C850.922 1048.25 834.947 1051.83 819.822 1055.36C787.695 1062.85 783.681 1063.43 774.067 1061.94C763.986 1060.38 756.796 1057.44 751.404 1052.7C746.14 1048.06 746.129 1048.06 733.891 1052.95C705.889 1064.13 677.598 1091.26 662.581 1121.33C662.38 1121.74 662.185 1122.13 661.996 1122.5L661.588 1123.32C658.633 1129.2 657.283 1131.89 657.584 1134.38C657.836 1136.47 659.254 1138.42 661.864 1142.01C662.192 1142.47 662.54 1142.94 662.906 1143.45C670.375 1153.8 699.166 1189.85 709.746 1202.11C726.504 1221.53 729.032 1224.61 733.854 1231.53C736.613 1235.49 741.222 1243.13 744.096 1248.5L749.322 1258.27L757.822 1262.55C768.676 1268.03 784.869 1273.22 797.947 1275.4C818.296 1278.81 842.455 1275.85 861.581 1267.61L869.322 1264.28L869.031 1249.31C868.678 1231.12 866.942 1216.86 862.291 1193.96C859.318 1179.31 857.283 1172.51 852.09 1159.83C851.752 1159.01 853.199 1160.36 855.307 1162.83C859.556 1167.82 867.822 1180.19 867.822 1181.56C867.822 1184.1 870.152 1184.58 875.931 1183.23C883.897 1181.37 890.122 1178.08 898.95 1171.06C919.534 1154.69 933.911 1132.31 939.561 1107.83C940.877 1102.13 941.279 1096.01 941.236 1082.33C941.182 1065.32 941.004 1063.68 937.97 1052.4C936.206 1045.84 934.24 1039.84 933.602 1039.07C932.215 1037.4 922.797 1032.59 917.649 1030.92C912.125 1029.13 901.949 1027.93 896.322 1028.4C893.572 1028.63 890.121 1028.82 888.652 1028.83ZM580.322 1033.38C570.895 1036.04 559.526 1040.89 556.684 1043.46C555.127 1044.87 555.149 1045.45 557.013 1052.03C570.502 1099.7 597.175 1159.81 620.288 1194.64C632.196 1212.58 637.559 1215.41 659.322 1215.22C672.809 1215.11 685.338 1212.67 695.491 1208.18L699.66 1206.33L690.717 1195.33C685.798 1189.28 681.302 1184.17 680.725 1183.98C677.987 1183.04 658.702 1191.66 650.572 1197.45C647.96 1199.31 645.822 1200.44 645.822 1199.96C645.822 1198.32 660.781 1184.88 667.804 1180.21L674.822 1175.54L671.516 1171.44C669.697 1169.18 666.717 1165.45 664.894 1163.14C661.906 1159.36 661.023 1158.88 655.95 1158.26C644.697 1156.89 637.954 1154.1 632.327 1148.47C629.078 1145.22 626.575 1141.61 625.634 1138.81C624.218 1134.59 623.937 1134.35 620.727 1134.58C608.97 1135.42 607.226 1135.26 604.031 1132.98C599.578 1129.81 588.777 1113.06 581.81 1098.53C570.298 1074.51 566.828 1059.41 571.383 1053.16C574.475 1048.92 586.21 1041.34 596.072 1037.21C603.295 1034.19 604.822 1033.17 604.822 1031.36C604.822 1030.15 604.592 1028.94 604.312 1028.66C603.569 1027.91 590.726 1030.44 580.322 1033.38ZM599.05 1046.88C590.405 1050.8 580.05 1057.54 579.365 1059.7C577.02 1067.09 600.202 1116.48 609.417 1123.73C611.666 1125.5 612.172 1125.52 617.737 1124.12L623.663 1122.63L624.354 1117.98C624.734 1115.42 625.798 1111.08 626.717 1108.33L628.388 1103.33L624.09 1093.53C618.975 1081.86 612.986 1064.69 609.813 1052.58C608.551 1047.77 607.127 1043.83 606.649 1043.83C606.17 1043.83 602.75 1045.21 599.05 1046.88ZM951.608 1077.71C952.569 1107.65 945.081 1132.91 928.756 1154.8C923.161 1162.3 907.683 1177.91 902.433 1181.35L899.678 1183.16L911 1194.59L922.322 1206.02L932.822 1205.43C954.479 1204.19 979.641 1195.95 1003.32 1182.34C1011.79 1177.47 1024.22 1169.37 1027.14 1166.82C1028.28 1165.81 1021.62 1148.44 1015.07 1135.33C1002.3 1109.8 983.74 1087.48 960.822 1070.12C955.597 1066.16 951.279 1062.9 951.226 1062.88C951.174 1062.85 951.346 1069.53 951.608 1077.71ZM998.322 1196.58C977.333 1207.12 958.809 1212.99 940.001 1215.05C931.363 1216 929.76 1216.44 930.175 1217.76C930.448 1218.62 931.849 1222.15 933.289 1225.59C939.737 1241 942.354 1259.55 941.297 1282.35C940.727 1294.67 940.874 1298.02 942.117 1301C942.958 1303.01 954.006 1315.92 966.918 1329.98C997.021 1362.76 1002.41 1368.08 1008.67 1371.26C1025.17 1379.62 1042.17 1378.16 1049.37 1367.77C1057.4 1356.17 1052.35 1327.69 1037.11 1298.57C1033.67 1292.01 1033.6 1291.65 1034.64 1286.07C1039.94 1257.58 1039.36 1216.75 1033.23 1187.34C1032.43 1183.49 1031.53 1179.57 1031.25 1178.64C1030.81 1177.23 1028.88 1178.15 1020.02 1183.99C1014.14 1187.88 1004.37 1193.54 998.322 1196.58ZM755.23 1284.99C757.032 1299.22 759.822 1331.78 759.822 1338.57C759.822 1347.54 773.364 1378.67 784.337 1394.93C790.832 1404.55 801.24 1415.58 807.845 1419.84C812.818 1423.04 833.081 1430.14 843.618 1432.38C859.21 1435.68 869.169 1433.27 873.635 1425.1C877.228 1418.54 878.508 1405.54 876.956 1391.39C875.089 1374.37 871.15 1362.26 863.699 1350.64L860.691 1345.95L862.741 1333.64C865.419 1317.56 867.58 1299.6 868.444 1286.24C869.111 1275.93 869.062 1275.53 867.23 1276.28C836.619 1288.87 804.439 1290.09 773.631 1279.83C767.2 1277.69 760.225 1275.06 758.131 1273.98C756.036 1272.9 754.175 1272.16 753.995 1272.34C753.815 1272.51 754.371 1278.21 755.23 1284.99Z" fill="url(#paint26_linear_939_953)"/>
<path fill-rule="evenodd" clip-rule="evenodd" d="M905.029 824.834L918.082 801L922.311 791.522C926.474 782.19 929.85 772.527 932.403 762.633C935.173 751.9 936.964 740.937 937.754 729.881L937.839 728.683C938.656 717.25 938.471 705.767 937.286 694.365L935.066 673L930.964 656.503C928.37 646.074 924.939 635.871 920.706 625.993L915.566 614L901.566 588.5L898.614 583.971C891.041 572.355 882.281 561.558 872.475 551.755L865.566 544.848L861.153 541.823C861.166 541.834 861.178 541.846 861.19 541.858C860.466 541.148 857.858 539.408 854.251 537.003C852.065 535.544 849.511 533.841 846.788 531.974L855.566 523.169C888.228 545.774 913.48 575.259 930.794 611.019C964.66 680.963 959.226 762.546 918.082 827.997L905.071 824.844C905.067 824.842 905.063 824.84 905.059 824.839C905.05 824.836 905.04 824.834 905.029 824.834Z" fill="url(#paint27_linear_939_953)"/>
<path fill-rule="evenodd" clip-rule="evenodd" d="M798.789 978.459C795.883 976.014 794.521 975.455 789.322 974.572C784.004 973.669 777.422 976.81 773.43 982.157C770.598 985.95 769.993 996.303 772.332 1000.93C776.239 1008.65 781.572 1012.12 789.528 1012.12C806.092 1012.12 812.239 989.777 798.789 978.459ZM781.878 984.778C779.248 987.408 778.287 993.128 779.843 996.885C782.698 1003.78 790.096 1005.92 795.082 1001.29C799.621 997.085 798.524 988.573 792.868 984.116C790.409 982.178 784.098 982.558 781.878 984.778Z" fill="url(#paint28_linear_939_953)"/>
<path fill-rule="evenodd" clip-rule="evenodd" d="M568.572 727.775C568.985 727.987 569.33 722.161 569.34 714.827C569.45 634.727 624.204 557.138 700.818 528.512C727.137 518.678 746.185 515.01 770.973 515C801.642 514.988 829.966 523.088 857.322 539.693C861.253 541.407 862.413 541.727 861.69 541.017C861.678 541.006 861.666 540.994 861.653 540.983L866.066 544.008L872.975 550.915C882.781 560.718 891.541 571.515 899.114 583.131L902.066 587.66L916.066 613.16L921.206 625.153C925.439 635.031 928.87 645.234 931.464 655.663L935.566 672.16L937.786 693.525C938.971 704.927 939.156 716.41 938.339 727.843L938.254 729.041C937.464 740.097 935.673 751.06 932.903 761.793C930.35 771.687 926.974 781.35 922.811 790.682L918.582 800.16L905.529 823.994C905.094 823.994 902.732 826.073 900.28 828.615C893.504 835.638 879.264 847.313 869.536 853.82C842.919 871.625 815.847 882.672 784.313 888.598C771.028 891.095 738.502 891.618 724.322 889.563C702.414 886.388 685.524 881.129 666.32 871.502C649.92 863.28 638.408 855.004 624.141 841.179L615.46 832.767L616.659 816.174C616.971 811.85 616.72 807.503 615.911 803.244L613.351 789.763C612.332 784.397 610.441 779.235 607.753 774.481L598.583 758.264C595.923 753.559 592.518 749.317 588.499 745.702L568.572 727.775ZM721.322 553.734C733.228 549.331 749.902 545.411 762.533 544.045C773.42 542.867 792.24 542.848 799.822 544.008C833.827 549.211 862.17 567.746 887.724 601.494C897.879 614.905 905.353 628.113 909.509 639.994C918.348 665.259 917.791 688.906 907.736 715.22C904.699 723.168 903.322 724.502 903.322 719.495C903.322 713.761 899.441 696.52 895.331 683.994C881.269 641.136 863.508 614.488 834.57 592.826C814.491 577.795 790.97 571.006 758.95 570.998C740.447 570.993 727.495 572.649 707.528 577.57C694.763 580.717 671.556 588.753 664.1 592.609C659.34 595.07 660.795 592.093 667.572 585.503C679.326 574.074 701.066 561.224 721.322 553.734ZM623.112 737.056C610.882 720.042 616.177 693.747 633.628 684.836C640.136 681.513 649.566 681.282 655.822 684.292C662.557 687.533 668.448 693.499 671.937 700.612C674.573 705.987 674.818 707.4 674.779 716.994C674.745 725.491 674.334 728.372 672.628 732.097C666.483 745.509 652.706 752.62 639.689 749.098C634.575 747.714 626.619 741.935 623.112 737.056ZM637.322 784.994C637.322 781.124 641.301 774.056 644.375 772.467C656.691 766.098 667.216 783.648 657.795 794.843C652.533 801.098 643.158 799.417 639.342 791.535C638.231 789.24 637.322 786.297 637.322 784.994Z" fill="url(#paint29_linear_939_953)" fill-opacity="0.1"/>
<path d="M940.381 1215.23C959.189 1213.17 977.713 1207.3 998.702 1196.76C1004.75 1193.72 1014.52 1188.06 1020.4 1184.18C1029.26 1178.33 1031.19 1177.41 1031.63 1178.82C1031.91 1179.75 1032.81 1183.67 1033.61 1187.53C1039.74 1216.94 1040.32 1257.76 1035.02 1286.26C1033.98 1291.83 1034.05 1292.2 1037.49 1298.76C1052.73 1327.87 1057.78 1356.36 1049.75 1367.95C1042.55 1378.35 1025.55 1379.8 1009.05 1371.44C1002.79 1368.27 997.401 1362.94 967.298 1330.16C954.386 1316.1 943.338 1303.19 942.497 1301.18C941.254 1298.21 941.107 1294.85 941.677 1282.54C942.734 1259.73 940.117 1241.18 933.669 1225.78C932.229 1222.33 930.828 1218.81 930.555 1217.94C930.14 1216.62 931.743 1216.18 940.381 1215.23Z" fill="url(#paint30_linear_939_953)" fill-opacity="0.3"/>
<path d="M760.202 1338.76C760.202 1331.97 757.412 1299.41 755.61 1285.18C754.751 1278.39 754.195 1272.7 754.375 1272.52C754.555 1272.35 756.416 1273.09 758.511 1274.17C760.605 1275.24 767.58 1277.88 774.011 1280.02C804.819 1290.27 836.999 1289.05 867.61 1276.47C869.442 1275.71 869.491 1276.11 868.824 1286.42C867.96 1299.79 865.799 1317.75 863.121 1333.83L861.071 1346.14L864.079 1350.83C871.53 1362.45 875.469 1374.55 877.336 1391.57C878.888 1405.72 877.608 1418.72 874.015 1425.29C869.549 1433.45 859.59 1435.87 843.998 1432.56C833.461 1430.33 813.198 1423.23 808.225 1420.02C801.62 1415.77 791.212 1404.74 784.717 1395.11C773.744 1378.86 760.202 1347.72 760.202 1338.76Z" fill="url(#paint31_linear_939_953)" fill-opacity="0.3"/>
<path d="M1089.36 823.781C1087.48 824.531 1084.98 825.737 1083.68 826.373C1083.25 826.585 1082.95 826.733 1082.86 826.781C1082.61 826.906 1082.08 827.156 1081.41 827.468L1081.41 827.468L1081.41 827.468C1079.42 828.406 1076.23 829.906 1075.86 830.281L1070.89 833.636L1059.68 844.338C1049.18 854.37 1041.53 860.747 1040.02 860.747C1039.65 860.747 1038.5 860.119 1037.45 859.351C1035.87 858.194 1035.51 856.549 1035.37 849.763C1035.16 839.811 1032.95 833.978 1029.06 833.156C1027.64 832.855 1025.44 832.19 1024.18 831.678C1019.86 829.926 1019.38 830.459 1018.14 838.434C1017.48 842.662 1015.87 848.399 1014.57 851.184C1012.12 856.398 1010.53 863.15 1009.49 872.747C1008.42 882.639 1002.98 897.732 1002.98 890.806C1002.98 887.673 1001.46 887.56 995.392 890.241C988.673 893.213 979.4 895.747 975.247 895.747C973.631 895.747 972.057 895.999 971.749 896.307C971.441 896.614 973.366 901.002 976.027 906.057C981.526 916.504 987.371 933.143 988.915 942.747C990.402 951.999 990.19 967.066 988.458 975.247C987.642 979.096 986.975 982.349 986.975 982.475C986.975 983.324 1003.31 976.587 1012.1 972.114C1026.64 964.714 1040.72 954.075 1050.98 942.758C1055.65 937.596 1068.98 923.895 1080.61 912.31C1102.71 890.275 1109.9 881.193 1112.01 872.603C1113.37 867.103 1112.24 864.103 1108.46 863.155C1104.49 862.158 1096.16 864.721 1091.29 868.438C1086.5 872.099 1086.5 871.579 1091.29 865.416C1094.96 860.703 1100.44 857.15 1106.58 855.508L1111.23 854.263L1110.63 846.755C1109.58 833.924 1106.73 827.522 1100.05 823.021C1097.97 820.89 1092.89 822.596 1089.81 823.628L1089.81 823.628C1089.66 823.681 1089.5 823.732 1089.36 823.781Z" fill="url(#paint32_linear_939_953)" fill-opacity="0.3"/>
<path d="M450.978 1037.39C459.295 1012.86 477.548 982.471 494.677 964.643C497.402 961.807 500.062 959.937 501.278 960.003C513.268 960.647 526.625 967.832 538.516 980.032C545.597 987.297 547.18 989.306 551.687 996.751C561.356 1012.72 563.203 1028.44 555.824 1031.96C550.7 1034.4 533.903 1048.27 533.244 1050.6C532.9 1051.82 533.405 1054.87 534.364 1057.38C536.464 1062.88 535.908 1075.5 533.224 1083.27C531.93 1087.02 531.682 1090 532.153 1096.11C532.948 1106.41 531.368 1110.89 526.94 1110.89C524.943 1110.89 523.304 1110.06 521.968 1108.36C519.493 1105.21 514.152 1092.53 511.698 1083.96C508.929 1074.3 505.482 1073.28 499.095 1080.21C490.864 1089.14 487.169 1098.24 483.827 1117.83C480.992 1134.44 478.63 1138.79 472.406 1138.86C470.252 1138.88 468.565 1137.85 465.906 1134.88C463.932 1132.68 459.156 1127.58 455.293 1123.55C443.304 1111.04 438.816 1100.1 438.816 1083.37C438.816 1072.15 440.854 1062.36 445.27 1052.39C446.731 1049.09 449.3 1042.34 450.978 1037.39Z" fill="url(#paint33_linear_939_953)" fill-opacity="0.3"/>
<path d="M634.46 684.686C617.009 693.597 611.714 719.892 623.944 736.906C627.451 741.785 635.407 747.564 640.521 748.948C653.538 752.47 667.315 745.359 673.46 731.947C675.166 728.222 675.577 725.341 675.611 716.844C675.65 707.25 675.405 705.837 672.769 700.462C669.28 693.349 663.389 687.383 656.654 684.142C650.398 681.132 640.968 681.363 634.46 684.686Z" fill="url(#paint34_linear_939_953)"/>
<path d="M645.207 772.317C642.133 773.906 638.154 780.974 638.154 784.844C638.154 786.147 639.063 789.09 640.174 791.385C643.99 799.267 653.365 800.948 658.627 794.693C668.048 783.498 657.523 765.948 645.207 772.317Z" fill="url(#paint35_linear_939_953)"/>
<path d="M763.365 543.895C750.734 545.261 734.06 549.181 722.154 553.584C701.898 561.074 680.158 573.924 668.404 585.353C661.627 591.943 660.172 594.92 664.932 592.459C672.388 588.603 695.595 580.567 708.36 577.42C728.327 572.499 741.279 570.843 759.782 570.848C791.802 570.856 815.323 577.645 835.402 592.676C864.34 614.338 882.101 640.986 896.163 683.844C900.273 696.37 904.154 713.611 904.154 719.345C904.154 724.352 905.531 723.018 908.568 715.07C918.623 688.756 919.18 665.109 910.341 639.844C906.185 627.963 898.711 614.755 888.556 601.344C863.002 567.596 834.659 549.061 800.654 543.858C793.072 542.698 774.252 542.717 763.365 543.895Z" fill="url(#paint36_linear_939_953)"/>
<path d="M723.078 1024.96C690.807 1034.87 659.461 1063.72 640.956 1100.52C631.48 1119.37 631.488 1136.16 640.974 1142.91C643.79 1144.92 652.816 1148.23 652.816 1147.25C652.816 1147.01 651.193 1144.55 649.208 1141.78C646.227 1137.63 645.709 1136.2 646.222 1133.53C647.246 1128.21 656.492 1109.98 663.583 1099.3C671.666 1087.13 690.421 1067.96 703.129 1058.87C713.444 1051.5 728.226 1043.75 737.944 1040.62L744.816 1038.41V1034.17C744.816 1029.09 743.35 1024.78 741.021 1023C738.955 1021.42 732.181 1022.16 723.078 1024.96Z" fill="url(#paint37_linear_939_953)" fill-opacity="0.3"/>
<path d="M781.872 984.745C779.242 987.375 778.281 993.095 779.837 996.852C782.692 1003.74 790.09 1005.88 795.076 1001.26C799.615 997.052 798.518 988.54 792.862 984.083C790.403 982.145 784.092 982.525 781.872 984.745Z" fill="url(#paint38_linear_939_953)" fill-opacity="0.3"/>
<path fill-rule="evenodd" clip-rule="evenodd" d="M805.316 958.939C792.111 961.548 776.709 966.041 763.967 971.001C754.472 974.698 753.494 975.327 752.111 978.636C748.956 986.189 753.402 998.109 765.245 1013.84C775.018 1026.83 779.329 1028.5 797.015 1026.19C816.671 1023.61 847.283 1016.55 850.001 1013.95C850.378 1013.59 846.665 1007.68 841.751 1000.81C831.769 986.845 830.764 983.561 835.366 979.94C836.769 978.837 838.409 977.77 839.011 977.569C839.613 977.369 836.328 972.377 831.711 966.477L823.316 955.749L819.316 956.356C817.116 956.69 810.816 957.853 805.316 958.939ZM798.783 978.426C795.877 975.981 794.515 975.422 789.316 974.539C783.998 973.636 777.416 976.777 773.424 982.124C770.592 985.917 769.987 996.27 772.326 1000.89C776.233 1008.61 781.566 1012.09 789.522 1012.09C806.086 1012.09 812.233 989.744 798.783 978.426Z" fill="url(#paint39_linear_939_953)" fill-opacity="0.3"/>
<path d="M841.346 965.437C850.844 977.588 851.065 979.634 843.467 985.091C841.739 986.332 842.189 987.213 850.373 998.595L859.127 1010.77L862.722 1008.63C872.775 1002.63 876.806 997.855 876.812 991.941C876.818 986.409 871.101 977.019 862.353 968.193C857.932 963.734 852.741 959.247 850.816 958.224C847.699 956.567 836.463 954.72 834.596 955.559C834.2 955.736 837.238 960.182 841.346 965.437Z" fill="url(#paint40_linear_939_953)" fill-opacity="0.3"/>
<path d="M890.027 1010.87L889.738 1018.44L899.527 1018.54C910.924 1018.66 920.156 1020.57 929.296 1024.72L935.816 1027.68V1024.69C935.816 1020.59 933.68 1016.81 928.926 1012.52C920.925 1005.29 913.02 1002.87 898.316 1003.15L890.316 1003.3L890.027 1010.87Z" fill="url(#paint41_linear_939_953)" fill-opacity="0.3"/>
<path d="M875.154 1012.37C861.361 1022.9 832.667 1031.81 798.016 1036.31C791.251 1037.19 784.303 1037.78 782.576 1037.61L782.456 1037.6L782.311 1037.58C781.379 1037.49 780.733 1037.42 780.235 1037.66C779.109 1038.21 778.74 1040.32 777.536 1047.18L777.384 1048.05L776.725 1051.8H783.6C788.415 1051.8 796.744 1050.29 811.395 1046.77C832.105 1041.79 840.21 1040.04 852.816 1037.8C856.391 1037.16 861.171 1035.83 863.438 1034.83C868.793 1032.49 875.171 1026.68 877.28 1022.23C878.794 1019.05 881.001 1008.8 880.175 1008.8C879.987 1008.8 877.728 1010.41 875.154 1012.37Z" fill="url(#paint42_linear_939_953)" fill-opacity="0.3"/>
<path d="M736.734 988.174C734.627 992.814 734.222 1002.12 735.869 1008.05C736.726 1011.14 737.363 1011.8 739.477 1011.8C743.61 1011.8 749.385 1015.69 751.902 1020.17C753.718 1023.4 754.314 1026.26 754.636 1033.3C754.862 1038.25 755.522 1042.89 756.102 1043.61C757.475 1045.31 765.776 1050.17 766.343 1049.61C766.582 1049.37 767.438 1045.72 768.244 1041.51L769.709 1033.85L763.966 1028.08C757.187 1021.26 747.357 1006.67 744.057 998.525C742.769 995.349 741.452 990.522 741.13 987.8C740.46 982.149 739.43 982.237 736.734 988.174Z" fill="url(#paint43_linear_939_953)" fill-opacity="0.3"/>
<ellipse cx="215.502" cy="2025.61" rx="332.5" ry="333" fill="url(#paint44_linear_939_953)"/>
<g filter="url(#filter0_f_939_953)">
<path d="M10.3435 1748.77C-202.773 1710.82 -361.675 1723.19 -382.943 1789.54C-412.798 1882.69 -160.142 2046.94 181.381 2156.4C522.903 2265.87 823.964 2279.11 853.819 2185.96C876.552 2115.04 735.482 2002.89 516.103 1905.09" stroke="#02E5FF" stroke-opacity="0.7" stroke-width="5"/>
</g>
<ellipse cx="1679.25" cy="267.302" rx="182.751" ry="182.302" fill="url(#paint45_linear_939_953)"/>
<mask id="mask0_939_953" style="mask-type:alpha" maskUnits="userSpaceOnUse" x="1495" y="85" width="366" height="365">
<ellipse cx="1677.75" cy="267.302" rx="182.751" ry="182.302" fill="url(#paint46_linear_939_953)"/>
</mask>
<g mask="url(#mask0_939_953)">
<g filter="url(#filter1_f_939_953)">
<ellipse cx="1734.43" cy="127.8" rx="220.709" ry="220.859" fill="url(#paint47_radial_939_953)" fill-opacity="0.7" style="mix-blend-mode:color-dodge"/>
<ellipse cx="1734.43" cy="127.8" rx="220.709" ry="220.859" fill="url(#paint48_radial_939_953)" fill-opacity="0.7" style="mix-blend-mode:color-dodge"/>
</g>
</g>
<ellipse cx="1568.93" cy="1234" rx="87.2144" ry="87" fill="url(#paint49_linear_939_953)"/>
<mask id="mask1_939_953" style="mask-type:alpha" maskUnits="userSpaceOnUse" x="1481" y="1147" width="175" height="174">
<ellipse cx="1568.21" cy="1234" rx="87.2144" ry="87" fill="url(#paint50_linear_939_953)"/>
</mask>
<g mask="url(#mask1_939_953)">
<g filter="url(#filter2_f_939_953)">
<ellipse cx="1595.26" cy="1167.43" rx="105.329" ry="105.4" fill="url(#paint51_radial_939_953)" fill-opacity="0.7" style="mix-blend-mode:color-dodge"/>
<ellipse cx="1595.26" cy="1167.43" rx="105.329" ry="105.4" fill="url(#paint52_radial_939_953)" fill-opacity="0.7" style="mix-blend-mode:color-dodge"/>
</g>
</g>
<ellipse cx="267.104" cy="56.5" rx="56.6392" ry="56.5" fill="url(#paint53_linear_939_953)"/>
<mask id="mask2_939_953" style="mask-type:alpha" maskUnits="userSpaceOnUse" x="210" y="0" width="114" height="113">
<ellipse cx="266.639" cy="56.5" rx="56.6392" ry="56.5" fill="url(#paint54_linear_939_953)"/>
</mask>
<g mask="url(#mask2_939_953)">
<g filter="url(#filter3_f_939_953)">
<ellipse cx="284.204" cy="13.2646" rx="68.4033" ry="68.4497" fill="url(#paint55_radial_939_953)" fill-opacity="0.7" style="mix-blend-mode:color-dodge"/>
<ellipse cx="284.204" cy="13.2646" rx="68.4033" ry="68.4497" fill="url(#paint56_radial_939_953)" fill-opacity="0.7" style="mix-blend-mode:color-dodge"/>
</g>
</g>
<ellipse cx="2406" cy="1599.5" rx="328.307" ry="327.5" fill="url(#paint57_linear_939_953)"/>
<mask id="mask3_939_953" style="mask-type:alpha" maskUnits="userSpaceOnUse" x="2075" y="1272" width="657" height="655">
<ellipse cx="2403.31" cy="1599.5" rx="328.307" ry="327.5" fill="url(#paint58_linear_939_953)"/>
</mask>
<g mask="url(#mask3_939_953)">
<g filter="url(#filter4_f_939_953)">
<ellipse cx="2505.13" cy="1348.89" rx="396.497" ry="396.766" fill="url(#paint59_radial_939_953)" fill-opacity="0.7" style="mix-blend-mode:color-dodge"/>
<ellipse cx="2505.13" cy="1348.89" rx="396.497" ry="396.766" fill="url(#paint60_radial_939_953)" fill-opacity="0.7" style="mix-blend-mode:color-dodge"/>
</g>
</g>
<defs>
<filter id="filter0_f_939_953" x="-402.842" y="1710" width="1276.56" height="555.509" filterUnits="userSpaceOnUse" color-interpolation-filters="sRGB">
<feFlood flood-opacity="0" result="BackgroundImageFix"/>
<feBlend mode="normal" in="SourceGraphic" in2="BackgroundImageFix" result="shape"/>
<feGaussianBlur stdDeviation="7.5" result="effect1_foregroundBlur_939_953"/>
</filter>
<filter id="filter1_f_939_953" x="513.717" y="-1093.06" width="2441.42" height="2441.72" filterUnits="userSpaceOnUse" color-interpolation-filters="sRGB">
<feFlood flood-opacity="0" result="BackgroundImageFix"/>
<feBlend mode="normal" in="SourceGraphic" in2="BackgroundImageFix" result="shape"/>
<feGaussianBlur stdDeviation="500" result="effect1_foregroundBlur_939_953"/>
</filter>
<filter id="filter2_f_939_953" x="489.934" y="62.0249" width="2210.66" height="2210.8" filterUnits="userSpaceOnUse" color-interpolation-filters="sRGB">
<feFlood flood-opacity="0" result="BackgroundImageFix"/>
<feBlend mode="normal" in="SourceGraphic" in2="BackgroundImageFix" result="shape"/>
<feGaussianBlur stdDeviation="500" result="effect1_foregroundBlur_939_953"/>
</filter>
<filter id="filter3_f_939_953" x="-784.199" y="-1055.19" width="2136.81" height="2136.9" filterUnits="userSpaceOnUse" color-interpolation-filters="sRGB">
<feFlood flood-opacity="0" result="BackgroundImageFix"/>
<feBlend mode="normal" in="SourceGraphic" in2="BackgroundImageFix" result="shape"/>
<feGaussianBlur stdDeviation="500" result="effect1_foregroundBlur_939_953"/>
</filter>
<filter id="filter4_f_939_953" x="1108.63" y="-47.8774" width="2792.99" height="2793.53" filterUnits="userSpaceOnUse" color-interpolation-filters="sRGB">
<feFlood flood-opacity="0" result="BackgroundImageFix"/>
<feBlend mode="normal" in="SourceGraphic" in2="BackgroundImageFix" result="shape"/>
<feGaussianBlur stdDeviation="500" result="effect1_foregroundBlur_939_953"/>
</filter>
<linearGradient id="paint0_linear_939_953" x1="638.598" y1="483" x2="1160.31" y2="1228.83" gradientUnits="userSpaceOnUse">
<stop stop-color="#02E5FF"/>
<stop offset="1" stop-color="#3393DA"/>
</linearGradient>
<linearGradient id="paint1_linear_939_953" x1="638.598" y1="483" x2="1160.31" y2="1228.83" gradientUnits="userSpaceOnUse">
<stop stop-color="#02E5FF"/>
<stop offset="1" stop-color="#3393DA"/>
</linearGradient>
<linearGradient id="paint2_linear_939_953" x1="638.598" y1="483" x2="1160.31" y2="1228.83" gradientUnits="userSpaceOnUse">
<stop stop-color="#02E5FF"/>
<stop offset="1" stop-color="#3393DA"/>
</linearGradient>
<linearGradient id="paint3_linear_939_953" x1="638.598" y1="483" x2="1160.31" y2="1228.83" gradientUnits="userSpaceOnUse">
<stop stop-color="#02E5FF"/>
<stop offset="1" stop-color="#3393DA"/>
</linearGradient>
<linearGradient id="paint4_linear_939_953" x1="638.598" y1="483" x2="1160.31" y2="1228.83" gradientUnits="userSpaceOnUse">
<stop stop-color="#02E5FF"/>
<stop offset="1" stop-color="#3393DA"/>
</linearGradient>
<linearGradient id="paint5_linear_939_953" x1="638.598" y1="483" x2="1160.31" y2="1228.83" gradientUnits="userSpaceOnUse">
<stop stop-color="#02E5FF"/>
<stop offset="1" stop-color="#3393DA"/>
</linearGradient>
<linearGradient id="paint6_linear_939_953" x1="638.598" y1="483" x2="1160.31" y2="1228.83" gradientUnits="userSpaceOnUse">
<stop stop-color="#02E5FF"/>
<stop offset="1" stop-color="#3393DA"/>
</linearGradient>
<linearGradient id="paint7_linear_939_953" x1="638.598" y1="483" x2="1160.31" y2="1228.83" gradientUnits="userSpaceOnUse">
<stop stop-color="#02E5FF"/>
<stop offset="1" stop-color="#3393DA"/>
</linearGradient>
<linearGradient id="paint8_linear_939_953" x1="638.598" y1="483" x2="1160.31" y2="1228.83" gradientUnits="userSpaceOnUse">
<stop stop-color="#02E5FF"/>
<stop offset="1" stop-color="#3393DA"/>
</linearGradient>
<linearGradient id="paint9_linear_939_953" x1="638.598" y1="483" x2="1160.31" y2="1228.83" gradientUnits="userSpaceOnUse">
<stop stop-color="#02E5FF"/>
<stop offset="1" stop-color="#3393DA"/>
</linearGradient>
<linearGradient id="paint10_linear_939_953" x1="638.598" y1="483" x2="1160.31" y2="1228.83" gradientUnits="userSpaceOnUse">
<stop stop-color="#02E5FF"/>
<stop offset="1" stop-color="#3393DA"/>
</linearGradient>
<linearGradient id="paint11_linear_939_953" x1="638.598" y1="483" x2="1160.31" y2="1228.83" gradientUnits="userSpaceOnUse">
<stop stop-color="#02E5FF"/>
<stop offset="1" stop-color="#3393DA"/>
</linearGradient>
<linearGradient id="paint12_linear_939_953" x1="638.598" y1="483" x2="1160.31" y2="1228.83" gradientUnits="userSpaceOnUse">
<stop stop-color="#02E5FF"/>
<stop offset="1" stop-color="#3393DA"/>
</linearGradient>
<linearGradient id="paint13_linear_939_953" x1="638.598" y1="483" x2="1160.31" y2="1228.83" gradientUnits="userSpaceOnUse">
<stop stop-color="#02E5FF"/>
<stop offset="1" stop-color="#3393DA"/>
</linearGradient>
<linearGradient id="paint14_linear_939_953" x1="638.598" y1="483" x2="1160.31" y2="1228.83" gradientUnits="userSpaceOnUse">
<stop stop-color="#02E5FF"/>
<stop offset="1" stop-color="#3393DA"/>
</linearGradient>
<linearGradient id="paint15_linear_939_953" x1="638.598" y1="483" x2="1160.31" y2="1228.83" gradientUnits="userSpaceOnUse">
<stop stop-color="#02E5FF"/>
<stop offset="1" stop-color="#3393DA"/>
</linearGradient>
<linearGradient id="paint16_linear_939_953" x1="638.598" y1="483" x2="1160.31" y2="1228.83" gradientUnits="userSpaceOnUse">
<stop stop-color="#02E5FF"/>
<stop offset="1" stop-color="#3393DA"/>
</linearGradient>
<linearGradient id="paint17_linear_939_953" x1="638.598" y1="483" x2="1160.31" y2="1228.83" gradientUnits="userSpaceOnUse">
<stop stop-color="#02E5FF"/>
<stop offset="1" stop-color="#3393DA"/>
</linearGradient>
<linearGradient id="paint18_linear_939_953" x1="638.598" y1="483" x2="1160.31" y2="1228.83" gradientUnits="userSpaceOnUse">
<stop stop-color="#02E5FF"/>
<stop offset="1" stop-color="#3393DA"/>
</linearGradient>
<linearGradient id="paint19_linear_939_953" x1="638.598" y1="483" x2="1160.31" y2="1228.83" gradientUnits="userSpaceOnUse">
<stop stop-color="#02E5FF"/>
<stop offset="1" stop-color="#3393DA"/>
</linearGradient>
<linearGradient id="paint20_linear_939_953" x1="638.598" y1="483" x2="1160.31" y2="1228.83" gradientUnits="userSpaceOnUse">
<stop stop-color="#02E5FF"/>
<stop offset="1" stop-color="#3393DA"/>
</linearGradient>
<linearGradient id="paint21_linear_939_953" x1="638.598" y1="483" x2="1160.31" y2="1228.83" gradientUnits="userSpaceOnUse">
<stop stop-color="#02E5FF"/>
<stop offset="1" stop-color="#3393DA"/>
</linearGradient>
<linearGradient id="paint22_linear_939_953" x1="638.598" y1="483" x2="1160.31" y2="1228.83" gradientUnits="userSpaceOnUse">
<stop stop-color="#02E5FF"/>
<stop offset="1" stop-color="#3393DA"/>
</linearGradient>
<linearGradient id="paint23_linear_939_953" x1="638.598" y1="483" x2="1160.31" y2="1228.83" gradientUnits="userSpaceOnUse">
<stop stop-color="#02E5FF"/>
<stop offset="1" stop-color="#3393DA"/>
</linearGradient>
<linearGradient id="paint24_linear_939_953" x1="638.598" y1="483" x2="1160.31" y2="1228.83" gradientUnits="userSpaceOnUse">
<stop stop-color="#02E5FF"/>
<stop offset="1" stop-color="#3393DA"/>
</linearGradient>
<linearGradient id="paint25_linear_939_953" x1="638.598" y1="483" x2="1160.31" y2="1228.83" gradientUnits="userSpaceOnUse">
<stop stop-color="#02E5FF"/>
<stop offset="1" stop-color="#3393DA"/>
</linearGradient>
<linearGradient id="paint26_linear_939_953" x1="638.598" y1="483" x2="1160.31" y2="1228.83" gradientUnits="userSpaceOnUse">
<stop stop-color="#02E5FF"/>
<stop offset="1" stop-color="#3393DA"/>
</linearGradient>
<linearGradient id="paint27_linear_939_953" x1="638.598" y1="483" x2="1160.31" y2="1228.83" gradientUnits="userSpaceOnUse">
<stop stop-color="#02E5FF"/>
<stop offset="1" stop-color="#3393DA"/>
</linearGradient>
<linearGradient id="paint28_linear_939_953" x1="638.598" y1="483" x2="1160.31" y2="1228.83" gradientUnits="userSpaceOnUse">
<stop stop-color="#02E5FF"/>
<stop offset="1" stop-color="#3393DA"/>
</linearGradient>
<linearGradient id="paint29_linear_939_953" x1="680.686" y1="515" x2="856.864" y2="859.397" gradientUnits="userSpaceOnUse">
<stop stop-color="#02E5FF"/>
<stop offset="1" stop-color="#3393DA"/>
</linearGradient>
<linearGradient id="paint30_linear_939_953" x1="840.905" y1="1167" x2="958.614" y2="1435.59" gradientUnits="userSpaceOnUse">
<stop stop-color="#02E5FF"/>
<stop offset="1" stop-color="#3393DA"/>
</linearGradient>
<linearGradient id="paint31_linear_939_953" x1="840.905" y1="1167" x2="958.614" y2="1435.59" gradientUnits="userSpaceOnUse">
<stop stop-color="#02E5FF"/>
<stop offset="1" stop-color="#3393DA"/>
</linearGradient>
<linearGradient id="paint32_linear_939_953" x1="1014.28" y1="822" x2="1094.53" y2="961.426" gradientUnits="userSpaceOnUse">
<stop stop-color="#02E5FF"/>
<stop offset="1" stop-color="#3393DA"/>
</linearGradient>
<linearGradient id="paint33_linear_939_953" x1="479.487" y1="945.5" x2="584.313" y2="1116.11" gradientUnits="userSpaceOnUse">
<stop stop-color="#02E5FF"/>
<stop offset="1" stop-color="#3393DA"/>
</linearGradient>
<linearGradient id="paint34_linear_939_953" x1="707.733" y1="543" x2="815.127" y2="792.104" gradientUnits="userSpaceOnUse">
<stop stop-color="#02E5FF"/>
<stop offset="1" stop-color="#3393DA"/>
</linearGradient>
<linearGradient id="paint35_linear_939_953" x1="707.733" y1="543" x2="815.127" y2="792.104" gradientUnits="userSpaceOnUse">
<stop stop-color="#02E5FF"/>
<stop offset="1" stop-color="#3393DA"/>
</linearGradient>
<linearGradient id="paint36_linear_939_953" x1="707.733" y1="543" x2="815.127" y2="792.104" gradientUnits="userSpaceOnUse">
<stop stop-color="#02E5FF"/>
<stop offset="1" stop-color="#3393DA"/>
</linearGradient>
<linearGradient id="paint37_linear_939_953" x1="725.107" y1="955.35" x2="789.769" y2="1156.65" gradientUnits="userSpaceOnUse">
<stop stop-color="#02E5FF"/>
<stop offset="1" stop-color="#3393DA"/>
</linearGradient>
<linearGradient id="paint38_linear_939_953" x1="725.107" y1="955.35" x2="789.769" y2="1156.65" gradientUnits="userSpaceOnUse">
<stop stop-color="#02E5FF"/>
<stop offset="1" stop-color="#3393DA"/>
</linearGradient>
<linearGradient id="paint39_linear_939_953" x1="725.107" y1="955.35" x2="789.769" y2="1156.65" gradientUnits="userSpaceOnUse">
<stop stop-color="#02E5FF"/>
<stop offset="1" stop-color="#3393DA"/>
</linearGradient>
<linearGradient id="paint40_linear_939_953" x1="725.107" y1="955.35" x2="789.769" y2="1156.65" gradientUnits="userSpaceOnUse">
<stop stop-color="#02E5FF"/>
<stop offset="1" stop-color="#3393DA"/>
</linearGradient>
<linearGradient id="paint41_linear_939_953" x1="725.107" y1="955.35" x2="789.769" y2="1156.65" gradientUnits="userSpaceOnUse">
<stop stop-color="#02E5FF"/>
<stop offset="1" stop-color="#3393DA"/>
</linearGradient>
<linearGradient id="paint42_linear_939_953" x1="725.107" y1="955.35" x2="789.769" y2="1156.65" gradientUnits="userSpaceOnUse">
<stop stop-color="#02E5FF"/>
<stop offset="1" stop-color="#3393DA"/>
</linearGradient>
<linearGradient id="paint43_linear_939_953" x1="725.107" y1="955.35" x2="789.769" y2="1156.65" gradientUnits="userSpaceOnUse">
<stop stop-color="#02E5FF"/>
<stop offset="1" stop-color="#3393DA"/>
</linearGradient>
<linearGradient id="paint44_linear_939_953" x1="347.04" y1="1692.61" x2="36.94" y2="2305.79" gradientUnits="userSpaceOnUse">
<stop stop-color="#02E5FF"/>
<stop offset="1" stop-color="#3393DA" stop-opacity="0"/>
</linearGradient>
<linearGradient id="paint45_linear_939_953" x1="1751.54" y1="85" x2="1582.18" y2="421.225" gradientUnits="userSpaceOnUse">
<stop stop-color="#3393DA"/>
<stop offset="1" stop-color="#02E5FF" stop-opacity="0"/>
</linearGradient>
<linearGradient id="paint46_linear_939_953" x1="1750.05" y1="85" x2="1580.68" y2="421.225" gradientUnits="userSpaceOnUse">
<stop stop-color="#3393DA"/>
<stop offset="1" stop-color="#02E5FF" stop-opacity="0"/>
</linearGradient>
<radialGradient id="paint47_radial_939_953" cx="0" cy="0" r="1" gradientUnits="userSpaceOnUse" gradientTransform="translate(1734.43 127.8) rotate(90) scale(220.859 220.709)">
<stop stop-color="#0BDBFE"/>
<stop offset="1" stop-color="#0BDBFE" stop-opacity="0"/>
</radialGradient>
<radialGradient id="paint48_radial_939_953" cx="0" cy="0" r="1" gradientUnits="userSpaceOnUse" gradientTransform="translate(1734.43 127.8) rotate(90) scale(220.859 220.709)">
<stop stop-color="#0BDBFE"/>
<stop offset="1" stop-color="#0BDBFE" stop-opacity="0"/>
</radialGradient>
<linearGradient id="paint49_linear_939_953" x1="1603.43" y1="1147" x2="1522.6" y2="1307.46" gradientUnits="userSpaceOnUse">
<stop stop-color="#3393DA"/>
<stop offset="1" stop-color="#02E5FF" stop-opacity="0"/>
</linearGradient>
<linearGradient id="paint50_linear_939_953" x1="1602.72" y1="1147" x2="1521.89" y2="1307.46" gradientUnits="userSpaceOnUse">
<stop stop-color="#3393DA"/>
<stop offset="1" stop-color="#02E5FF" stop-opacity="0"/>
</linearGradient>
<radialGradient id="paint51_radial_939_953" cx="0" cy="0" r="1" gradientUnits="userSpaceOnUse" gradientTransform="translate(1595.26 1167.43) rotate(90) scale(105.4 105.329)">
<stop stop-color="#0BDBFE"/>
<stop offset="1" stop-color="#0BDBFE" stop-opacity="0"/>
</radialGradient>
<radialGradient id="paint52_radial_939_953" cx="0" cy="0" r="1" gradientUnits="userSpaceOnUse" gradientTransform="translate(1595.26 1167.43) rotate(90) scale(105.4 105.329)">
<stop stop-color="#0BDBFE"/>
<stop offset="1" stop-color="#0BDBFE" stop-opacity="0"/>
</radialGradient>
<linearGradient id="paint53_linear_939_953" x1="289.511" y1="-1.32369e-06" x2="237.02" y2="104.205" gradientUnits="userSpaceOnUse">
<stop stop-color="#3393DA"/>
<stop offset="1" stop-color="#02E5FF" stop-opacity="0"/>
</linearGradient>
<linearGradient id="paint54_linear_939_953" x1="289.046" y1="-1.32369e-06" x2="236.555" y2="104.205" gradientUnits="userSpaceOnUse">
<stop stop-color="#3393DA"/>
<stop offset="1" stop-color="#02E5FF" stop-opacity="0"/>
</linearGradient>
<radialGradient id="paint55_radial_939_953" cx="0" cy="0" r="1" gradientUnits="userSpaceOnUse" gradientTransform="translate(284.204 13.2646) rotate(90) scale(68.4497 68.4033)">
<stop stop-color="#0BDBFE"/>
<stop offset="1" stop-color="#0BDBFE" stop-opacity="0"/>
</radialGradient>
<radialGradient id="paint56_radial_939_953" cx="0" cy="0" r="1" gradientUnits="userSpaceOnUse" gradientTransform="translate(284.204 13.2646) rotate(90) scale(68.4497 68.4033)">
<stop stop-color="#0BDBFE"/>
<stop offset="1" stop-color="#0BDBFE" stop-opacity="0"/>
</radialGradient>
<linearGradient id="paint57_linear_939_953" x1="2535.88" y1="1272" x2="2231.62" y2="1876.02" gradientUnits="userSpaceOnUse">
<stop stop-color="#3393DA"/>
<stop offset="1" stop-color="#02E5FF" stop-opacity="0"/>
</linearGradient>
<linearGradient id="paint58_linear_939_953" x1="2533.19" y1="1272" x2="2228.93" y2="1876.02" gradientUnits="userSpaceOnUse">
<stop stop-color="#3393DA"/>
<stop offset="1" stop-color="#02E5FF" stop-opacity="0"/>
</linearGradient>
<radialGradient id="paint59_radial_939_953" cx="0" cy="0" r="1" gradientUnits="userSpaceOnUse" gradientTransform="translate(2505.13 1348.89) rotate(90) scale(396.766 396.497)">
<stop stop-color="#0BDBFE"/>
<stop offset="1" stop-color="#0BDBFE" stop-opacity="0"/>
</radialGradient>
<radialGradient id="paint60_radial_939_953" cx="0" cy="0" r="1" gradientUnits="userSpaceOnUse" gradientTransform="translate(2505.13 1348.89) rotate(90) scale(396.766 396.497)">
<stop stop-color="#0BDBFE"/>
<stop offset="1" stop-color="#0BDBFE" stop-opacity="0"/>
</radialGradient>
</defs>
</svg>
