<svg width="767" height="395" viewBox="0 0 767 395" fill="none" xmlns="http://www.w3.org/2000/svg">
<path d="M385.063 141.628V142.442H395.511H405.959V143.392V144.341H409.759H413.558V145.118C413.558 145.836 413.652 145.908 414.817 146.067C415.509 146.162 417.219 146.24 418.616 146.24H421.156V147.017C421.156 147.735 421.251 147.807 422.416 147.966C423.108 148.061 424.322 148.139 425.112 148.139C426.535 148.139 426.55 148.147 426.635 149.02L426.72 149.902L429.501 149.979L432.283 150.056V150.996V151.936H434.183H436.082V152.886V153.835H437.982H439.882V154.785V155.734H441.781H443.681V156.683C443.681 157.587 443.726 157.633 444.631 157.633C445.498 157.633 445.581 157.701 445.581 158.419C445.581 159.194 445.609 159.208 447.48 159.396C449.338 159.582 449.38 159.603 449.38 160.351C449.38 161.092 449.436 161.122 451.129 161.303C452.845 161.487 452.879 161.507 452.961 162.342C453.033 163.084 453.157 163.204 453.925 163.279C454.696 163.353 454.807 163.462 454.807 164.144C454.807 164.85 454.905 164.932 455.825 165.008C456.746 165.084 456.851 165.174 456.925 165.944C457.007 166.779 457.041 166.799 458.757 166.983C460.466 167.166 460.506 167.188 460.506 167.962C460.506 168.687 460.587 168.754 461.456 168.754C462.361 168.754 462.406 168.8 462.406 169.704C462.406 170.608 462.451 170.653 463.356 170.653C464.26 170.653 464.306 170.699 464.306 171.603C464.306 172.507 464.351 172.552 465.255 172.552C466.157 172.552 466.205 172.6 466.205 173.485C466.205 174.367 466.261 174.423 467.223 174.502C468.152 174.579 468.248 174.663 468.326 175.468C468.4 176.243 468.507 176.35 469.207 176.35C469.937 176.35 470.005 176.43 470.005 177.299C470.005 178.203 470.05 178.249 470.954 178.249C471.859 178.249 471.904 178.294 471.904 179.198C471.904 180.102 471.949 180.147 472.854 180.147C473.758 180.147 473.804 180.193 473.804 181.097C473.804 182.001 473.849 182.046 474.754 182.046C475.658 182.046 475.703 182.092 475.703 182.996C475.703 183.9 475.749 183.945 476.653 183.945C477.558 183.945 477.603 183.99 477.603 184.894C477.603 185.799 477.648 185.844 478.553 185.844C479.457 185.844 479.503 185.889 479.503 186.793C479.503 187.663 479.57 187.743 480.3 187.743C481.089 187.743 481.1 187.764 481.285 189.642L481.472 191.54H482.387C483.252 191.54 483.302 191.592 483.302 192.49C483.302 193.394 483.347 193.439 484.252 193.439C485.156 193.439 485.202 193.484 485.202 194.389C485.202 195.255 485.27 195.338 485.988 195.338C486.763 195.338 486.778 195.366 486.966 197.237C487.152 199.094 487.173 199.136 487.921 199.136C488.663 199.136 488.692 199.19 488.875 200.899C489.058 202.601 489.09 202.662 489.819 202.662C490.555 202.662 490.579 202.711 490.765 204.561C490.951 206.414 490.974 206.46 491.715 206.46C492.455 206.46 492.478 206.505 492.665 208.358C492.851 210.211 492.874 210.257 493.614 210.257C494.355 210.257 494.378 210.303 494.564 212.156C494.75 214.009 494.773 214.055 495.514 214.055C496.255 214.055 496.278 214.101 496.464 215.954C496.651 217.818 496.669 217.853 497.432 217.853H498.209L498.286 220.633L498.364 223.413L499.245 223.498C500.116 223.582 500.127 223.602 500.13 224.99C500.131 225.764 500.209 227.038 500.303 227.821C500.464 229.164 500.518 229.246 501.243 229.246H502.012L502.087 232.975L502.163 236.705L503.045 236.79L503.927 236.875L503.929 240.995C503.93 243.26 504.008 245.755 504.103 246.538C504.264 247.885 504.316 247.962 505.05 247.962H505.826V321.474V394.986H469.055H432.283V331.782V268.578H431.506C430.787 268.578 430.716 268.484 430.556 267.32C430.461 266.628 430.383 264.491 430.383 262.573V259.084H429.606C428.887 259.084 428.816 258.99 428.656 257.826C428.561 257.134 428.484 255.913 428.484 255.113V253.659H427.534H426.584V251.76V249.861H425.634C424.73 249.861 424.684 249.816 424.684 248.912C424.684 248.042 424.617 247.962 423.887 247.962C423.098 247.962 423.087 247.942 422.902 246.064L422.715 244.165H421.8C420.935 244.165 420.885 244.113 420.885 243.215C420.885 242.311 420.84 242.266 419.935 242.266C419.031 242.266 418.985 242.221 418.985 241.317C418.985 240.447 418.918 240.367 418.188 240.367C417.488 240.367 417.381 240.261 417.306 239.486C417.229 238.681 417.133 238.597 416.204 238.52C415.283 238.444 415.186 238.361 415.186 237.655C415.186 236.973 415.075 236.864 414.304 236.79C413.534 236.716 413.412 236.597 413.339 235.843C413.257 234.997 413.225 234.979 411.522 234.796C409.823 234.614 409.787 234.594 409.706 233.759C409.631 232.989 409.526 232.899 408.605 232.823C407.679 232.747 407.588 232.667 407.588 231.942V231.144H405.824H404.06V230.195V229.246L402.635 229.243C401.851 229.242 400.569 229.164 399.785 229.07C398.46 228.911 398.361 228.848 398.361 228.165V227.432L390.849 227.241C386.717 227.137 379.94 227.137 375.787 227.241L368.238 227.431V228.179C368.238 228.913 368.198 228.932 366.202 229.119C364.199 229.306 364.167 229.321 364.167 230.07C364.167 230.805 364.11 230.836 362.403 231.019C360.7 231.201 360.639 231.234 360.639 231.962C360.639 232.698 360.591 232.722 358.74 232.908C356.868 233.095 356.84 233.11 356.84 233.884C356.84 234.602 356.757 234.671 355.89 234.671C354.991 234.671 354.94 234.72 354.94 235.593V236.514L353.041 236.705L351.141 236.896V237.818C351.141 238.691 351.09 238.74 350.191 238.74C349.287 238.74 349.241 238.785 349.241 239.689C349.241 240.563 349.177 240.638 348.427 240.638C347.703 240.638 347.613 240.729 347.613 241.452C347.613 242.197 347.535 242.266 346.691 242.266H345.769L345.578 244.165L345.387 246.064H344.465C343.592 246.064 343.542 246.114 343.542 247.013C343.542 247.88 343.474 247.962 342.756 247.962C341.981 247.962 341.966 247.991 341.778 249.861C341.592 251.714 341.569 251.76 340.829 251.76C340.088 251.76 340.065 251.806 339.879 253.659C339.693 255.512 339.67 255.558 338.929 255.558C338.188 255.558 338.165 255.604 337.979 257.457C337.794 259.3 337.766 259.355 337.044 259.355H336.3L336.123 263.628C336.026 265.977 335.945 296.067 335.945 330.493L335.944 393.087H335.13C334.38 393.087 334.316 393.162 334.316 394.036V394.986H298.358H262.4V394.036C262.4 393.162 262.336 393.087 261.586 393.087H260.772V324.322V255.558H261.543H262.314L262.493 249.818C262.591 246.66 262.672 242.876 262.672 241.409V238.74H263.448C264.182 238.74 264.234 238.662 264.396 237.316C264.49 236.532 264.568 235.189 264.569 234.332C264.571 232.792 264.582 232.772 265.358 232.772H266.144L266.34 229.11L266.536 225.448H267.28C267.975 225.448 268.035 225.354 268.195 224.024C268.289 223.24 268.367 221.959 268.368 221.176C268.371 219.786 268.39 219.751 269.158 219.751C269.932 219.751 269.947 219.723 270.135 217.853C270.323 215.982 270.337 215.954 271.112 215.954H271.899V214.055V212.156H272.849H273.798V210.702C273.798 209.902 273.876 208.682 273.971 207.99C274.13 206.833 274.205 206.731 274.904 206.731C275.588 206.731 275.674 206.627 275.75 205.714C275.826 204.785 275.91 204.689 276.716 204.612L277.598 204.526V202.645V200.763H278.516H279.434L279.623 199C279.808 197.276 279.829 197.237 280.604 197.237C281.348 197.237 281.397 197.17 281.397 196.152C281.397 195.092 281.419 195.067 282.347 195.067H283.297V193.304V191.54H284.246C285.151 191.54 285.196 191.495 285.196 190.591C285.196 189.687 285.242 189.642 286.146 189.642C287.073 189.642 287.096 189.616 287.096 188.556C287.096 187.497 287.118 187.471 288.046 187.471H288.995V185.708V183.945H289.945C290.85 183.945 290.895 183.9 290.895 182.996C290.895 182.092 290.94 182.046 291.845 182.046C292.749 182.046 292.795 182.001 292.795 181.097C292.795 180.193 292.84 180.147 293.745 180.147C294.649 180.147 294.694 180.102 294.694 179.198C294.694 178.294 294.74 178.249 295.644 178.249C296.549 178.249 296.594 178.203 296.594 177.299C296.594 176.395 296.639 176.35 297.544 176.35C298.448 176.35 298.494 176.304 298.494 175.4C298.494 174.496 298.539 174.451 299.444 174.451C300.348 174.451 300.393 174.406 300.393 173.502C300.393 172.597 300.439 172.552 301.343 172.552C302.248 172.552 302.293 172.507 302.293 171.603C302.293 170.699 302.338 170.653 303.243 170.653C304.147 170.653 304.193 170.608 304.193 169.704V168.754H305.94H307.686L307.771 167.873C307.846 167.101 307.965 166.981 308.722 166.907C309.476 166.835 309.599 166.712 309.672 165.958C309.748 165.171 309.849 165.085 310.774 165.008C311.693 164.932 311.791 164.849 311.791 164.148C311.791 163.394 311.841 163.367 313.54 163.185C315.256 163.002 315.291 162.982 315.372 162.146C315.444 161.405 315.569 161.284 316.337 161.21C317.105 161.136 317.219 161.025 317.219 160.356C317.219 159.603 317.258 159.583 319.118 159.396C320.972 159.21 321.018 159.187 321.018 158.447C321.018 157.706 321.064 157.683 322.918 157.497C324.789 157.309 324.817 157.295 324.817 156.52C324.817 155.803 324.9 155.734 325.767 155.734C326.672 155.734 326.717 155.689 326.717 154.785V153.835H328.617H330.516V152.886V151.936H331.971C332.771 151.936 333.992 151.859 334.685 151.764C335.849 151.604 335.944 151.533 335.944 150.814V150.038H337.979H340.015V149.098V148.158L342.796 148.08L345.578 148.003L345.663 147.121L345.748 146.24H348.135C349.448 146.24 351.089 146.162 351.781 146.067C352.946 145.908 353.041 145.836 353.041 145.118V144.341H356.84H360.639V143.392V142.442H371.901H383.164V141.628C383.164 140.879 383.239 140.815 384.113 140.815C384.988 140.815 385.063 140.879 385.063 141.628Z" fill="white" fill-opacity="0.7"/>
<path d="M189.128 158.419C189.128 159.194 189.157 159.208 191.028 159.396C192.886 159.582 192.928 159.603 192.928 160.351C192.928 161.092 192.984 161.122 194.677 161.303C196.393 161.487 196.427 161.507 196.509 162.342C196.581 163.084 196.705 163.204 197.473 163.279C198.244 163.353 198.355 163.462 198.355 164.144C198.355 164.85 198.452 164.932 199.373 165.008C200.294 165.084 200.398 165.174 200.473 165.944C200.555 166.779 200.589 166.799 202.305 166.983C204.014 167.166 204.054 167.188 204.054 167.962C204.054 168.687 204.135 168.754 205.004 168.754C205.909 168.754 205.954 168.8 205.954 169.704C205.954 170.608 205.999 170.653 206.904 170.653C207.805 170.653 207.854 170.701 207.854 171.586C207.854 172.469 207.909 172.524 208.871 172.604C209.792 172.68 209.897 172.769 209.972 173.539C210.053 174.375 210.087 174.395 211.803 174.578L213.552 174.765V175.693C213.552 176.573 213.602 176.621 214.502 176.621C215.377 176.621 215.452 176.686 215.452 177.435C215.452 178.184 215.528 178.249 216.402 178.249H217.352V180.147V182.046H218.302C219.171 182.046 219.251 182.113 219.251 182.843C219.251 183.543 219.358 183.65 220.133 183.725C220.939 183.802 221.023 183.898 221.099 184.827C221.179 185.789 221.235 185.844 222.117 185.844C223.003 185.844 223.051 185.892 223.051 186.793C223.051 187.697 223.096 187.743 224 187.743C224.905 187.743 224.95 187.788 224.95 188.692C224.95 189.561 225.017 189.642 225.747 189.642C226.448 189.642 226.554 189.748 226.629 190.523C226.703 191.291 226.824 191.415 227.566 191.487C228.402 191.569 228.422 191.603 228.605 193.318C228.788 195.017 228.815 195.067 229.569 195.067C230.27 195.067 230.353 195.165 230.429 196.084C230.505 197.004 230.595 197.109 231.365 197.184C232.201 197.265 232.221 197.3 232.405 199.015C232.586 200.707 232.616 200.763 233.357 200.763C234.105 200.763 234.126 200.805 234.313 202.662C234.501 204.532 234.515 204.561 235.29 204.561C236.008 204.561 236.077 204.644 236.077 205.51C236.077 206.414 236.122 206.46 237.027 206.46H237.976V208.358V210.257H238.926H239.876V212.156V214.055H240.826H241.776V215.954V217.853H242.726H243.675L243.678 219.277C243.679 220.06 243.757 221.342 243.851 222.125C244.013 223.471 244.065 223.549 244.799 223.549C245.556 223.549 245.575 223.584 245.575 225.003C245.575 225.803 245.653 227.024 245.748 227.716C245.907 228.876 245.98 228.974 246.688 228.974H247.456L247.533 231.89L247.61 234.806L248.492 234.891L249.374 234.976V238.621V242.266H250.324H251.274V248.912V255.558H252.224H253.174V268.85V282.141H252.224H251.274V287.702V293.263H250.324H249.374V297.061V300.858H248.424H247.475V304.503V308.148L246.593 308.233L245.711 308.318L245.631 310.285C245.552 312.242 245.548 312.251 244.786 312.251C244.081 312.251 244.007 312.351 243.848 313.51C243.753 314.202 243.675 315.415 243.675 316.205C243.675 317.628 243.667 317.643 242.793 317.727L241.911 317.812L241.831 319.643C241.752 321.457 241.744 321.474 240.977 321.474C240.217 321.474 240.199 321.51 240.012 323.373C239.826 325.226 239.803 325.272 239.062 325.272C238.321 325.272 238.298 325.318 238.112 327.171C237.926 329.023 237.903 329.069 237.162 329.069C236.422 329.069 236.399 329.115 236.212 330.968L236.022 332.867H235.1C234.226 332.867 234.177 332.918 234.177 333.816C234.177 334.682 234.108 334.766 233.395 334.766C232.632 334.766 232.607 334.811 232.425 336.513C232.241 338.233 232.224 338.262 231.376 338.344C230.593 338.42 230.506 338.522 230.429 339.445C230.353 340.361 230.268 340.462 229.579 340.462C228.836 340.462 228.807 340.516 228.624 342.225C228.44 343.941 228.414 343.989 227.659 343.989C226.958 343.989 226.875 344.087 226.798 345.006C226.722 345.93 226.635 346.031 225.848 346.107C225.094 346.18 224.971 346.303 224.898 347.056C224.826 347.807 224.701 347.933 223.963 348.005C223.128 348.086 223.107 348.122 222.925 349.82C222.743 351.523 222.725 351.554 221.878 351.636C221.124 351.709 221.004 351.831 220.93 352.601C220.855 353.376 220.749 353.483 220.048 353.483C219.318 353.483 219.251 353.563 219.251 354.432C219.251 355.336 219.206 355.382 218.302 355.382C217.397 355.382 217.352 355.427 217.352 356.331C217.352 357.235 217.306 357.28 216.402 357.28C215.497 357.28 215.452 357.326 215.452 358.23C215.452 359.134 215.407 359.179 214.502 359.179C213.598 359.179 213.552 359.225 213.552 360.129V361.078H211.788H210.025V362.027C210.025 362.932 209.979 362.977 209.075 362.977C208.17 362.977 208.125 363.022 208.125 363.926C208.125 364.853 208.099 364.876 207.039 364.876C205.98 364.876 205.954 364.898 205.954 365.825C205.954 366.729 205.909 366.775 205.004 366.775C204.1 366.775 204.054 366.82 204.054 367.724C204.054 368.628 204.009 368.673 203.104 368.673C202.236 368.673 202.155 368.741 202.155 369.465C202.155 370.24 202.115 370.262 200.406 370.445C198.69 370.629 198.655 370.648 198.574 371.484C198.499 372.254 198.394 372.344 197.473 372.419C196.511 372.499 196.456 372.555 196.456 373.437V374.37H194.709H192.962L192.877 375.251L192.792 376.133L190.96 376.213L189.128 376.293V377.231C189.128 378.143 189.1 378.167 188.043 378.167C187.027 378.167 186.957 378.218 186.957 378.95C186.957 379.712 186.913 379.737 185.193 379.921C183.468 380.105 183.429 380.127 183.429 380.902C183.429 381.676 183.398 381.694 182.005 381.696C181.221 381.697 179.939 381.775 179.155 381.87L177.731 382.041V298.048V214.055H162.669H147.608V201.858V189.66L150.389 189.583L153.171 189.506L153.255 188.634L153.34 187.761L156.105 187.684L158.87 187.607L158.954 186.737L159.038 185.868L160.854 185.788L162.669 185.708L162.754 184.827L162.839 183.945H164.586H166.333V182.996C166.333 182.092 166.378 182.046 167.283 182.046C168.187 182.046 168.232 182.001 168.232 181.097C168.232 180.17 168.258 180.147 169.318 180.147C170.378 180.147 170.403 180.125 170.403 179.198V178.249H172.167H173.931V177.299C173.931 176.395 173.977 176.35 174.881 176.35H175.831V174.587V172.823H176.781C177.685 172.823 177.731 172.778 177.731 171.874C177.731 170.97 177.776 170.925 178.68 170.925C179.608 170.925 179.63 170.899 179.63 169.84C179.63 168.78 179.653 168.754 180.58 168.754C181.485 168.754 181.53 168.709 181.53 167.805C181.53 166.901 181.575 166.856 182.48 166.856H183.429V165.11V163.364L184.311 163.279C185.117 163.201 185.201 163.105 185.278 162.176C185.354 161.258 185.437 161.159 186.138 161.159C186.893 161.159 186.919 161.111 187.103 159.396L187.292 157.633H188.21C189.042 157.633 189.128 157.707 189.128 158.419Z" fill="white" fill-opacity="0.7"/>
<path d="M130.196 140.721L134.31 140.899V141.671V142.442H141.773H149.236V143.392V144.341H153.171H157.106V145.155C157.106 145.878 157.196 145.969 157.92 145.969C158.689 145.969 158.734 146.029 158.734 147.054C158.734 148.075 158.687 148.139 157.932 148.139C157.131 148.139 157.131 148.141 157.05 149.97L156.97 151.801L156.118 151.883C155.282 151.965 155.263 151.999 155.079 153.714C154.897 155.413 154.87 155.463 154.116 155.463C153.415 155.463 153.331 155.561 153.255 156.48C153.178 157.409 153.094 157.504 152.289 157.582C151.482 157.66 151.407 157.746 151.407 158.599C151.407 159.484 151.358 159.532 150.457 159.532C149.553 159.532 149.507 159.577 149.507 160.481C149.507 161.385 149.462 161.43 148.557 161.43C147.653 161.43 147.608 161.476 147.608 162.38C147.608 163.284 147.562 163.329 146.658 163.329C145.753 163.329 145.708 163.375 145.708 164.279C145.708 165.18 145.66 165.228 144.775 165.228C143.921 165.228 143.835 165.303 143.758 166.11C143.683 166.885 143.566 167.002 142.791 167.076C142.015 167.151 141.909 167.257 141.909 167.958C141.909 168.687 141.829 168.754 140.959 168.754C140.054 168.754 140.009 168.8 140.009 169.704V170.653H138.109H136.21V171.59V172.527L134.378 172.607L132.546 172.688L132.461 173.569L132.376 174.451H130.494H128.611V175.4V176.35H124.948H121.284V177.299V178.249H119.384H117.485V207.545V236.841H118.434C119.309 236.841 119.384 236.905 119.384 237.655V238.468H134.446H149.507V314.519C149.507 356.347 149.43 391.136 149.335 391.828L149.162 393.087L142.211 393.089C138.388 393.09 134.619 393.168 133.835 393.263C132.488 393.424 132.41 393.476 132.41 394.21V394.986H124.948H117.485V394.21C117.485 393.476 117.407 393.424 116.06 393.263C115.276 393.168 112.284 393.09 109.411 393.089L104.187 393.087V392.311C104.187 391.577 104.109 391.525 102.762 391.364C101.979 391.27 99.8416 391.191 98.0133 391.19L94.6889 391.188V390.411C94.6889 389.692 94.5945 389.621 93.4297 389.462C92.7374 389.367 91.4552 389.289 90.5803 389.289C89.0114 389.289 88.99 389.279 88.99 388.513C88.99 387.78 88.9121 387.728 87.5653 387.566C86.7818 387.472 85.4993 387.394 84.7158 387.393C83.3293 387.39 83.2911 387.369 83.2911 386.613C83.2911 385.895 83.1966 385.824 82.0319 385.664C81.3396 385.569 80.1184 385.491 79.3181 385.491C77.8942 385.491 77.8635 385.475 77.8635 384.705C77.8635 383.931 77.835 383.916 75.9639 383.728C74.1101 383.542 74.0642 383.519 74.0642 382.779C74.0642 382.039 74.0183 382.016 72.1646 381.829C70.3108 381.643 70.2649 381.62 70.2649 380.88C70.2649 380.14 70.2191 380.117 68.3653 379.931C66.5115 379.745 66.4656 379.721 66.4656 378.981C66.4656 378.241 66.4198 378.218 64.566 378.032C62.6948 377.844 62.6663 377.829 62.6663 377.055C62.6663 376.337 62.5836 376.269 61.7165 376.269C60.812 376.269 60.7667 376.223 60.7667 375.319V374.37H58.8671H56.9674V373.452V372.534L55.2035 372.345C53.4783 372.161 53.4395 372.139 53.4395 371.364C53.4395 370.64 53.3584 370.572 52.4897 370.572C51.5852 370.572 51.5398 370.527 51.5398 369.623C51.5398 368.696 51.5141 368.673 50.4543 368.673C49.3946 368.673 49.3688 368.651 49.3688 367.724C49.3688 366.82 49.3235 366.775 48.419 366.775C47.5145 366.775 47.4692 366.729 47.4692 365.825V364.876H45.7052H43.9413V363.926C43.9413 363.022 43.896 362.977 42.9914 362.977C42.0869 362.977 42.0416 362.932 42.0416 362.027C42.0416 361.123 41.9963 361.078 41.0918 361.078C40.1873 361.078 40.142 361.033 40.142 360.129C40.142 359.225 40.0967 359.179 39.1922 359.179C38.2877 359.179 38.2423 359.134 38.2423 358.23C38.2423 357.326 38.197 357.28 37.2925 357.28C36.388 357.28 36.3427 357.235 36.3427 356.331C36.3427 355.427 36.2974 355.382 35.3929 355.382C34.4884 355.382 34.443 355.336 34.443 354.432C34.443 353.528 34.3977 353.483 33.4932 353.483C32.5887 353.483 32.5434 353.437 32.5434 352.533C32.5434 351.629 32.4981 351.584 31.5936 351.584H30.6438V349.821V348.058H29.6939C28.7894 348.058 28.7441 348.012 28.7441 347.108C28.7441 346.204 28.6988 346.159 27.7943 346.159C26.867 346.159 26.8445 346.133 26.8445 345.074C26.8445 344.014 26.8219 343.989 25.8946 343.989C24.9901 343.989 24.9448 343.943 24.9448 343.039C24.9448 342.171 24.8773 342.09 24.1524 342.09C23.3771 342.09 23.3556 342.051 23.1708 340.327L22.9819 338.563H22.0639C21.1952 338.563 21.1455 338.512 21.1455 337.614C21.1455 336.747 21.0769 336.665 20.3588 336.665C19.5848 336.665 19.5694 336.635 19.3832 334.781C19.1954 332.912 19.187 332.897 18.3379 332.814L17.4819 332.731L17.4016 330.9L17.3215 329.069H16.3839C15.4935 329.069 15.4466 329.022 15.4466 328.12C15.4466 327.249 15.3801 327.171 14.6449 327.171C13.8438 327.171 13.843 327.169 13.763 325.34L13.6826 323.508L12.8368 323.426C12.0346 323.348 11.9822 323.271 11.8215 321.934C11.7282 321.159 11.6508 319.945 11.6497 319.236C11.6473 317.998 11.6169 317.948 10.8649 317.948C10.0893 317.948 10.0812 317.93 9.89203 315.913C9.70234 313.89 9.69691 313.879 8.91046 313.879C8.14788 313.879 8.11939 313.832 8.11695 312.59C8.11586 311.882 8.03771 310.661 7.94354 309.878C7.7818 308.531 7.72997 308.454 6.99616 308.454C6.24064 308.454 6.21975 308.415 6.2173 307.029C6.21622 306.246 6.13807 304.965 6.0439 304.181C5.8827 302.839 5.82842 302.757 5.10574 302.757H4.33855L4.26149 299.841L4.18441 296.925L3.30244 296.84L2.42046 296.755L2.41801 292.636C2.41693 290.37 2.33878 287.875 2.24461 287.092C2.08287 285.746 2.03103 285.668 1.29722 285.668H0.520813V267.917V250.167L1.40279 250.082L2.28477 249.997L2.35885 245.182L2.43294 240.367H3.20311C3.92932 240.367 3.98278 240.286 4.14425 238.943C4.23842 238.16 4.31657 236.451 4.31766 235.145L4.3201 232.772H5.09651C5.83032 232.772 5.88216 232.694 6.0439 231.348C6.13807 230.564 6.21622 228.924 6.2173 227.703L6.21975 225.482L7.10173 225.397L7.9837 225.312L8.06403 223.481C8.14328 221.673 8.15386 221.65 8.90802 221.65C9.62717 221.65 9.68226 221.566 9.84319 220.226C9.93736 219.443 10.0155 218.161 10.0166 217.378C10.019 215.983 10.0356 215.954 10.8166 215.954C11.6055 215.954 11.6166 215.933 11.8017 214.055C11.9835 212.209 12.0096 212.156 12.7363 212.156C13.456 212.156 13.4908 212.09 13.6726 210.393C13.8552 208.689 13.887 208.63 14.6189 208.63C15.3581 208.63 15.3809 208.584 15.5636 206.731C15.7478 204.863 15.7636 204.832 16.5321 204.832C17.239 204.832 17.3215 204.735 17.3978 203.815C17.4738 202.894 17.5631 202.79 18.3338 202.715C19.1696 202.634 19.1894 202.599 19.3732 200.884C19.5553 199.185 19.5824 199.136 20.3366 199.136C21.0375 199.136 21.1208 199.037 21.1971 198.118C21.2731 197.198 21.3624 197.093 22.1331 197.018C22.9689 196.937 22.9887 196.903 23.1724 195.187C23.3554 193.479 23.3779 193.439 24.1524 193.439C24.8773 193.439 24.9448 193.358 24.9448 192.49C24.9448 191.589 24.9923 191.54 25.8784 191.54C26.7609 191.54 26.8162 191.485 26.896 190.523C26.972 189.603 27.0613 189.498 27.832 189.423C28.6679 189.342 28.6877 189.307 28.8714 187.592C29.0543 185.884 29.0768 185.844 29.8513 185.844C30.5762 185.844 30.6438 185.763 30.6438 184.894C30.6438 183.99 30.6891 183.945 31.5936 183.945C32.4981 183.945 32.5434 183.9 32.5434 182.996C32.5434 182.092 32.5887 182.046 33.4932 182.046C34.3977 182.046 34.443 182.001 34.443 181.097C34.443 180.193 34.4884 180.147 35.3929 180.147C36.2974 180.147 36.3427 180.102 36.3427 179.198C36.3427 178.294 36.388 178.249 37.2925 178.249C38.197 178.249 38.2423 178.203 38.2423 177.299C38.2423 176.395 38.2877 176.35 39.1922 176.35C40.0967 176.35 40.142 176.304 40.142 175.4C40.142 174.496 40.1873 174.451 41.0918 174.451C41.9963 174.451 42.0416 174.406 42.0416 173.502C42.0416 172.597 42.0869 172.552 42.9914 172.552C43.8612 172.552 43.9413 172.485 43.9413 171.755C43.9413 171.055 44.0477 170.949 44.8232 170.874C45.594 170.8 45.7158 170.68 45.7888 169.927C45.8708 169.08 45.902 169.062 47.6057 168.88C49.3042 168.698 49.3406 168.677 49.4217 167.843C49.4967 167.072 49.6014 166.983 50.5222 166.907C51.4427 166.831 51.5398 166.749 51.5398 166.043C51.5398 165.361 51.6508 165.252 52.4218 165.177C53.1901 165.103 53.3144 164.983 53.3866 164.241C53.4677 163.405 53.5025 163.386 55.2184 163.202C56.9115 163.021 56.9674 162.99 56.9674 162.25C56.9674 161.503 57.0106 161.481 58.8519 161.296C60.7214 161.109 60.7368 161.1 60.8193 160.252C60.8918 159.505 61.015 159.385 61.7844 159.311C62.5521 159.237 62.6663 159.126 62.6663 158.457C62.6663 157.704 62.7057 157.684 64.566 157.497C66.4198 157.311 66.4656 157.288 66.4656 156.548C66.4656 155.807 66.5115 155.784 68.3653 155.598C70.2191 155.412 70.2649 155.389 70.2649 154.649C70.2649 153.909 70.3108 153.886 72.1646 153.7C74.0357 153.512 74.0642 153.497 74.0642 152.723V151.936H75.9639H77.8635V150.987V150.038H80.5773H83.2911V149.088V148.139H86.1405H88.99V147.189V146.24H91.8395H94.6889V145.29V144.341H99.438H104.187V143.392V142.442H110.836H117.485V141.638V140.834L120.266 140.746C121.796 140.697 123.731 140.632 124.565 140.601C125.4 140.569 127.934 140.623 130.196 140.721Z" fill="white" fill-opacity="0.7"/>
<path fill-rule="evenodd" clip-rule="evenodd" d="M658.612 143.392V144.341H664.175H669.739V145.29V146.24H672.724H675.709V147.017C675.709 147.735 675.803 147.807 676.968 147.966C677.66 148.061 679.309 148.139 680.632 148.139H683.036V149.088V150.038H684.936H686.835V150.814C686.835 151.547 686.913 151.599 688.26 151.761C689.044 151.855 690.326 151.933 691.11 151.934L692.534 151.936V152.886V153.835H694.434H696.334V154.632C696.334 155.421 696.355 155.432 698.233 155.617C700.087 155.8 700.133 155.822 700.133 156.561C700.133 157.292 700.193 157.325 701.882 157.506C703.598 157.689 703.633 157.709 703.714 158.544C703.789 159.315 703.893 159.404 704.814 159.48C705.73 159.556 705.832 159.641 705.832 160.33C705.832 161.072 705.886 161.102 707.596 161.285C709.312 161.468 709.36 161.495 709.36 162.249C709.36 162.95 709.458 163.033 710.377 163.11C711.298 163.185 711.403 163.275 711.478 164.045C711.559 164.881 711.594 164.9 713.31 165.084C715.019 165.267 715.059 165.289 715.059 166.064C715.059 166.788 715.14 166.856 716.009 166.856C716.91 166.856 716.958 166.903 716.958 167.789C716.958 168.671 717.014 168.726 717.976 168.806C718.897 168.882 719.002 168.971 719.076 169.742C719.158 170.577 719.192 170.597 720.908 170.781C722.617 170.963 722.657 170.986 722.657 171.76C722.657 172.485 722.738 172.552 723.607 172.552C724.512 172.552 724.557 172.597 724.557 173.502C724.557 174.406 724.602 174.451 725.507 174.451C726.411 174.451 726.457 174.496 726.457 175.4C726.457 176.304 726.502 176.35 727.406 176.35C728.311 176.35 728.356 176.395 728.356 177.299C728.356 178.203 728.402 178.249 729.306 178.249C730.211 178.249 730.256 178.294 730.256 179.198C730.256 180.102 730.301 180.147 731.206 180.147C732.11 180.147 732.156 180.193 732.156 181.097C732.156 182.001 732.201 182.046 733.105 182.046C734.01 182.046 734.055 182.092 734.055 182.996C734.055 183.9 734.1 183.945 735.005 183.945C735.909 183.945 735.955 183.99 735.955 184.894C735.955 185.763 736.022 185.844 736.747 185.844C737.522 185.844 737.544 185.884 737.727 187.592C737.911 189.307 737.931 189.342 738.767 189.423C739.537 189.498 739.627 189.603 739.703 190.523C739.782 191.485 739.838 191.54 740.72 191.54C741.606 191.54 741.654 191.589 741.654 192.49C741.654 193.359 741.721 193.439 742.451 193.439C743.151 193.439 743.258 193.546 743.333 194.321C743.407 195.093 743.525 195.213 744.288 195.286L745.157 195.371L745.238 197.185L745.317 199L746.18 199.084C747.028 199.166 747.044 199.195 747.229 200.915C747.41 202.607 747.44 202.662 748.182 202.662C748.872 202.662 748.957 202.764 749.032 203.679C749.108 204.6 749.198 204.704 749.969 204.779C750.804 204.86 750.824 204.895 751.008 206.61C751.191 208.319 751.213 208.358 751.988 208.358H752.78V210.257V212.156H753.73H754.68V214.055V215.954H755.63H756.58L756.582 217.378C756.583 218.161 756.661 219.443 756.755 220.226C756.917 221.572 756.969 221.65 757.703 221.65H758.479V223.549V225.448H759.429H760.379V228.296V231.144H761.329H762.278V233.993V236.841H763.228H764.178V241.588V246.335H764.955C765.674 246.335 765.746 246.429 765.905 247.594C766 248.286 766.078 257.563 766.078 268.209V287.566H765.128C764.223 287.566 764.178 287.612 764.178 288.516V289.465H673.674H583.169V291.364V293.263H583.967C584.756 293.263 584.767 293.284 584.952 295.162L585.139 297.061H586.054H586.968V298.959V300.858H587.918H588.868V302.621V304.385H589.818C590.719 304.385 590.768 304.432 590.768 305.317C590.768 306.17 590.842 306.256 591.65 306.334C592.455 306.412 592.539 306.508 592.616 307.436C592.692 308.356 592.775 308.454 593.481 308.454C594.163 308.454 594.272 308.564 594.346 309.335C594.421 310.107 594.539 310.227 595.297 310.301C596.051 310.374 596.174 310.496 596.247 311.25C596.32 312.007 596.441 312.126 597.213 312.2C597.988 312.275 598.095 312.382 598.095 313.082C598.095 313.812 598.175 313.879 599.045 313.879C599.946 313.879 599.995 313.926 599.995 314.812C599.995 315.694 600.05 315.749 601.012 315.829C601.933 315.905 602.038 315.994 602.113 316.765C602.194 317.6 602.228 317.62 603.944 317.804C605.654 317.986 605.693 318.009 605.693 318.783C605.693 319.508 605.775 319.575 606.643 319.575C607.548 319.575 607.593 319.621 607.593 320.525V321.474H609.493H611.392V322.388V323.303L613.292 323.49C615.171 323.675 615.192 323.686 615.192 324.474V325.272H617.091H618.991V326.221V327.171H622.79H626.59V328.12V329.069H640.701H654.813V328.12V327.171H658.476H662.14V326.221V325.272H664.175H666.211V324.322V323.373H668.11H670.01V322.423V321.474H671.757H673.503L673.589 320.592C673.666 319.788 673.762 319.704 674.691 319.627C675.61 319.551 675.709 319.467 675.709 318.767C675.709 318.012 675.757 317.986 677.473 317.802L679.237 317.613V316.696C679.237 315.827 679.288 315.778 680.187 315.778C681.091 315.778 681.136 315.732 681.136 314.828C681.136 313.927 681.184 313.879 682.069 313.879C682.923 313.879 683.009 313.804 683.087 312.997C683.161 312.222 683.278 312.105 684.054 312.031C684.829 311.956 684.936 311.849 684.936 311.149C684.936 310.422 685.017 310.352 685.869 310.352C686.752 310.352 686.807 310.297 686.887 309.335C686.964 308.406 687.048 308.311 687.853 308.233C688.66 308.155 688.735 308.069 688.735 307.216C688.735 306.331 688.784 306.283 689.685 306.283C690.589 306.283 690.635 306.238 690.635 305.334V304.385H725.491C744.662 304.385 760.405 304.479 760.476 304.594C760.548 304.709 760.537 306.052 760.453 307.578L760.3 310.352H759.39H758.479V313.065V315.778H757.529H756.58V317.676V319.575H755.793C755.018 319.575 755.003 319.604 754.816 321.474C754.629 323.327 754.606 323.373 753.866 323.373C753.125 323.373 753.102 323.419 752.916 325.272C752.73 327.125 752.707 327.171 751.966 327.171C751.226 327.171 751.202 327.216 751.016 329.069L750.826 330.968H749.903H748.981V332.714V334.46L748.099 334.545C747.294 334.623 747.21 334.719 747.133 335.647C747.057 336.563 746.972 336.665 746.282 336.665C745.54 336.665 745.51 336.72 745.329 338.412C745.145 340.131 745.128 340.161 744.28 340.243C743.497 340.319 743.41 340.421 743.334 341.344C743.257 342.264 743.175 342.361 742.469 342.361C741.786 342.361 741.677 342.472 741.603 343.243C741.529 344.011 741.408 344.135 740.666 344.207C739.83 344.288 739.811 344.323 739.627 346.038C739.444 347.746 739.421 347.786 738.647 347.786C737.922 347.786 737.854 347.867 737.854 348.736C737.854 349.64 737.809 349.685 736.905 349.685C736 349.685 735.955 349.73 735.955 350.635C735.955 351.539 735.909 351.584 735.005 351.584C734.1 351.584 734.055 351.629 734.055 352.533C734.055 353.437 734.01 353.483 733.105 353.483C732.201 353.483 732.156 353.528 732.156 354.432C732.156 355.336 732.11 355.382 731.206 355.382C730.301 355.382 730.256 355.427 730.256 356.331C730.256 357.235 730.211 357.28 729.306 357.28C728.402 357.28 728.356 357.326 728.356 358.23C728.356 359.134 728.311 359.179 727.406 359.179C726.502 359.179 726.457 359.225 726.457 360.129C726.457 361.033 726.411 361.078 725.507 361.078C724.602 361.078 724.557 361.123 724.557 362.027C724.557 362.932 724.512 362.977 723.607 362.977C722.703 362.977 722.657 363.022 722.657 363.926C722.657 364.83 722.612 364.876 721.707 364.876C720.803 364.876 720.758 364.921 720.758 365.825V366.775H718.994H717.23V367.724C717.23 368.651 717.204 368.673 716.144 368.673C715.084 368.673 715.059 368.696 715.059 369.623C715.059 370.527 715.013 370.572 714.109 370.572C713.24 370.572 713.159 370.64 713.159 371.364C713.159 372.138 713.119 372.161 711.41 372.344C709.694 372.527 709.659 372.547 709.578 373.383C709.503 374.153 709.399 374.242 708.478 374.318C707.559 374.395 707.46 374.478 707.46 375.178C707.46 375.933 707.412 375.959 705.696 376.143C703.993 376.325 703.932 376.358 703.932 377.086C703.932 377.822 703.884 377.846 702.033 378.032C700.179 378.218 700.133 378.241 700.133 378.981C700.133 379.721 700.087 379.745 698.233 379.931C696.38 380.117 696.334 380.14 696.334 380.88C696.334 381.62 696.288 381.643 694.434 381.829C692.58 382.016 692.534 382.039 692.534 382.779C692.534 383.519 692.489 383.542 690.635 383.728C688.764 383.916 688.735 383.931 688.735 384.705C688.735 385.472 688.701 385.491 687.31 385.494C686.527 385.495 685.244 385.573 684.461 385.667C683.114 385.829 683.036 385.881 683.036 386.614C683.036 387.359 682.984 387.39 681.747 387.393C681.038 387.394 679.817 387.472 679.033 387.566C677.691 387.727 677.609 387.781 677.609 388.504V389.271L674.691 389.348L671.774 389.425L671.689 390.306L671.604 391.188H668.267C666.431 391.188 664.363 391.266 663.671 391.36C662.506 391.52 662.411 391.591 662.411 392.31V393.087L655.288 393.089C651.37 393.09 647.523 393.168 646.739 393.263C645.393 393.424 645.315 393.476 645.315 394.21V394.986H641.515H637.716V394.21C637.716 393.476 637.638 393.424 636.291 393.263C635.508 393.168 631.295 393.09 626.929 393.089L618.991 393.087V392.311C618.991 391.577 618.913 391.525 617.566 391.364C616.783 391.27 614.646 391.191 612.817 391.19L609.493 391.188V390.411C609.493 389.692 609.398 389.621 608.234 389.462C607.541 389.367 606.259 389.289 605.384 389.289C603.815 389.289 603.794 389.279 603.794 388.513C603.794 387.78 603.716 387.728 602.369 387.566C601.586 387.472 600.303 387.394 599.52 387.393C598.133 387.39 598.095 387.369 598.095 386.613C598.095 385.895 598 385.824 596.836 385.664C596.143 385.569 594.922 385.491 594.122 385.491C592.698 385.491 592.667 385.475 592.667 384.705C592.667 383.931 592.639 383.916 590.768 383.728C588.914 383.542 588.868 383.519 588.868 382.779C588.868 382.039 588.822 382.016 586.968 381.829C585.115 381.643 585.069 381.62 585.069 380.88C585.069 380.14 585.023 380.117 583.169 379.931C581.315 379.745 581.269 379.721 581.269 378.981C581.269 378.241 581.224 378.218 579.37 378.032C577.516 377.846 577.47 377.823 577.47 377.082C577.47 376.342 577.424 376.319 575.57 376.133C573.699 375.945 573.671 375.931 573.671 375.156C573.671 374.438 573.588 374.37 572.721 374.37C571.823 374.37 571.771 374.32 571.771 373.452V372.534L570.007 372.345C568.291 372.162 568.243 372.135 568.243 371.381C568.243 370.68 568.145 370.597 567.226 370.521C566.305 370.445 566.2 370.355 566.125 369.585C566.044 368.75 566.008 368.73 564.309 368.548C562.605 368.365 562.574 368.348 562.492 367.501C562.419 366.747 562.297 366.628 561.527 366.554C560.751 366.479 560.645 366.373 560.645 365.672C560.645 364.943 560.565 364.876 559.695 364.876C558.79 364.876 558.745 364.83 558.745 363.926C558.745 363.022 558.7 362.977 557.795 362.977C556.891 362.977 556.845 362.932 556.845 362.027C556.845 361.127 556.798 361.078 555.913 361.078C555.059 361.078 554.973 361.003 554.895 360.196C554.82 359.421 554.704 359.305 553.928 359.23C553.121 359.152 553.046 359.066 553.046 358.213C553.046 357.331 552.995 357.28 552.113 357.28C551.26 357.28 551.174 357.206 551.096 356.399C551.021 355.624 550.904 355.507 550.129 355.432C549.321 355.354 549.247 355.268 549.247 354.415C549.247 353.531 549.198 353.483 548.297 353.483C547.393 353.483 547.347 353.437 547.347 352.533C547.347 351.629 547.302 351.584 546.397 351.584C545.493 351.584 545.448 351.539 545.448 350.635C545.448 349.73 545.402 349.685 544.498 349.685C543.593 349.685 543.548 349.64 543.548 348.736C543.548 347.832 543.503 347.786 542.598 347.786H541.648V346.023V344.26H540.698C539.794 344.26 539.749 344.215 539.749 343.31C539.749 342.406 539.703 342.361 538.799 342.361H537.849V340.462V338.563H536.899C535.998 338.563 535.949 338.516 535.949 337.631C535.949 336.778 535.875 336.692 535.067 336.614C534.262 336.536 534.178 336.441 534.101 335.512C534.025 334.593 533.942 334.495 533.241 334.495C532.486 334.495 532.459 334.447 532.276 332.731C532.093 331.029 532.061 330.968 531.332 330.968C530.596 330.968 530.572 330.92 530.386 329.069C530.2 327.216 530.177 327.171 529.436 327.171C528.696 327.171 528.673 327.125 528.486 325.272C528.3 323.419 528.277 323.373 527.537 323.373C526.796 323.373 526.773 323.327 526.587 321.474C526.401 319.628 526.375 319.575 525.647 319.575C524.947 319.575 524.887 319.484 524.727 318.151C524.633 317.368 524.555 316.147 524.554 315.439C524.551 314.2 524.521 314.15 523.769 314.15C522.993 314.15 522.985 314.133 522.796 312.116C522.607 310.093 522.601 310.081 521.815 310.081C521.041 310.081 521.024 310.049 521.021 308.657C521.02 307.874 520.942 306.592 520.848 305.809C520.688 304.479 520.627 304.385 519.933 304.385H519.189L518.993 300.723L518.797 297.061H518.011H517.224V293.708C517.224 291.864 517.147 289.788 517.052 289.096C516.892 287.932 516.821 287.838 516.102 287.838H515.325V267.9V247.962H516.101C516.835 247.962 516.887 247.885 517.048 246.538C517.143 245.755 517.221 243.619 517.222 241.791L517.224 238.468H518.001C518.72 238.468 518.792 238.374 518.951 237.21C519.046 236.518 519.124 235.236 519.124 234.361C519.124 232.789 519.132 232.772 519.91 232.772H520.697L520.893 229.11L521.089 225.448H521.843C522.577 225.448 522.602 225.398 522.788 223.549C522.973 221.703 522.999 221.65 523.727 221.65C524.428 221.65 524.487 221.559 524.647 220.226C524.741 219.443 524.819 218.161 524.82 217.378C524.823 215.988 524.842 215.954 525.61 215.954C526.384 215.954 526.399 215.925 526.587 214.055C526.773 212.202 526.796 212.156 527.537 212.156C528.277 212.156 528.3 212.11 528.486 210.257C528.672 208.407 528.697 208.358 529.432 208.358C530.161 208.358 530.194 208.298 530.376 206.595C530.56 204.88 530.586 204.832 531.341 204.832C532.042 204.832 532.125 204.734 532.202 203.815C532.278 202.886 532.363 202.79 533.168 202.713L534.05 202.628V200.882V199.136H535C535.927 199.136 535.949 199.11 535.949 198.051C535.949 196.991 535.972 196.966 536.899 196.966H537.849V195.202V193.439H538.799C539.703 193.439 539.749 193.394 539.749 192.49C539.749 191.586 539.794 191.54 540.698 191.54C541.626 191.54 541.648 191.515 541.648 190.455C541.648 189.396 541.671 189.37 542.598 189.37H543.548V187.607V185.844H544.498C545.402 185.844 545.448 185.799 545.448 184.894C545.448 183.99 545.493 183.945 546.397 183.945C547.302 183.945 547.347 183.9 547.347 182.996C547.347 182.092 547.393 182.046 548.297 182.046C549.202 182.046 549.247 182.001 549.247 181.097C549.247 180.193 549.292 180.147 550.197 180.147C551.101 180.147 551.146 180.102 551.146 179.198C551.146 178.294 551.192 178.249 552.096 178.249C553.001 178.249 553.046 178.203 553.046 177.299C553.046 176.395 553.091 176.35 553.996 176.35C554.9 176.35 554.946 176.304 554.946 175.4C554.946 174.496 554.991 174.451 555.896 174.451C556.765 174.451 556.845 174.384 556.845 173.654C556.845 172.954 556.952 172.848 557.727 172.773C558.498 172.699 558.62 172.579 558.693 171.826C558.775 170.978 558.805 170.961 560.525 170.777L562.273 170.59V169.672C562.273 168.807 562.327 168.754 563.206 168.754C564.059 168.754 564.146 168.68 564.223 167.873C564.301 167.068 564.397 166.984 565.326 166.907C566.245 166.831 566.344 166.748 566.344 166.047C566.344 165.293 566.393 165.266 568.093 165.084C569.809 164.9 569.843 164.881 569.924 164.045C569.997 163.303 570.121 163.183 570.889 163.109C571.657 163.035 571.771 162.924 571.771 162.255C571.771 161.502 571.811 161.481 573.671 161.295C575.525 161.109 575.57 161.086 575.57 160.345C575.57 159.605 575.616 159.582 577.47 159.396C579.341 159.208 579.37 159.194 579.37 158.419C579.37 157.701 579.453 157.633 580.32 157.633C581.224 157.633 581.269 157.587 581.269 156.683V155.734H583.169H585.069V154.785V153.835H586.968H588.868V152.886V151.936H590.323C591.123 151.936 592.344 151.859 593.036 151.764C594.201 151.604 594.296 151.533 594.296 150.814C594.296 150.048 594.317 150.038 595.886 150.038C596.761 150.038 598.043 149.96 598.735 149.865C599.9 149.705 599.995 149.634 599.995 148.916C599.995 148.149 600.015 148.139 601.585 148.139C602.46 148.139 603.742 148.061 604.434 147.966C605.595 147.807 605.693 147.734 605.693 147.026V146.258L608.611 146.181L611.528 146.104L611.613 145.223L611.698 144.341H617.108H622.519V143.392V142.442H640.565H658.612V143.392ZM628.218 202.957L630.185 202.864C634.021 202.681 647.172 202.665 650.021 202.839L652.913 203.016V203.788V204.561H655.318C656.64 204.561 658.289 204.638 658.981 204.733C660.146 204.893 660.24 204.964 660.24 205.683V206.46H662.276H664.311V207.409V208.358H666.211H668.11V209.308V210.257H670.01H671.91V211.207V212.156H673.674H675.438V213.089C675.438 213.971 675.493 214.027 676.455 214.106C677.384 214.183 677.48 214.267 677.558 215.072L677.643 215.954H679.39H681.136V216.903C681.136 217.807 681.182 217.853 682.086 217.853C682.991 217.853 683.036 217.898 683.036 218.802C683.036 219.706 683.081 219.751 683.986 219.751C684.89 219.751 684.936 219.797 684.936 220.701C684.936 221.605 684.981 221.65 685.886 221.65C686.79 221.65 686.835 221.696 686.835 222.6C686.835 223.504 686.881 223.549 687.785 223.549H688.735V225.312V227.075H689.685C690.612 227.075 690.635 227.101 690.635 228.16C690.635 229.22 690.657 229.246 691.585 229.246C692.489 229.246 692.534 229.291 692.534 230.195C692.534 231.065 692.601 231.144 693.332 231.144C694.121 231.144 694.132 231.165 694.317 233.043C694.499 234.886 694.526 234.942 695.246 234.942C695.924 234.942 696.004 235.052 696.161 236.201C696.256 236.893 696.334 238.113 696.334 238.913V240.367H639.751H583.169V239.57C583.169 238.87 583.275 238.764 584.051 238.689L584.933 238.604L585.013 236.789L585.093 234.975L585.963 234.89L586.833 234.806L586.913 232.975L586.993 231.144H587.931C588.843 231.144 588.868 231.116 588.868 230.059C588.868 229 588.891 228.974 589.818 228.974H590.768V227.211V225.448H591.717C592.622 225.448 592.667 225.403 592.667 224.498C592.667 223.594 592.713 223.549 593.617 223.549C594.518 223.549 594.567 223.501 594.567 222.617C594.567 221.763 594.642 221.677 595.449 221.6C596.225 221.525 596.341 221.408 596.416 220.633C596.494 219.826 596.58 219.751 597.434 219.751C598.318 219.751 598.366 219.703 598.366 218.802C598.366 217.898 598.412 217.853 599.316 217.853C600.221 217.853 600.266 217.807 600.266 216.903V215.954H602.03H603.794V215.004C603.794 214.1 603.839 214.055 604.744 214.055C605.648 214.055 605.693 214.01 605.693 213.106V212.156H607.593H609.493V211.207C609.493 210.28 609.518 210.257 610.578 210.257C611.592 210.257 611.664 210.206 611.664 209.48C611.664 208.762 611.758 208.69 612.923 208.531C613.615 208.436 614.836 208.358 615.637 208.358H617.091V207.409V206.46H618.991H620.891V205.684C620.891 204.95 620.969 204.898 622.315 204.737C623.099 204.642 624.748 204.564 625.979 204.563L628.218 204.561V203.759V202.957Z" fill="white" fill-opacity="0.7"/>
<path fill-rule="evenodd" clip-rule="evenodd" d="M581.269 1.91226C581.269 2.61266 581.376 2.71899 582.151 2.79385C582.957 2.87144 583.041 2.96719 583.118 3.89599C583.197 4.85787 583.253 4.91321 584.135 4.91321H585.069V64.3192V123.725H584.119H583.169V125.451V127.176L581.744 127.347C579.888 127.57 461.781 127.576 460.155 127.353L458.914 127.183L458.729 125.454C458.549 123.772 458.522 123.725 457.761 123.725H456.978V64.3192V4.91321H457.793C458.542 4.91321 458.607 4.8378 458.607 3.9638C458.607 3.05969 458.652 3.01439 459.556 3.01439C460.461 3.01439 460.506 2.96909 460.506 2.06498V1.11557H520.888H581.269V1.91226ZM513.154 20.9629C513.154 20.54 513.204 20.1434 513.267 20.0813C513.355 19.9926 524.841 19.9964 529.368 20.0862L530.25 20.1038V63.3698V106.636H529.436C528.687 106.636 528.622 106.711 528.622 107.585V108.535H521.024H513.425V107.585C513.425 106.681 513.38 106.636 512.475 106.636H511.525V64.1836V21.7314H512.339C513.052 21.7314 513.154 21.6359 513.154 20.9629Z" fill="white" fill-opacity="0.7"/>
<path fill-rule="evenodd" clip-rule="evenodd" d="M721.64 1.11421C722.621 1.11556 722.657 1.14893 722.657 2.06498C722.657 2.96909 722.703 3.01439 723.607 3.01439C724.512 3.01439 724.557 3.05969 724.557 3.9638C724.557 4.86791 724.602 4.91321 725.507 4.91321H726.457V64.1836V123.454H725.507H724.557V125.315V127.176L723.132 127.347C722.349 127.441 721.066 127.519 720.283 127.52C718.881 127.523 718.858 127.536 718.858 128.337V129.15H661.462H604.065V128.349V127.547L602.098 127.467L600.13 127.387L600.046 126.522C599.973 125.768 599.85 125.645 599.096 125.572L598.231 125.488L598.15 66.218C598.105 33.6193 598.146 6.06281 598.241 4.98103L598.413 3.01439H599.339C600.217 3.01439 600.266 2.96448 600.266 2.06552V1.11692L657.866 1.02958C689.546 0.981842 716.626 0.980751 718.044 1.02768C719.462 1.07433 721.08 1.1134 721.64 1.11421ZM652.136 22.0026C652.862 22.0026 652.913 21.9313 652.913 20.9138V19.8249L661.394 19.8965L669.874 19.9682L669.959 20.8498C670.034 21.6185 670.143 21.7314 670.818 21.7314C671.583 21.7314 671.594 21.7544 671.783 23.7658C671.972 25.7829 671.98 25.8003 672.755 25.8003C673.508 25.8003 673.538 25.8502 673.54 27.0887C673.541 27.7973 673.62 29.0179 673.714 29.8013C673.874 31.1338 673.933 31.2255 674.634 31.2255C675.362 31.2255 675.388 31.2781 675.573 33.1243C675.761 34.9946 675.776 35.0231 676.55 35.0231C677.318 35.0231 677.337 35.0573 677.34 36.4472C677.341 37.2306 677.419 38.5121 677.513 39.2955C677.673 40.6279 677.732 40.7196 678.433 40.7196C679.161 40.7196 679.187 40.7722 679.373 42.6184C679.56 44.4811 679.578 44.5172 680.338 44.5172C681.104 44.5172 681.112 44.5343 681.192 46.3482L681.272 48.1792L682.154 48.2641C683.027 48.3485 683.036 48.3634 683.036 49.7862C683.036 50.5764 683.114 51.7894 683.209 52.4814C683.368 53.6457 683.44 53.7401 684.159 53.7401H684.936V55.6389V57.5377H685.874H686.812L686.891 59.5044L686.971 61.471L687.853 61.5559L688.735 61.6411V64.3363V67.0318H689.685H690.635V68.9306V70.8295H691.585H692.534V72.7283V74.6271H693.312C694.03 74.6271 694.102 74.7215 694.261 75.8858C694.356 76.5778 694.434 77.8595 694.434 78.734V80.3236H695.384H696.334V82.2224V84.1212H697.283H698.233V86.8168V89.512L699.115 89.5972L699.997 89.6821L700.078 91.5131C700.157 93.327 700.165 93.3441 700.932 93.3441C701.691 93.3441 701.71 93.3802 701.897 95.2429C702.083 97.0986 702.105 97.1417 702.851 97.1417C703.603 97.1417 703.617 97.1718 703.805 99.1762C703.993 101.175 704.009 101.211 704.752 101.211C705.474 101.211 705.515 101.282 705.699 102.863C705.805 103.772 705.806 105.42 705.703 106.525L705.514 108.535H698.075H690.635V107.585C690.635 106.681 690.589 106.636 689.685 106.636H688.735V104.737V102.838H687.785H686.835V100.939V99.0406H686.058C685.339 99.0406 685.268 98.9462 685.108 97.7819C685.013 97.0899 684.936 95.8082 684.936 94.9337V93.3441H683.986H683.036V91.4453V89.5464H682.239C681.538 89.5464 681.432 89.4401 681.357 88.6648L681.272 87.7832H660.738C649.444 87.7832 640.13 87.8565 640.041 87.946C639.951 88.0355 639.8 89.2868 639.706 90.7264L639.534 93.3441H638.784C638.048 93.3441 638.03 93.3834 637.843 95.3785C637.654 97.3956 637.646 97.413 636.87 97.413C636.118 97.413 636.088 97.4629 636.085 98.7015C636.084 99.41 636.006 100.631 635.912 101.414C635.752 102.747 635.693 102.838 634.992 102.838C634.264 102.838 634.238 102.891 634.052 104.737L633.862 106.636H632.94C632.066 106.636 632.017 106.687 632.017 107.585V108.535H624.554H617.091V105.686V102.838H618.041H618.991V100.939V99.0406H619.768C620.487 99.0406 620.558 98.9462 620.718 97.7819C620.813 97.0899 620.891 95.8768 620.891 95.0867C620.891 93.6639 620.899 93.649 621.773 93.5646L622.655 93.4797L622.734 91.5131L622.814 89.5464H623.752H624.69V87.6476V85.7488H625.467C626.186 85.7488 626.257 85.6544 626.417 84.4901C626.512 83.7982 626.59 82.5775 626.59 81.7775C626.59 80.3542 626.606 80.3236 627.376 80.3236C628.151 80.3236 628.166 80.2951 628.354 78.4248C628.539 76.5786 628.565 76.5259 629.293 76.5259C629.994 76.5259 630.053 76.4343 630.213 75.1018C630.307 74.3184 630.385 73.037 630.386 72.2536L630.389 70.8295H631.339H632.288V68.9306V67.0318H633.075C633.85 67.0318 633.865 67.0033 634.052 65.133C634.24 63.2627 634.255 63.2342 635.03 63.2342C635.787 63.2342 635.816 63.1859 635.819 61.9457C635.82 61.2372 635.898 60.0165 635.992 59.2331C636.153 57.8925 636.208 57.809 636.928 57.809C637.689 57.809 637.693 57.7995 637.772 55.8423L637.852 53.8757L638.722 53.7916L639.591 53.7075L639.672 51.8928L639.751 50.0781L640.633 49.9932C641.49 49.9104 641.515 49.8722 641.518 48.6369C641.519 47.9375 641.597 46.7247 641.691 45.9413C641.853 44.5951 641.905 44.5172 642.639 44.5172H643.415V42.6184V40.7196H644.365H645.315V38.8208V36.9219H646.264H647.214V34.0737V31.2255H648.164H649.114V29.3266V27.4278H650.064H651.014V25.9739C651.014 25.1739 651.091 23.9532 651.186 23.2613C651.346 22.097 651.417 22.0026 652.136 22.0026Z" fill="white" fill-opacity="0.7"/>
<path fill-rule="evenodd" clip-rule="evenodd" d="M441.781 2.06498C441.781 2.96936 441.826 3.01439 442.732 3.01439H443.682L443.614 64.2514L443.545 125.488L442.679 125.572C441.925 125.645 441.802 125.768 441.729 126.522L441.646 127.387H380.45H319.254L319.169 126.506C319.091 125.699 319.005 125.624 318.152 125.624H317.219V64.3192V3.01439H318.169C319.073 3.01439 319.118 2.96909 319.118 2.06498V1.11557H380.45H441.781V2.06498ZM340.015 106.636V63.3698V20.1038H361.589H383.164V20.9176V21.7314L385.538 21.7338C386.844 21.7349 388.554 21.813 389.337 21.9071C390.679 22.0683 390.762 22.123 390.762 22.8422C390.762 23.6028 390.772 23.6068 392.73 23.6861L394.697 23.7658L394.782 24.6474L394.867 25.529H396.614H398.361V26.4784V27.4278H400.26H402.16V28.3772C402.16 29.2813 402.205 29.3266 403.11 29.3266C404.008 29.3266 404.06 29.3763 404.06 30.2446V31.1623L405.824 31.3511C407.549 31.5358 407.588 31.5572 407.588 32.3322C407.588 33.0567 407.669 33.1243 408.537 33.1243C409.442 33.1243 409.487 33.1696 409.487 34.0737C409.487 34.9716 409.537 35.0231 410.406 35.0231H411.324L411.511 36.7706C411.695 38.4898 411.712 38.5194 412.56 38.6016C413.343 38.6775 413.43 38.779 413.506 39.7023C413.582 40.6192 413.667 40.7196 414.361 40.7196C415.115 40.7196 415.135 40.7584 415.322 42.6184C415.507 44.4646 415.534 44.5172 416.261 44.5172C416.962 44.5172 417.021 44.6089 417.181 45.9413C417.276 46.7247 417.354 47.9454 417.355 48.6539C417.357 49.8931 417.387 49.9424 418.141 49.9424H418.924L419.121 53.7401L419.318 57.5377H420.101H420.885V64.1836V70.8295H420.101H419.318L419.121 74.6271L418.924 78.4248H418.141C417.387 78.4248 417.357 78.4741 417.355 79.7133C417.354 80.4218 417.276 81.636 417.183 82.4115C417.022 83.7483 416.97 83.8253 416.168 83.9034C415.404 83.9777 415.314 84.0841 415.238 85.0028C415.162 85.9197 415.077 86.0201 414.383 86.0201C413.629 86.0201 413.609 86.0589 413.422 87.9189C413.234 89.7892 413.22 89.8177 412.445 89.8177C411.752 89.8177 411.658 89.9145 411.658 90.6315C411.658 91.378 411.581 91.4453 410.725 91.4453C409.842 91.4453 409.787 91.5006 409.707 92.4625C409.631 93.3869 409.544 93.4873 408.757 93.5635C408.003 93.6365 407.88 93.7594 407.807 94.513C407.734 95.2703 407.613 95.3891 406.841 95.4634C406.066 95.5383 405.959 95.6446 405.959 96.345C405.959 97.0747 405.879 97.1417 405.01 97.1417C404.108 97.1417 404.06 97.1892 404.06 98.0749C404.06 98.957 404.004 99.0123 403.042 99.0921C402.113 99.1689 402.017 99.2529 401.939 100.058L401.854 100.939H400.108H398.361V101.889V102.838H396.461H394.561V103.788V104.737H391.712H388.863V105.686V106.636H382.214H375.565V107.585V108.535H358.74H341.914V107.585C341.914 106.681 341.869 106.636 340.964 106.636H340.015Z" fill="white" fill-opacity="0.7"/>
<path fill-rule="evenodd" clip-rule="evenodd" d="M300.393 2.06498C300.393 2.96909 300.439 3.01439 301.343 3.01439C302.248 3.01439 302.293 3.05969 302.293 3.9638C302.293 4.8378 302.358 4.91321 303.107 4.91321H303.921V64.3192V123.725H303.139C302.378 123.725 302.351 123.772 302.171 125.454L301.986 127.183L300.745 127.353C299.119 127.576 181.012 127.57 179.155 127.347C177.753 127.179 177.731 127.162 177.731 126.265C177.731 125.404 177.678 125.353 176.781 125.353H175.831V64.9974V4.64195H176.781C177.685 4.64195 177.731 4.59665 177.731 3.69254C177.731 2.78843 177.776 2.74313 178.68 2.74313C179.555 2.74313 179.63 2.67857 179.63 1.92934V1.11557H240.012H300.393V2.06498ZM206.225 20.1382L207.107 20.0531C207.592 20.0064 222.369 19.9682 239.944 19.9682H271.899V27.4956V35.0231H248.289H224.679V35.9725C224.679 36.8465 224.614 36.9219 223.865 36.9219H223.051V46.2427V55.5632L224.475 55.7344C225.259 55.8285 234.951 55.9066 246.013 55.9077L266.126 55.9102L266.299 57.1688C266.393 57.8608 266.471 61.2176 266.471 64.6285V70.8295H245.575H224.679V71.7789C224.679 72.6529 224.614 72.7283 223.865 72.7283H223.051V82.0697V91.4108L223.933 91.496C224.708 91.5706 224.825 91.6872 224.9 92.4625L224.985 93.3441H248.132C260.864 93.3441 271.847 93.4217 272.539 93.5166C273.704 93.6761 273.798 93.7475 273.798 94.466C273.798 95.1485 273.699 95.2429 272.984 95.2429H272.17V99.99V104.737H272.984C273.734 104.737 273.798 104.812 273.798 105.686C273.798 106.591 273.753 106.636 272.849 106.636C271.944 106.636 271.899 106.681 271.899 107.585V108.535H239.876H207.854V107.585C207.854 106.711 207.789 106.636 207.039 106.636H206.225V63.3869V20.1382Z" fill="white" fill-opacity="0.7"/>
<path fill-rule="evenodd" clip-rule="evenodd" d="M160.634 2.06498C160.634 2.96909 160.679 3.01439 161.584 3.01439H162.533V64.3192V125.624H161.719C161.001 125.624 160.905 125.717 160.905 126.415C160.905 127.2 160.891 127.207 158.938 127.377C157.856 127.472 130.226 127.513 97.5384 127.468L38.1066 127.387L38.0217 126.506C37.9468 125.73 37.8404 125.624 37.1397 125.624H36.3427V64.3192V3.01439H37.2925C38.197 3.01439 38.2423 2.96909 38.2423 2.06498V1.11557H99.438H160.634V2.06498ZM123.218 20.1114L131.681 20.0357C136.336 19.9942 140.541 19.9315 141.027 19.8963C141.866 19.8355 141.909 19.8786 141.909 20.7819C141.909 21.6559 141.973 21.7314 142.723 21.7314H143.537V64.1836V106.636H142.723C141.973 106.636 141.909 106.711 141.909 107.585V108.535H134.31H126.712V78.4248V48.3149H124.979H123.247L123.058 50.0781C122.874 51.7932 122.848 51.8412 122.093 51.8412C121.392 51.8412 121.309 51.9397 121.232 52.8585C121.156 53.7789 121.067 53.8836 120.296 53.9584C119.461 54.0396 119.441 54.0743 119.257 55.7894C119.075 57.4883 119.048 57.5377 118.294 57.5377C117.593 57.5377 117.509 57.6362 117.433 58.5549C117.356 59.4837 117.272 59.5795 116.467 59.6571L115.585 59.7422V61.4881V63.2342H114.651C113.769 63.2342 113.714 63.2895 113.634 64.2514C113.557 65.1802 113.473 65.276 112.668 65.3535L111.786 65.4387V67.1846V68.9306H110.863H109.941L109.75 70.8295C109.563 72.6998 109.548 72.7283 108.773 72.7283C108.055 72.7283 107.986 72.811 107.986 73.6777C107.986 74.5818 107.941 74.6271 107.037 74.6271H106.087V76.3903V78.1535H105.137C104.21 78.1535 104.187 78.1793 104.187 79.2385C104.187 80.2978 104.165 80.3236 103.237 80.3236H102.288V82.0868V83.85H101.338C100.41 83.85 100.388 83.8757 100.388 84.935C100.388 85.9943 100.365 86.0201 99.438 86.0201C98.5335 86.0201 98.4882 85.9748 98.4882 85.0706C98.4882 84.1665 98.4429 84.1212 97.5384 84.1212C96.6111 84.1212 96.5886 84.0955 96.5886 83.0362C96.5886 81.9769 96.5661 81.9512 95.6387 81.9512H94.6889V80.188V78.4248H93.7391C92.8346 78.4248 92.7893 78.3795 92.7893 77.4754C92.7893 76.6087 92.7206 76.5259 92.0026 76.5259C91.2278 76.5259 91.2131 76.4975 91.0253 74.6271L90.8345 72.7283H89.9124C89.0391 72.7283 88.99 72.6776 88.99 71.7789C88.99 70.9122 88.9213 70.8295 88.2033 70.8295C87.4285 70.8295 87.4138 70.801 87.226 68.9306C87.0393 67.0712 87.0193 67.0318 86.2659 67.0318C85.5961 67.0318 85.4854 66.9176 85.4113 66.1502C85.3372 65.3812 85.217 65.2581 84.4705 65.1856C83.6213 65.1032 83.6129 65.0877 83.4251 63.219C83.239 61.3652 83.2235 61.3354 82.4495 61.3354C81.7314 61.3354 81.6628 61.2526 81.6628 60.386C81.6628 59.4881 81.6131 59.4365 80.7445 59.4365H79.8264L79.6375 57.6734C79.4527 55.9489 79.4313 55.9102 78.6559 55.9102C77.9124 55.9102 77.8635 55.8434 77.8635 54.8251C77.8635 53.7658 77.841 53.7401 76.9137 53.7401H75.9639V51.9769V50.2137H75.0303C74.1478 50.2137 74.0924 50.1584 74.0126 49.1965C73.9359 48.2677 73.8517 48.1719 73.0465 48.0943L72.1646 48.0092V78.272V108.535H63.7896H55.4149L55.2436 107.111C55.0192 105.242 55.0159 22.999 55.2404 21.3624L55.413 20.1038H65.531H75.6493L75.8382 21.867L76.0271 23.6302H76.9452H77.8635V25.529V27.4278H78.8133C79.7178 27.4278 79.7631 27.4731 79.7631 28.3772C79.7631 29.2439 79.8318 29.3266 80.5499 29.3266C81.3247 29.3266 81.3393 29.3551 81.5271 31.2255L81.7179 33.1243H82.64C83.5133 33.1243 83.5624 33.175 83.5624 34.0737C83.5624 34.9404 83.6311 35.0231 84.3492 35.0231C85.1239 35.0231 85.1386 35.0516 85.3264 36.9219C85.5123 38.7722 85.5364 38.8208 86.2721 38.8208C87.0011 38.8208 87.0336 38.8815 87.216 40.584C87.3997 42.2991 87.4261 42.3471 88.181 42.3471C88.882 42.3471 88.9653 42.4456 89.0416 43.3644C89.1178 44.2861 89.206 44.3895 89.9816 44.4646C90.8307 44.5471 90.8392 44.5625 91.027 46.4312C91.212 48.2745 91.2327 48.3149 91.9855 48.3149C92.6552 48.3149 92.7659 48.4291 92.84 49.1965C92.9144 49.9687 93.0327 50.0884 93.795 50.1622L94.6648 50.2462L94.7448 52.061L94.8246 53.8757L95.6765 53.9584C96.5115 54.0396 96.5321 54.0759 96.7142 55.7737C96.8966 57.4767 96.9145 57.5079 97.7617 57.5898C98.5154 57.6628 98.6348 57.7846 98.7088 58.5549C98.7835 59.3267 98.8918 59.4365 99.5786 59.4365C100.358 59.4365 100.363 59.4254 100.443 57.6055L100.524 55.7745L101.406 55.6896C102.213 55.6118 102.288 55.5258 102.288 54.6724C102.288 53.7878 102.336 53.7401 103.237 53.7401H104.187V51.8412V49.9424H105.137H106.087V48.1792V46.416H107.037C107.964 46.416 107.986 46.3903 107.986 45.331C107.986 44.2717 108.009 44.246 108.936 44.246H109.886V42.4828V40.7196H110.836H111.786V38.8208V36.9219H112.736C113.64 36.9219 113.685 36.8766 113.685 35.9725C113.685 35.1059 113.754 35.0231 114.472 35.0231C115.247 35.0231 115.262 34.9946 115.449 33.1243L115.64 31.2255H116.562C117.436 31.2255 117.485 31.1747 117.485 30.276C117.485 29.4094 117.553 29.3266 118.271 29.3266C119.046 29.3266 119.061 29.2982 119.249 27.4278C119.435 25.5776 119.459 25.529 120.194 25.529C120.922 25.529 120.956 25.4671 121.137 23.7815C121.321 22.0623 121.338 22.0327 122.186 21.9505C122.938 21.8776 123.059 21.7555 123.133 20.9892L123.218 20.1114Z" fill="white" fill-opacity="0.7"/>
<path d="M379.415 35.9047L379.5 36.7863L382.417 36.8633L385.335 36.9404V37.7284C385.335 38.5056 385.361 38.5194 387.234 38.7038C389.088 38.8864 389.134 38.9092 389.134 39.6481C389.134 40.3797 389.193 40.4114 390.898 40.594L392.662 40.7828V41.7005C392.662 42.5688 392.713 42.6184 393.612 42.6184C394.516 42.6184 394.561 42.6637 394.561 43.5678C394.561 44.4719 394.607 44.5172 395.511 44.5172C396.416 44.5172 396.461 44.5625 396.461 45.4666C396.461 46.3707 396.506 46.416 397.411 46.416H398.361V48.1622V49.908L399.243 49.9932L400.125 50.0781L400.202 52.8585L400.279 55.6389H401.22H402.16V64.1836V72.7283H401.22H400.279L400.202 75.5087L400.125 78.2891L399.243 78.374C398.435 78.4519 398.361 78.5379 398.361 79.3913C398.361 80.2758 398.312 80.3236 397.411 80.3236H396.461V82.2224V84.1212H395.511C394.642 84.1212 394.561 84.1882 394.561 84.9179C394.561 85.6183 394.455 85.7247 393.68 85.7995C392.91 85.8736 392.787 85.9937 392.714 86.74C392.632 87.5887 392.616 87.5972 390.747 87.7849C388.909 87.9693 388.863 87.9929 388.863 88.7327C388.863 89.4729 388.817 89.496 386.963 89.6821C385.111 89.8679 385.063 89.8918 385.063 90.629V91.3853L379.296 91.5684C376.125 91.6691 369.805 91.713 365.253 91.6661L356.976 91.5809L356.906 63.302L356.837 35.0231H368.084H379.33L379.415 35.9047Z" fill="white" fill-opacity="0.7"/>
<path d="M662.411 41.669C662.411 42.5327 662.481 42.6184 663.188 42.6184C663.922 42.6184 663.974 42.6963 664.135 44.0425C664.229 44.8259 664.307 46.1073 664.309 46.8907C664.311 48.2853 664.328 48.3149 665.109 48.3149C665.898 48.3149 665.909 48.3358 666.094 50.2137C666.275 52.0561 666.303 52.1125 667.023 52.1125C667.7 52.1125 667.78 52.2226 667.938 53.3712C668.033 54.0632 668.11 55.2838 668.11 56.0838C668.11 57.5071 668.127 57.5377 668.897 57.5377C669.672 57.5377 669.687 57.5662 669.874 59.4365C670.06 61.2819 670.086 61.3354 670.813 61.3354C671.529 61.3354 671.568 61.4059 671.735 63.0028C671.831 63.9196 671.91 65.2014 671.91 65.851C671.91 66.973 671.949 67.0318 672.696 67.0318C673.471 67.0318 673.486 67.0603 673.674 68.9306C673.861 70.801 673.876 70.8295 674.651 70.8295C675.369 70.8295 675.438 70.9122 675.438 71.7789V72.7283H661.326H647.214V71.7789C647.214 70.8748 647.26 70.8295 648.164 70.8295H649.114V69.3755C649.114 68.5756 649.192 67.3549 649.286 66.6629C649.446 65.4987 649.517 65.4043 650.236 65.4043H651.014V63.3698V61.3354H651.963H652.913V59.4365V57.5377H653.863H654.813V54.8422V52.147L655.695 52.0618L656.577 51.9769L656.657 50.0102C656.736 48.0526 656.74 48.0436 657.502 48.0436C658.206 48.0436 658.281 47.944 658.44 46.785C658.535 46.093 658.612 44.8723 658.612 44.0724V42.6184H659.562C660.466 42.6184 660.512 42.5731 660.512 41.669C660.512 40.7649 660.557 40.7196 661.462 40.7196C662.366 40.7196 662.411 40.7649 662.411 41.669Z" fill="white" fill-opacity="0.7"/>
</svg>
