<svg width="1314" height="1064" viewBox="0 0 1314 1064" fill="none" xmlns="http://www.w3.org/2000/svg">
<path d="M365 1031.38L466 924.691L365 818" stroke="white" stroke-opacity="0.8" stroke-width="45" stroke-miterlimit="10" stroke-linecap="square" stroke-linejoin="round"/>
<path d="M477 1031.38L578 924.691L477 818" stroke="white" stroke-opacity="0.8" stroke-width="45" stroke-miterlimit="10" stroke-linecap="square" stroke-linejoin="round"/>
<path d="M589 1031.38L690 924.691L589 818" stroke="white" stroke-opacity="0.8" stroke-width="45" stroke-miterlimit="10" stroke-linecap="square" stroke-linejoin="round"/>
<path d="M701 1031.38L802 924.691L701 818" stroke="white" stroke-opacity="0.8" stroke-width="45" stroke-miterlimit="10" stroke-linecap="square" stroke-linejoin="round"/>
<g filter="url(#filter0_b_943_954)">
<path d="M585.573 15C438.302 15.0003 111.551 15 111.551 15L22.7257 105.015C17.7755 110.032 15 116.796 15 123.843V588.515C15 595.424 17.6683 602.067 22.448 607.057L314.292 911.737C319.348 917.015 326.34 920 333.65 920H1094.44C1101.76 920 1108.76 917.009 1113.82 911.72L1291.57 725.835C1296.34 720.847 1299 714.211 1299 707.309V261.038L1146.98 144.233C1142.29 140.634 1136.55 138.683 1130.64 138.683H728.473C728.473 138.683 726.746 138.683 585.573 15Z" fill="url(#paint0_linear_943_954)" fill-opacity="0.24"/>
<path d="M590.516 9.35879L588.394 7.49999L585.573 7.5C511.938 7.50017 393.432 7.50017 293.335 7.50013L164.907 7.50005L125.879 7.50001L115.256 7.5L112.493 7.5L111.788 7.5L111.61 7.5H111.566H111.555C111.552 7.5 111.551 7.5 111.551 15L111.551 7.5L108.415 7.5L106.212 9.7321L17.3872 99.7472C11.052 106.167 7.5 114.824 7.5 123.843V588.515C7.5 597.358 10.9148 605.859 17.0318 612.245L308.875 916.924C315.346 923.68 324.295 927.5 333.65 927.5H1094.44C1103.81 927.5 1112.76 923.672 1119.24 916.904L1296.99 731.019C1303.09 724.635 1306.5 716.142 1306.5 707.309V261.038V257.342L1303.57 255.091L1151.55 138.286C1145.55 133.68 1138.2 131.183 1130.64 131.183H731.038C730.943 131.107 730.844 131.026 730.74 130.941C728.44 129.064 723.865 125.244 714.837 117.523C696.794 102.093 661.097 71.1958 590.516 9.35879Z" stroke="url(#paint1_linear_943_954)" stroke-opacity="0.3" stroke-width="15"/>
</g>
<path d="M378.32 570.144H426.2C428.504 570.144 429.656 568.992 429.656 566.688V561.576C429.656 559.32 428.504 558.192 426.2 558.192H387.824C384.512 558.192 381.968 557.328 380.192 555.6C378.464 553.824 377.6 551.28 377.6 547.968V538.824C377.6 535.512 378.464 532.992 380.192 531.264C381.968 529.488 384.512 528.6 387.824 528.6H438.584V537.456H391.352C389.096 537.456 387.968 538.608 387.968 540.912V545.88C387.968 548.136 389.096 549.264 391.352 549.264H429.8C433.112 549.264 435.632 550.152 437.36 551.928C439.136 553.656 440.024 556.176 440.024 559.488V568.776C440.024 572.088 439.136 574.632 437.36 576.408C435.632 578.136 433.112 579 429.8 579H378.32V570.144ZM457.433 579C454.121 579 451.577 578.136 449.801 576.408C448.073 574.632 447.209 572.088 447.209 568.776V538.824C447.209 535.512 448.073 532.992 449.801 531.264C451.577 529.488 454.121 528.6 457.433 528.6H509.633V537.456H461.609C458.921 537.456 457.577 538.8 457.577 541.488V566.112C457.577 568.8 458.921 570.144 461.609 570.144H509.633V579H457.433ZM516.819 528.6H527.187V549.048H568.875V528.6H579.243V579H568.875V557.904H527.187V579H516.819V528.6ZM586.428 528.6H648.852V537.456H596.796V549.264H648.132V557.688H596.796V570.144H648.852V579H586.428V528.6ZM656.038 528.6H708.238C711.55 528.6 714.07 529.488 715.798 531.264C717.574 532.992 718.462 535.512 718.462 538.824V568.776C718.462 572.088 717.574 574.632 715.798 576.408C714.07 578.136 711.55 579 708.238 579H656.038V528.6ZM704.062 570.144C706.75 570.144 708.094 568.8 708.094 566.112V541.488C708.094 538.8 706.75 537.456 704.062 537.456H666.406V570.144H704.062ZM735.871 579C732.559 579 730.015 578.136 728.239 576.408C726.511 574.632 725.647 572.088 725.647 568.776V528.6H736.015V566.112C736.015 568.8 737.359 570.144 740.047 570.144H773.671C776.359 570.144 777.703 568.8 777.703 566.112V528.6H788.071V568.776C788.071 572.088 787.183 574.632 785.407 576.408C783.679 578.136 781.159 579 777.847 579H735.871ZM795.256 528.6H805.624V570.144H857.68V579H795.256V528.6ZM864.163 528.6H926.587V537.456H874.531V549.264H925.867V557.688H874.531V570.144H926.587V579H864.163V528.6ZM422.024 663.576C424.712 663.576 426.056 662.232 426.056 659.544V650.472H391.568C390.464 650.472 389.576 650.76 388.904 651.336C388.28 651.912 387.968 652.752 387.968 653.856V660.192C387.968 661.296 388.28 662.136 388.904 662.712C389.576 663.288 390.464 663.576 391.568 663.576H422.024ZM387.752 672C384.44 672 381.92 671.136 380.192 669.408C378.464 667.632 377.6 665.088 377.6 661.776V654.072C377.6 650.376 379.112 647.856 382.136 646.512V646.368C380.936 645.696 380 644.76 379.328 643.56C378.656 642.36 378.32 640.728 378.32 638.664V631.824C378.32 628.512 379.184 625.992 380.912 624.264C382.64 622.488 385.16 621.6 388.472 621.6H418.928V630.024H392.288C391.184 630.024 390.296 630.312 389.624 630.888C389 631.464 388.688 632.304 388.688 633.408V639.6C388.688 640.704 389 641.544 389.624 642.12C390.296 642.696 391.184 642.984 392.288 642.984H426.056V635.208H436.424V642.984H443.12V650.472H436.424V661.776C436.424 665.088 435.536 667.632 433.76 669.408C432.032 671.136 429.512 672 426.2 672H387.752ZM486.303 621.6H548.727V630.456H496.671V642.264H548.007V650.688H496.671V663.144H548.727V672H486.303V621.6ZM555.193 621.6H566.497L590.689 661.488H590.833L615.025 621.6H626.257L596.161 672H585.361L555.193 621.6ZM632.764 621.6H695.188V630.456H643.132V642.264H694.468V650.688H643.132V663.144H695.188V672H632.764V621.6ZM702.373 621.6H713.101L754.285 658.896H754.429V621.6H764.797V672H754.069L712.885 634.704H712.741V672H702.373V621.6ZM797.975 630.456H771.263V621.6H835.055V630.456H808.343V672H797.975V630.456ZM842.312 663.144H890.192C892.496 663.144 893.648 661.992 893.648 659.688V654.576C893.648 652.32 892.496 651.192 890.192 651.192H851.816C848.504 651.192 845.96 650.328 844.184 648.6C842.456 646.824 841.592 644.28 841.592 640.968V631.824C841.592 628.512 842.456 625.992 844.184 624.264C845.96 622.488 848.504 621.6 851.816 621.6H902.576V630.456H855.344C853.088 630.456 851.96 631.608 851.96 633.912V638.88C851.96 641.136 853.088 642.264 855.344 642.264H893.792C897.104 642.264 899.624 643.152 901.352 644.928C903.128 646.656 904.016 649.176 904.016 652.488V661.776C904.016 665.088 903.128 667.632 901.352 669.408C899.624 671.136 897.104 672 893.792 672H842.312V663.144Z" fill="white" fill-opacity="0.8"/>
<path opacity="0.8" d="M665 410.827L583 360V461.654L665 410.827Z" fill="white" stroke="white" stroke-width="14" stroke-miterlimit="10" stroke-linecap="round" stroke-linejoin="round"/>
<path d="M384 406H379V416H384V406ZM557 416C559.761 416 562 413.761 562 411C562 408.239 559.761 406 557 406V416ZM384 416H557V406H384V416Z" fill="#F1F9FF" fill-opacity="0.61"/>
<path d="M369 411V416H379V411H369ZM379 176C379 173.239 376.761 171 374 171C371.239 171 369 173.239 369 176H379ZM379 411V176H369V411H379Z" fill="#F1F9FF" fill-opacity="0.61"/>
<defs>
<filter id="filter0_b_943_954" x="-30" y="-30" width="1374" height="995" filterUnits="userSpaceOnUse" color-interpolation-filters="sRGB">
<feFlood flood-opacity="0" result="BackgroundImageFix"/>
<feGaussianBlur in="BackgroundImageFix" stdDeviation="15"/>
<feComposite in2="SourceAlpha" operator="in" result="effect1_backgroundBlur_943_954"/>
<feBlend mode="normal" in="SourceGraphic" in2="effect1_backgroundBlur_943_954" result="shape"/>
</filter>
<linearGradient id="paint0_linear_943_954" x1="657" y1="406.5" x2="201" y2="920" gradientUnits="userSpaceOnUse">
<stop/>
<stop offset="1" stop-opacity="0"/>
</linearGradient>
<linearGradient id="paint1_linear_943_954" x1="827.5" y1="263" x2="299" y2="722.5" gradientUnits="userSpaceOnUse">
<stop stop-color="white"/>
<stop offset="1" stop-color="white" stop-opacity="0"/>
</linearGradient>
</defs>
</svg>
