<svg width="856" height="860" viewBox="0 0 856 860" fill="none" xmlns="http://www.w3.org/2000/svg">
<path fill-rule="evenodd" clip-rule="evenodd" d="M354.549 486.416C357.613 480.03 363.371 475.486 370.19 474.074C376.321 472.803 383.678 474.954 388.606 479.459C398.088 488.125 398.044 502.571 388.508 511.286C384.393 515.047 380.008 516.712 374.164 516.732C367.764 516.754 363.657 515.044 359.052 510.44C354.401 505.788 352.744 501.764 352.708 495.032C352.686 490.913 352.922 489.808 354.549 486.416ZM360.526 500.878C357.678 493.734 360.839 485.553 367.783 482.092C372.706 479.639 379.084 480.337 383.319 483.793L385.091 485.239L381.208 485.2C375.686 485.145 371.208 486.701 368.348 489.669C365.802 492.312 362.954 497.296 362.924 499.162C362.914 499.814 362.524 500.852 362.057 501.469C361.245 502.541 361.179 502.515 360.526 500.878Z" fill="url(#paint0_linear_937_819)" fill-opacity="0.1"/>
<path d="M216.237 311.662C224.384 322.656 239.724 338.863 248.957 346.233C275.977 367.801 307.752 380.874 341.501 384.307C349.781 385.149 368.655 385.155 376.527 384.319C403.436 381.46 429.918 372.279 452.844 357.861C458.965 354.012 471.023 345.447 471.023 344.949C471.023 344.814 469.76 345.343 468.217 346.123C456.636 351.98 434.893 359.072 417.278 362.738C397.855 366.781 383.404 368.019 360.756 367.579C339.248 367.162 329.365 365.922 311.856 361.446C281.061 353.573 248.577 337.427 224.743 318.146C217.9 312.611 216.098 311.185 216.072 311.38L216.237 311.662Z" fill="url(#paint1_linear_937_819)" fill-opacity="0.1"/>
<path d="M325.735 48.059C290.831 50.6783 257.531 61.41 233.897 77.6556C222.315 85.6169 211.521 95.1592 208.087 100.472C205.146 105.023 198.342 118.461 195.509 125.317C192.937 131.54 191.972 133.922 192.736 132.93L196.07 127.485C205.125 112.161 220.211 97.0403 236.259 87.2003C243.733 82.6179 256.764 76.7172 266.675 73.4275C286.837 66.7361 305.358 63.776 330.755 63.1871C357.626 62.5641 384.269 65.2537 411.274 71.315C454.497 81.0168 487.948 97.9303 511.225 121.854C524.224 135.212 532.987 149.376 538.673 166.217C539.578 168.897 540.419 170.989 540.542 170.866C540.974 170.433 538.269 155.939 536.229 147.76C533.92 138.501 532.846 136.14 527.095 127.679C496.972 83.3591 439.635 54.8904 367.668 48.5214C358.951 47.7501 333.581 47.4701 325.735 48.059Z" fill="url(#paint2_linear_937_819)" fill-opacity="0.1"/>
<path d="M349.064 10.8565C315.083 13.9087 281.763 26.9923 254.863 47.8452C246.898 54.0193 231.912 67.7336 233.131 67.7336C233.336 67.7336 235.533 66.5341 238.012 65.0682C285.657 36.9002 355.545 31.2865 424.271 50.1077C458.991 59.6158 491.136 77.0816 513.103 98.3745C515.945 101.129 518.271 103.126 518.271 102.811C518.271 102.496 516.714 99.685 514.811 96.5643C485.388 48.3058 437.458 17.4954 382.205 11.3225C375.216 10.5411 355.634 10.2659 349.064 10.8565Z" fill="url(#paint3_linear_937_819)" fill-opacity="0.1"/>
<path d="M178.971 130.72C167.536 133.102 159.001 139.039 153.486 148.451C149.857 154.642 149.173 158.095 147.678 177.773L147.62 178.529L147.62 178.529C145.748 203.153 145.466 206.872 146.052 210.449C146.156 211.085 146.288 211.717 146.443 212.461L146.471 212.591C146.997 215.116 147.965 218.438 148.623 219.974C151.707 227.173 158.1 233.952 165.111 237.459C168.991 239.401 173.085 240.662 173.655 240.091C173.787 239.959 173.401 236.804 172.797 233.08C170.819 220.871 170.235 211.304 170.572 196.566C171.051 175.586 173.53 159.698 179.318 140.501C180.914 135.21 182.22 130.759 182.22 130.609C182.22 130.302 180.735 130.353 178.971 130.72Z" fill="url(#paint4_linear_937_819)" fill-opacity="0.1"/>
<path d="M548.614 156.471C549.655 160.31 551.393 175 551.883 184.082C552.963 204.128 550.858 226.082 545.995 245.504C544.532 251.343 541.745 260.544 540.403 263.96C539.874 265.306 541.867 265.339 546.779 264.067C555.224 261.878 562.349 256.772 567.523 249.201C572.034 242.599 573.046 238.746 574.348 223.237C577.227 188.926 577.267 187.514 575.574 180.89C574.035 174.874 571.308 169.877 567.117 165.391C563.064 161.052 559.545 158.684 554.121 156.642C549.081 154.745 548.138 154.716 548.614 156.471Z" fill="url(#paint5_linear_937_819)" fill-opacity="0.1"/>
<path d="M535.693 347.685C521.797 350.175 502.317 350.638 488.608 348.804L483.456 348.115L477.978 352.504C446.715 377.553 412.488 391.534 374.164 394.908C334.245 398.423 290.365 387.271 257.518 365.263C254.917 363.521 251.709 361.664 250.389 361.135C248.113 360.224 247.852 360.236 245.372 361.359C229.606 368.496 209.312 375.092 193.064 378.361C185.896 379.803 173.211 381.342 168.492 381.342C166.622 381.342 165.093 381.541 165.095 381.785C165.096 382.029 165.48 384.62 165.949 387.543C168.362 402.613 168.635 424.307 166.576 437.379C164.826 448.481 161.433 460.008 157.638 467.747C156.739 469.58 156.151 471.228 156.331 471.408C156.78 471.856 170.282 473.794 182.81 475.208C193.048 476.364 210.024 477.763 222.8 478.504L229.421 478.887L229.794 477.215C233.33 461.347 238.85 445.529 244.917 433.885C248.509 426.989 252.238 421.21 249.559 426.69C245.862 434.252 242.374 446.533 239.874 460.786C238.136 470.695 236.807 482.962 237.325 484.313C237.656 485.176 239.109 485.286 249.973 485.279C256.723 485.273 262.53 485.074 262.877 484.836C263.225 484.597 263.858 482.408 264.285 479.972C266.81 465.568 272.797 453.09 278.629 450.073C282.036 448.312 293.992 447.88 339.024 447.891C381.438 447.902 411.495 448.619 422.889 449.89C429.094 450.583 432.495 452.034 435.03 455.072C439.249 460.128 443.022 470.939 444.592 482.473C445.244 487.252 445.388 487.619 446.496 487.285C449.395 486.409 462.518 480.981 469.546 477.75C481.214 472.386 487.346 468.713 499.918 459.553C501.443 458.442 503.293 458.228 519.828 457.253L538.056 456.178L544.257 453.651C550.031 451.298 578.85 438.31 581.142 437.027C582.031 436.529 581.775 436.162 579.238 434.3C572.634 429.453 564.791 419.501 559.978 409.864C552.763 395.42 547.15 375.398 544.487 354.617C543.643 348.021 543.274 346.509 542.523 346.561C542.015 346.597 538.942 347.102 535.693 347.685Z" fill="url(#paint6_linear_937_819)" fill-opacity="0.1"/>
<path d="M634.028 292.048C628.964 294.105 626.078 296.505 613.459 309.153C602.215 320.423 600.071 322.294 594.518 325.673C582.551 332.955 569.564 338.809 556.181 342.953L550.092 344.839L550.468 348.177C555.119 389.51 568.387 419.931 586.567 430.949L589.692 432.843L600.503 427.264C623.107 415.6 640.707 404.737 653.83 394.347L657.981 391.061L656.698 386.349C655.991 383.757 653.627 374.993 651.444 366.872C648.475 355.834 646.978 351.287 645.51 348.859C643.001 344.709 641.154 339.122 640.707 334.33C640.359 330.608 640.323 330.544 637.672 328.991C636.196 328.126 633.842 326.362 632.441 325.07C630.406 323.194 629.894 322.322 629.894 320.73C629.894 318.369 631.626 316.376 633.677 316.376C634.458 316.376 636.234 317.325 637.623 318.486C642.092 322.22 644.443 323.145 649.24 323.06C654.279 322.971 657.511 321.592 658.796 318.983C660.691 315.137 659.25 306.444 655.252 297.603C653.763 294.311 653.252 293.747 650.74 292.616C646.755 290.823 637.794 290.518 634.028 292.048Z" fill="url(#paint7_linear_937_819)" fill-opacity="0.1"/>
<path d="M663.487 292.52C662.645 292.774 662.727 293.296 664.165 296.829C672.319 316.867 667.845 329.468 651.855 331.496L648.717 331.894L649.121 334.322C649.664 337.591 651.614 342.744 653.355 345.514C658.566 353.807 673.332 361.314 684.79 361.497L688.6 361.557L689.959 359.194C692.034 355.586 694.708 346.719 695.492 340.843C697.128 328.585 694.259 314.347 688.291 305.113C682.988 296.91 676.518 292.671 668.874 292.392C666.437 292.303 664.013 292.36 663.487 292.52Z" fill="url(#paint8_linear_937_819)" fill-opacity="0.1"/>
<path d="M64.4931 341.033C63.1831 343.633 62.8813 345.608 62.8648 351.671L62.8489 357.374L60.1551 361.696C53.4707 372.42 50.7339 385.134 53.1252 394.353C53.5859 396.129 53.8895 397.655 53.7997 397.745C53.3851 398.159 50.5219 390.52 49.8923 387.319C48.8463 382.002 49.4357 370.908 51.0829 364.926C51.8247 362.232 52.2452 359.841 52.0179 359.614C51.7905 359.386 46.7314 359.104 40.7758 358.986C16.537 358.506 9.49706 363.164 8.72397 380.193C8.49364 385.272 8.67435 387.351 9.70022 391.415C14.8219 411.701 32.8505 429.792 62.6232 444.52C83.1519 454.676 106.225 462.086 135.267 467.85C141.114 469.01 146.491 470.091 147.216 470.25C148.362 470.502 148.833 469.94 150.823 465.953C152.923 461.748 156.488 451.773 157.95 446.013C161.612 431.584 162.254 407.957 159.466 390.201C159.314 389.235 159.188 388.376 159.075 387.612C158.585 384.285 158.359 382.755 157.473 381.979C156.719 381.318 155.485 381.205 153.201 380.995C152.585 380.938 151.893 380.874 151.113 380.791C139.627 379.564 126.458 375.885 114.848 370.659C103.578 365.586 93.9977 359.661 79.8806 349.032C71.6913 342.866 66.6228 339.409 65.7711 339.409C65.5184 339.409 64.9431 340.14 64.4931 341.033Z" fill="url(#paint9_linear_937_819)" fill-opacity="0.1"/>
<path d="M491.398 518.398C483.773 523.552 471.038 529.368 455.962 534.582L447.103 537.646L446.693 542.556C445.566 556.039 439.106 566.417 428.793 571.315L424.238 573.479L412.047 574.061C392.724 574.984 309.214 574.927 300.635 573.985C286.737 572.459 281.475 570.389 275.639 564.15C270.159 558.293 264.947 546.697 263.939 538.124L263.56 534.898H251.734H239.908L240.301 553.649C241.65 617.941 247.092 676.954 253.726 699.231C256.922 709.964 268.486 732.729 282.901 756.668C293.186 773.747 294.616 775.856 295.91 775.859C299.931 775.866 319.721 769.952 330.644 765.477C353.873 755.964 373.032 742.021 382.717 727.585L385.268 723.782L383.049 719.259C377.006 706.943 374.394 692.333 374.851 673.406L375.087 663.648H368.557C353.451 663.648 338.038 660.185 321.386 653.049C315.331 650.455 304.337 644.744 303.037 643.517C302.225 642.751 303.134 642.113 304.017 642.83C305.112 643.719 319.831 649.14 326.031 650.936C340.796 655.216 356.273 657.093 367.701 655.991C382.879 654.528 396.054 650.087 409.157 642.018C412 640.267 414.325 639.124 414.325 639.477C414.325 640.865 409.936 646.618 406.158 650.182C401.363 654.706 394.3 658.956 388.499 660.809C386.152 661.558 384.225 662.393 384.218 662.663C384.189 663.746 388.597 671.799 392.151 677.157C403.116 693.686 419.085 706.772 436.473 713.474C449.752 718.592 460.214 720.011 481.358 719.562C498.4 719.2 508.938 718.167 521.971 715.58C526.767 714.628 530.798 713.849 530.928 713.849C531.059 713.849 531.701 711.524 532.355 708.682C539.472 677.774 537.144 648.912 525.517 623.908C522.61 617.656 521.849 617.918 520.591 625.602C518.854 636.223 514.761 646.402 508.691 655.206C504.795 660.857 503.75 661.611 506.162 657.032C512.429 645.134 514.9 630.437 513.043 616.105C512.707 613.506 512.268 606.464 512.069 600.454C511.11 571.515 505.676 541.82 497.561 521.164C496.445 518.325 495.4 516.003 495.237 516.003C495.075 516.003 493.347 517.08 491.398 518.398Z" fill="url(#paint10_linear_937_819)" fill-opacity="0.1"/>
<path d="M232.716 494.837C231.417 495.513 230.294 496.115 230.222 496.173C230.149 496.232 230.596 502.112 231.215 509.24L232.34 522.2L234.689 524.203L237.038 526.207L249.937 526.126L262.836 526.044L263.028 519.988C263.134 516.657 263.038 509.347 262.817 503.744L262.414 493.556L248.747 493.582C236.079 493.606 234.905 493.698 232.716 494.837Z" fill="url(#paint11_linear_937_819)" fill-opacity="0.1"/>
<path d="M288.232 456.953C285.309 457.188 282.518 457.55 282.029 457.757C279.453 458.851 275.52 468.539 272.888 480.269L271.319 487.266L271.553 511.525C271.817 539.043 272.083 541.029 276.818 550.824C281.235 559.96 286.35 563.576 296.796 564.947C303.851 565.873 322.394 566.778 334.447 566.785L344.634 566.79L344.627 563.985C344.623 562.442 344.926 553.523 345.3 544.165L345.98 527.151L343.978 525.049C342.248 523.232 331.403 514.063 316.433 501.762L312.152 498.244V477.296V456.348L302.85 456.437C297.733 456.486 291.156 456.718 288.232 456.953Z" fill="url(#paint12_linear_937_819)" fill-opacity="0.1"/>
<path fill-rule="evenodd" clip-rule="evenodd" d="M318.655 475.617L318.662 495.032L324.8 499.889C340.353 512.193 350.541 521.222 351.96 523.959C352.454 524.91 352.752 526.499 352.622 527.488C352.492 528.477 352.201 536.861 351.976 546.119C351.75 555.377 351.534 563.748 351.496 564.723L351.426 566.495L372.393 566.357C383.924 566.28 395.521 566.06 398.163 565.866C402.804 565.526 403.048 565.433 405.403 563.102C406.743 561.775 408.12 559.737 408.462 558.572C408.88 557.146 409.019 542.368 408.886 513.341C408.876 511.003 408.866 508.783 408.857 506.675V506.673C408.712 473.132 408.69 467.876 406.207 464.355C405.745 463.701 405.199 463.106 404.551 462.401C404.332 462.163 404.101 461.912 403.859 461.642C403.546 461.294 403.268 460.97 403.01 460.669L403.01 460.669C402.443 460.008 401.971 459.458 401.423 458.998C398.687 456.704 394.051 456.677 366.276 456.511C363.739 456.496 361.009 456.479 358.071 456.46L318.648 456.202L318.655 475.617ZM354.549 486.416C357.613 480.03 363.371 475.486 370.19 474.074C376.321 472.803 383.678 474.954 388.606 479.459C398.088 488.125 398.044 502.571 388.508 511.286C384.393 515.047 380.008 516.712 374.164 516.732C367.764 516.754 363.657 515.044 359.052 510.44C354.401 505.788 352.744 501.764 352.708 495.032C352.686 490.913 352.922 489.808 354.549 486.416Z" fill="url(#paint13_linear_937_819)" fill-opacity="0.1"/>
<path d="M411.096 459.814C411.928 461.072 413.161 463.53 413.836 465.277C415.723 470.165 416.253 485.7 415.883 525.272C415.574 558.349 415.516 559.74 414.353 562.147C413.688 563.523 413.144 564.732 413.144 564.834C413.144 564.936 415.203 565.016 417.721 565.012C423.484 565.005 427.08 563.448 430.96 559.278C435.351 554.558 437.248 549.96 438.273 541.542L438.651 538.441L434.313 538.432C429.473 538.423 427.351 537.634 426.344 535.471C425.928 534.575 425.377 526.208 424.92 513.812C424.316 497.427 424.318 493.439 424.929 492.702C425.806 491.645 428.56 490.871 433.443 490.309L436.91 489.909L436.515 485.894C435.46 475.185 430.912 461.704 427.63 459.553C426.243 458.644 418.153 457.578 412.397 457.545L409.584 457.529L411.096 459.814Z" fill="url(#paint14_linear_937_819)" fill-opacity="0.1"/>
<path d="M495.533 473.126C480.064 483.428 449.791 496.604 437.732 498.284L432.495 499.013L432.842 502.929C433.032 505.082 433.353 510.831 433.552 515.703C433.752 520.576 433.994 525.625 434.089 526.925L434.261 529.287L437.767 529.797C440.943 530.26 441.935 530.102 448.322 528.117C468.245 521.928 484.094 514.194 493.466 506.088C494.278 505.385 496.34 503.732 498.049 502.414C501.997 499.366 506.349 493.847 506.833 491.274C507.545 487.485 502.786 470.683 500.848 470.144C500.523 470.053 498.131 471.395 495.533 473.126Z" fill="url(#paint15_linear_937_819)" fill-opacity="0.1"/>
<path d="M533.577 464.839C533.442 464.962 528.016 465.389 521.519 465.788C515.022 466.187 509.66 466.554 509.603 466.604C509.546 466.654 510.728 470.28 512.228 474.662C514.776 482.099 514.96 483.043 514.99 488.831C515.021 494.639 514.914 495.219 513.302 497.985C512.356 499.609 509.496 503.086 506.945 505.711L502.309 510.485L504.059 514.345C510.55 528.66 517.125 557.049 519.182 579.636C519.396 581.99 519.771 583.917 520.014 583.917C520.984 583.917 528.239 577.928 531.905 574.1C536.705 569.088 539.735 564.578 541.393 559.975C544.331 551.826 543.192 525.158 538.027 481.153C536.101 464.735 536.078 464.616 534.84 464.616C534.281 464.616 533.713 464.717 533.577 464.839Z" fill="url(#paint16_linear_937_819)" fill-opacity="0.1"/>
<path d="M576.74 603.494C573.503 604.388 530.396 617.174 530.225 617.29C530.141 617.348 530.906 619.231 531.925 621.475C536.854 632.327 540.581 645.576 542.175 657.92C543.987 671.94 543.143 692.4 540.193 706.006C539.61 708.696 539.289 710.896 539.48 710.896C540.188 710.895 546.241 708.447 549.042 707.027L551.935 705.561L551.937 701.289C551.943 690.187 555.667 677.608 561.443 669.182C563.32 666.445 564.69 665.668 565.889 666.663C567.112 667.679 566.914 668.592 564.293 674.006C560.829 681.163 559.417 688.518 559.769 697.569C560.04 704.539 560.063 704.635 561.847 706.229C564.584 708.674 573.228 713.606 579.401 716.243C588.803 720.26 592.93 721.123 603.022 721.181C613.267 721.24 616.783 720.519 624.359 716.806C635.964 711.12 641.17 701.326 639.383 688.546C637.435 674.622 628.791 657.195 614.046 637.465C603.087 622.802 590.409 609.48 582.678 604.506C579.82 602.667 579.767 602.658 576.74 603.494Z" fill="url(#paint17_linear_937_819)" fill-opacity="0.1"/>
<path d="M386.272 734.377C382.941 738.964 374.213 747.564 368.052 752.33C352.464 764.39 332.43 773.68 308.388 779.999C303.556 781.269 299.497 782.414 299.367 782.544C299.237 782.673 300.696 785.161 302.607 788.072C305.644 792.697 306.45 793.523 309.002 794.621C313.349 796.491 320.64 797.232 327.44 796.497C334.039 795.783 344.007 793.526 351.004 791.161C356.165 789.417 357.357 789.435 357.938 791.267C358.459 792.905 357.844 793.55 354.25 795.139C342.227 800.457 328.769 803.719 318.648 803.771C312.757 803.8 310.504 803.511 305.582 802.093C304.828 801.875 304.295 802.862 303.091 806.705C300.781 814.078 300.148 818.934 300.495 826.601C300.844 834.296 302.374 839.756 305.733 845.299C308.597 850.024 311.17 851.108 319.534 851.111C327.515 851.113 333.29 849.974 344.634 846.16C367.825 838.363 389.084 825.865 403.435 811.594C411.038 804.033 414.325 798.587 414.325 793.553C414.325 785.886 409.824 771.342 403.378 758.179C398.758 748.745 389.632 731.695 389.013 731.341C388.804 731.221 387.571 732.588 386.272 734.377Z" fill="url(#paint18_linear_937_819)" fill-opacity="0.1"/>
<path d="M650.886 269.128C650.952 269.128 653.233 270.022 655.954 271.115C672.01 277.564 687.902 280.159 707.783 279.579C728.446 278.975 746.405 275.345 770.74 266.854C781.498 263.1 782.198 262.937 787.289 262.985C793.726 263.045 799.853 264.479 818.295 270.241C833.308 274.931 843.227 277.408 846.844 277.372C851.589 277.324 855.436 273.961 855.949 269.414C856.166 267.481 855.714 265.236 854.143 260.452C849.991 247.809 847.261 234.832 844.563 214.921C840.086 181.895 838.642 173.303 835.403 160.458C832.256 147.978 827.083 134.222 823.269 128.192C819.626 122.432 816.429 120.784 800.577 116.495C783.778 111.951 771.924 109.336 759.826 107.508C751.086 106.188 747.439 105.94 736.202 105.909C721.312 105.866 718.927 106.146 701.774 109.937C681.897 114.331 663.772 115.82 647.09 114.426C634.142 113.346 626.693 111.864 616.441 108.329L610.961 106.44L603.911 104.657C602.874 106.844 601.208 108.777 599.183 110.239L601.651 117.369C601.872 117.355 602.455 118.74 602.948 120.445C603.742 123.192 613.377 158.414 615.429 166.068C615.864 167.693 621.306 187.625 627.522 210.363C634.412 235.568 639.413 253.898 642.587 265.584L650.886 269.128Z" fill="url(#paint19_linear_937_819)" fill-opacity="0.1"/>
<path fill-rule="evenodd" clip-rule="evenodd" d="M236.259 87.2003C220.211 97.0403 205.125 112.161 196.07 127.485C194.317 130.453 193.218 132.297 192.747 132.915L192.736 132.93C190.072 137.28 188.077 142.005 186.819 146.948L184.583 155.733L182.22 174.041L180.744 196.566V221.585L184.435 241.569C185.75 248.694 187.837 255.655 190.656 262.329L195.509 273.814L205.549 293.343L216.072 311.38C216.098 311.185 217.9 312.611 224.743 318.146C248.577 337.427 281.061 353.573 311.856 361.446C329.365 365.922 339.248 367.162 360.756 367.579C383.404 368.019 397.855 366.781 417.278 362.738C434.893 359.072 456.636 351.98 468.217 346.123C469.76 345.343 471.023 344.814 471.023 344.949L477.284 340.136C482.547 336.09 487.394 331.529 491.753 326.523L497.746 319.641L510.334 301.324L517.184 289.527C520.273 284.207 522.864 278.614 524.925 272.818L529.493 259.974L536.229 236.564L540.403 212.726L541.305 192.645L540.542 170.866C540.419 170.989 539.578 168.897 538.673 166.217C532.987 149.376 524.224 135.212 511.225 121.854C487.948 97.9303 454.497 81.0168 411.274 71.315C384.269 65.2537 357.626 62.5641 330.755 63.1871C305.358 63.776 286.837 66.7361 266.675 73.4275C256.764 76.7172 243.733 82.6179 236.259 87.2003ZM260.179 107.714C280.206 98.0668 302.271 92.4903 330.46 89.9513C336.443 89.4127 361.065 90.1238 366.487 90.992C372.233 91.9115 375.937 92.9463 375.935 93.6302C375.934 93.8422 372.679 94.6011 368.7 95.3175C350.236 98.642 326.624 107.016 308.903 116.523C297.102 122.855 290.249 127.392 281.44 134.706C265.893 147.614 258.703 156.21 245.576 177.585C243.282 181.321 240.807 185.44 240.077 186.739C230.881 203.108 228.354 207.791 224.546 215.518C219.49 225.777 216.014 233.525 213.227 240.743C210.982 246.557 210.966 246.532 210.023 235.464C206.802 197.694 211.386 164.907 222.965 142.883C227.408 134.432 230.942 129.504 236.791 123.605C243.226 117.115 249.472 112.87 260.179 107.714ZM473.958 195.375C478.652 189.044 484.158 185.061 490.363 183.509C494.486 182.478 503.599 184.269 502.584 185.911C502.408 186.197 502.62 186.293 503.056 186.126C503.962 185.779 506.634 188.097 508.969 191.256C509.844 192.44 511.283 195.497 512.167 198.048C513.596 202.172 513.769 203.502 513.733 210.068C513.698 216.399 513.464 218.166 512.09 222.471C510.337 227.963 507.683 233.692 506.891 233.692C506.615 233.692 506.537 233.931 506.717 234.222C506.898 234.514 506.283 235.568 505.353 236.564C504.422 237.56 503.77 238.485 503.904 238.619C504.441 239.156 496.592 245.616 493.797 246.937C478.232 254.298 465.123 243.285 465.028 222.766C464.98 212.656 467.991 203.423 473.958 195.375ZM438.833 283.787C437.653 275.923 443.061 267.203 450.434 265.081C453.65 264.156 455.264 264.317 458.357 265.873C466.37 269.906 467.264 281.788 460.146 289.667C452.405 298.235 440.507 294.953 438.833 283.787Z" fill="url(#paint20_linear_937_819)" fill-opacity="0.1"/>
<path d="M330.46 89.9513C302.271 92.4903 280.206 98.0668 260.179 107.714C249.472 112.87 243.226 117.115 236.791 123.605C230.942 129.504 227.408 134.432 222.965 142.883C211.386 164.907 206.802 197.694 210.023 235.464C210.966 246.532 210.982 246.557 213.227 240.743C216.014 233.525 219.49 225.777 224.546 215.518C228.354 207.791 230.881 203.108 240.077 186.739C240.807 185.44 243.282 181.321 245.576 177.585C258.703 156.21 265.893 147.614 281.44 134.706C290.249 127.392 297.102 122.855 308.903 116.523C326.624 107.016 350.236 98.642 368.7 95.3175C372.679 94.6011 375.934 93.8422 375.935 93.6302C375.937 92.9463 372.233 91.9115 366.487 90.992C361.065 90.1238 336.443 89.4127 330.46 89.9513Z" fill="url(#paint21_linear_937_819)" fill-opacity="0.1"/>
<path d="M490.363 183.509C484.158 185.061 478.652 189.044 473.958 195.375C467.991 203.423 464.98 212.656 465.028 222.766C465.123 243.285 478.232 254.298 493.797 246.937C496.592 245.616 504.441 239.156 503.904 238.619C503.77 238.485 504.422 237.56 505.353 236.564C506.283 235.568 506.898 234.514 506.717 234.222C506.537 233.931 506.615 233.692 506.891 233.692C507.683 233.692 510.337 227.963 512.09 222.471C513.464 218.166 513.698 216.399 513.733 210.068C513.769 203.502 513.596 202.172 512.167 198.048C511.283 195.497 509.844 192.44 508.969 191.256C506.634 188.097 503.962 185.779 503.056 186.126C502.62 186.293 502.408 186.197 502.584 185.911C503.599 184.269 494.486 182.478 490.363 183.509Z" fill="url(#paint22_linear_937_819)" fill-opacity="0.1"/>
<path d="M450.434 265.081C443.061 267.203 437.653 275.923 438.833 283.787C440.507 294.953 452.405 298.235 460.146 289.667C467.264 281.788 466.37 269.906 458.357 265.873C455.264 264.317 453.65 264.156 450.434 265.081Z" fill="url(#paint23_linear_937_819)" fill-opacity="0.1"/>
<path d="M367.783 482.092C360.839 485.553 357.678 493.734 360.526 500.878C361.179 502.515 361.245 502.541 362.057 501.469C362.524 500.852 362.914 499.814 362.924 499.162C362.954 497.296 365.802 492.312 368.348 489.669C371.208 486.701 375.686 485.145 381.208 485.2L385.091 485.239L383.319 483.793C379.084 480.337 372.706 479.639 367.783 482.092Z" fill="url(#paint24_linear_937_819)" fill-opacity="0.1"/>
<path fill-rule="evenodd" clip-rule="evenodd" d="M354.549 486.416C357.613 480.03 363.371 475.486 370.19 474.074C376.321 472.803 383.678 474.954 388.606 479.459C398.088 488.125 398.044 502.571 388.508 511.286C384.393 515.047 380.008 516.712 374.164 516.732C367.764 516.754 363.657 515.044 359.052 510.44C354.401 505.788 352.744 501.764 352.708 495.032C352.686 490.913 352.922 489.808 354.549 486.416ZM360.526 500.878C357.678 493.734 360.839 485.553 367.783 482.092C372.706 479.639 379.084 480.337 383.319 483.793L385.091 485.239L381.208 485.2C375.686 485.145 371.208 486.701 368.348 489.669C365.802 492.312 362.954 497.296 362.924 499.162C362.914 499.814 362.524 500.852 362.057 501.469C361.245 502.541 361.179 502.515 360.526 500.878Z" fill="url(#paint25_linear_937_819)"/>
<path fill-rule="evenodd" clip-rule="evenodd" d="M350.602 0.467257C289.204 4.88022 232.372 40.276 199.739 94.4257C195.561 101.36 189.385 113.135 187.333 118.082L186.414 120.297H182.362C176.663 120.297 169.239 122.31 163.087 125.525C151.145 131.765 142.08 143.816 139.404 157.007C138.393 161.991 135.557 198.475 135.572 206.302C135.597 218.798 139.856 229.014 148.851 238.157C156.209 245.635 163.605 249.343 174.689 251.111C176.023 251.323 176.904 251.792 176.904 252.288C176.904 253.865 181.125 267.025 183.808 273.814C195.257 302.783 212.745 327.903 236.098 348.928L241.252 353.568L239.641 354.399C234.624 356.991 215.31 363.845 205.482 366.522C189.544 370.862 177.168 372.672 163.32 372.69C145.799 372.711 131.831 369.344 114.392 360.895C104.861 356.277 97.7362 351.719 84.4754 341.755C72.3445 332.64 69.6927 331.141 65.7056 331.141C59.1192 331.141 55.3648 336.426 54.3041 347.191L53.9078 351.211L51.4739 350.773C50.135 350.533 43.857 350.342 37.5228 350.35C27.3633 350.363 25.4574 350.522 21.351 351.698C9.53664 355.083 4.49941 359.899 1.12296 371.037C-0.481701 376.331 -0.347649 387.186 1.40348 393.704C8.42452 419.839 31.6989 441.15 72.0728 458.41C105.695 472.785 160.484 483.572 215.589 486.666L228.582 487.396L225.458 489.021C223.547 490.015 222.116 491.22 221.773 492.124C221.12 493.84 223.707 524.694 224.652 526.459C224.969 527.052 226.542 528.645 228.148 529.999L231.068 532.46L231.474 548.887C233.21 619.021 238.064 673.42 244.876 699.084C247.55 709.158 252.783 720.72 263.545 740.332C271.368 754.585 286.053 778.725 295.07 792.151L297.878 796.332L296.705 798.943C293.229 806.679 291.091 818.765 291.669 827.418C292.337 837.436 296.065 847.859 300.973 853.435C307.208 860.518 320.143 861.767 338.521 857.058C366.021 850.014 401.167 829.36 414.631 812.332C423.719 800.839 424.795 795.122 420.796 779.591C417.744 767.742 411.396 753.353 401.193 735.165C387.787 711.265 384.716 702.596 383.81 686.091L383.469 679.89L385.984 683.433C400.428 703.797 420.333 718.262 442.464 724.477C453.909 727.691 459.662 728.316 477.224 728.253C509.494 728.138 536.829 723.229 553.056 714.635C554.485 713.878 555.84 713.259 556.067 713.259C556.293 713.259 558.579 714.664 561.146 716.382C575.477 725.974 591.477 730.895 605.975 730.173C627.127 729.119 643.13 718.311 647.312 702.255C648.445 697.905 648.443 688.798 647.307 683.437C644.292 669.201 635.314 651.666 621.473 632.976C608.873 615.964 593.364 600.259 584.956 595.998C584.856 595.948 584.759 595.898 584.663 595.849C583.913 595.467 583.283 595.147 582.621 594.917C579.168 593.72 574.853 595.008 548.009 603.021L546.002 603.62C534.455 607.066 524.195 610.048 523.202 610.246C521.481 610.591 521.379 610.501 521.021 608.336C520.815 607.087 520.66 603.274 520.678 599.864L520.71 593.662L525.747 590.414C537.286 582.974 546.049 572.601 549.657 562.115C552.932 552.594 552.189 530.173 547.12 485.583C546.123 476.812 545.27 468.086 545.225 466.19L545.143 462.743L556.364 457.869C598.384 439.619 636.357 418.945 656.167 403.531C658.435 401.766 660.35 400.379 660.421 400.451C660.561 400.591 672.661 444.736 673.88 449.556C674.641 452.564 685.099 490.884 689.836 508.025C691.273 513.223 694.981 526.717 698.076 538.013C701.171 549.309 704.098 559.313 704.58 560.245C705.723 562.455 708.68 565.389 711.016 566.629C712.103 567.206 714.267 567.624 716.232 567.636C719.036 567.653 720.012 567.361 722.138 565.868C725.401 563.577 727.374 560 727.768 555.662C727.781 555.511 727.797 555.376 727.811 555.246C727.821 555.163 727.83 555.082 727.838 555.001C728.123 552.228 727.335 549.344 699.467 447.341C698.2 442.702 696.877 437.859 695.495 432.801L681.882 382.973L685.997 378.565C694.432 369.535 699.923 360.654 702.542 351.812C704.171 346.31 704.837 330.866 703.762 323.515C702.856 317.319 700.092 308.926 697.036 303.095C693.898 297.104 686.768 289.721 681.433 286.936C674.551 283.344 666.899 282.589 659.612 284.781C657.905 285.295 656.505 285.413 655.927 285.09C655.363 284.775 654.158 281.516 652.879 276.849C651.716 272.602 650.819 269.128 650.886 269.128L642.587 265.584C645.102 274.848 646.47 279.936 646.721 280.964L647.087 282.464L641.444 282.44L635.802 282.416L635.242 280.645C634.746 279.073 623.628 238.492 621.408 230.148C620.932 228.362 619.84 224.375 618.981 221.289C618.122 218.204 616.535 212.357 615.453 208.296C614.371 204.236 611.22 192.675 608.451 182.605C605.681 172.535 600.853 154.862 597.722 143.33C594.59 131.799 591.901 121.925 591.745 121.389C591.52 120.613 592.04 120.332 594.289 120.015C595.844 119.797 598.046 119.117 599.183 118.506C600.32 117.894 601.431 117.382 601.651 117.369L599.183 110.239C596.161 112.421 592.339 113.554 588.608 112.924C585.059 112.324 580.815 109.197 578.968 105.82C574.844 98.2758 578.628 88.3236 586.585 85.7864C595.902 82.8157 605.125 89.7535 605.076 99.6945C605.067 101.426 604.647 103.105 603.911 104.657L610.961 106.44L611.421 104.657C611.674 103.676 611.862 100.837 611.838 98.3467C611.803 94.4919 611.514 93.2451 609.897 89.9614C604.645 79.2934 592.007 75.0895 581.379 80.4752C566.762 87.8819 566.345 109.362 580.66 117.441C582.401 118.424 583.827 119.324 583.827 119.439C583.827 119.556 592.484 151.356 603.065 190.108C626.221 274.917 628.707 284.076 628.71 284.575C628.712 284.788 627.318 285.752 625.612 286.717C622.055 288.732 610.85 298.998 602.168 308.198C595.482 315.284 591.205 318.294 579.363 324.253C563.408 332.281 549.055 336.841 531.559 339.44L523.881 340.58L522.861 339.257C522.3 338.529 521.834 337.714 521.827 337.446C521.804 336.554 516.406 328.54 513.07 324.443C510.742 321.583 509.943 320.18 510.334 319.641C515.169 312.984 519.639 306.383 522.736 301.324C526.296 295.508 533.988 280.838 535.311 277.338C535.853 275.906 536.223 275.775 540.813 275.394C555.815 274.149 567.957 267.174 575.839 255.275C581.987 245.994 583.427 240.847 584.701 223.595C585.191 216.967 585.985 206.4 586.466 200.112C587.419 187.662 587.132 183.178 584.917 175.889C582.706 168.614 577.267 160.151 571.585 155.144C565.778 150.028 556.032 145.531 548.922 144.69C546.116 144.357 546.012 144.275 545.415 141.919C544.076 136.632 538.773 121.613 535.941 115.087C526.038 92.2671 512.662 72.6958 494.677 54.7103C484.823 44.8567 478.084 39.2112 467.774 32.173C433.458 8.74451 391.898 -2.5011 350.602 0.467257ZM254.863 47.8452C281.763 26.9923 315.083 13.9087 349.064 10.8565C355.634 10.2659 375.216 10.5411 382.205 11.3225C437.458 17.4954 485.388 48.3058 514.811 96.5643C516.714 99.685 518.271 102.496 518.271 102.811C518.271 103.126 515.945 101.129 513.103 98.3745C491.136 77.0816 458.991 59.6158 424.271 50.1077C355.545 31.2865 285.657 36.9002 238.012 65.0682C235.533 66.5341 233.336 67.7336 233.131 67.7336C231.912 67.7336 246.898 54.0193 254.863 47.8452ZM233.897 77.6556C257.531 61.41 290.831 50.6783 325.735 48.059C333.581 47.4701 358.951 47.7501 367.668 48.5214C439.635 54.8904 496.972 83.3591 527.095 127.679C532.846 136.14 533.92 138.501 536.229 147.76C538.269 155.939 540.974 170.433 540.542 170.866L541.305 192.645L540.403 212.726L536.229 236.564L529.493 259.974L524.925 272.818C522.864 278.614 520.273 284.207 517.184 289.527L510.334 301.324L497.746 319.641L491.753 326.523C487.394 331.529 482.547 336.09 477.284 340.136L471.023 344.949C471.023 345.447 458.965 354.012 452.844 357.861C429.918 372.279 403.436 381.46 376.527 384.319C368.655 385.155 349.781 385.149 341.501 384.307C307.752 380.874 275.977 367.801 248.957 346.233C239.724 338.863 224.384 322.656 216.237 311.662C216.13 311.518 216.067 311.418 216.072 311.38L205.549 293.343L195.509 273.814L190.656 262.329C187.837 255.655 185.75 248.694 184.435 241.569L180.744 221.585V196.566L182.22 174.041L184.583 155.733L186.819 146.948C188.077 142.005 190.072 137.28 192.736 132.93C191.972 133.922 192.937 131.54 195.509 125.317C198.342 118.461 205.146 105.023 208.087 100.472C211.521 95.1592 222.315 85.6169 233.897 77.6556ZM153.486 148.451C159.001 139.039 167.536 133.102 178.971 130.72C180.735 130.353 182.22 130.302 182.22 130.609C182.22 130.759 180.914 135.21 179.318 140.501C173.53 159.698 171.051 175.586 170.572 196.566C170.235 211.304 170.819 220.871 172.797 233.08C173.401 236.804 173.787 239.959 173.655 240.091C173.085 240.662 168.991 239.401 165.111 237.459C158.1 233.952 151.707 227.173 148.623 219.974C147.965 218.438 146.997 215.116 146.471 212.591L146.443 212.461C146.288 211.717 146.156 211.085 146.052 210.449C145.466 206.872 145.748 203.153 147.62 178.529L147.678 177.773C149.173 158.095 149.857 154.642 153.486 148.451ZM551.883 184.082C551.393 175 549.655 160.31 548.614 156.471C548.138 154.716 549.081 154.745 554.121 156.642C559.545 158.684 563.064 161.052 567.117 165.391C571.308 169.877 574.035 174.874 575.574 180.89C577.267 187.514 577.227 188.926 574.348 223.237C573.046 238.746 572.034 242.599 567.523 249.201C562.349 256.772 555.224 261.878 546.779 264.067C541.867 265.339 539.874 265.306 540.403 263.96C541.745 260.544 544.532 251.343 545.995 245.504C550.858 226.082 552.963 204.128 551.883 184.082ZM613.459 309.153C626.078 296.505 628.964 294.105 634.028 292.048C637.794 290.518 646.755 290.823 650.74 292.616C653.252 293.747 653.763 294.311 655.252 297.603C659.25 306.444 660.691 315.137 658.796 318.983C657.511 321.592 654.279 322.971 649.24 323.06C644.443 323.145 642.092 322.22 637.623 318.486C636.234 317.325 634.458 316.376 633.677 316.376C631.626 316.376 629.894 318.369 629.894 320.73C629.894 322.322 630.406 323.194 632.441 325.07C633.842 326.362 636.196 328.126 637.672 328.991C640.323 330.544 640.359 330.608 640.707 334.33C641.154 339.122 643.001 344.709 645.51 348.859C646.978 351.287 648.475 355.834 651.444 366.872C653.627 374.993 655.991 383.757 656.698 386.349L657.981 391.061L653.83 394.347C640.707 404.737 623.107 415.6 600.503 427.264L589.692 432.843L586.567 430.949C568.387 419.931 555.119 389.51 550.468 348.177L550.092 344.839L556.181 342.953C569.564 338.809 582.551 332.955 594.518 325.673C600.071 322.294 602.215 320.423 613.459 309.153ZM664.165 296.829C662.727 293.296 662.645 292.774 663.487 292.52C664.013 292.36 666.437 292.303 668.874 292.392C676.518 292.671 682.988 296.91 688.291 305.113C694.259 314.347 697.128 328.585 695.492 340.843C694.708 346.719 692.034 355.586 689.959 359.194L688.6 361.557L684.79 361.497C673.332 361.314 658.566 353.807 653.355 345.514C651.614 342.744 649.664 337.591 649.121 334.322L648.717 331.894L651.855 331.496C667.845 329.468 672.319 316.867 664.165 296.829ZM491.69 340.505L497.746 334.051C501.076 330.502 503.954 327.598 504.141 327.597C504.802 327.597 506.994 330.316 510.57 335.57L514.189 340.886L506.042 341.067C501.561 341.166 496.499 341.081 494.793 340.876L491.69 340.505ZM62.8648 351.671C62.8813 345.608 63.1831 343.633 64.4931 341.033C64.9431 340.14 65.5184 339.409 65.7711 339.409C66.6228 339.409 71.6913 342.866 79.8806 349.032C93.9977 359.661 103.578 365.586 114.848 370.659C126.458 375.885 139.627 379.564 151.113 380.791C151.893 380.874 152.585 380.938 153.201 380.995C155.485 381.205 156.719 381.318 157.473 381.979C158.359 382.755 158.585 384.285 159.075 387.612C159.188 388.376 159.314 389.235 159.466 390.201C162.254 407.957 161.612 431.584 157.95 446.013C156.488 451.773 152.923 461.748 150.823 465.953C148.833 469.94 148.362 470.502 147.216 470.25C146.491 470.091 141.114 469.01 135.267 467.85C106.225 462.086 83.1519 454.676 62.6232 444.52C32.8505 429.792 14.8219 411.701 9.70022 391.415C8.67435 387.351 8.49364 385.272 8.72397 380.193C9.49706 363.164 16.537 358.506 40.7758 358.986C46.7314 359.104 51.7905 359.386 52.0179 359.614C52.2452 359.841 51.8247 362.232 51.0829 364.926C49.4357 370.908 48.8463 382.002 49.8923 387.319C50.5219 390.52 53.3851 398.159 53.7997 397.745C53.8895 397.655 53.5859 396.129 53.1252 394.353C50.7339 385.134 53.4707 372.42 60.1551 361.696L62.8489 357.374L62.8648 351.671ZM488.608 348.804C502.317 350.638 521.797 350.175 535.693 347.685C538.942 347.102 542.015 346.597 542.523 346.561C543.274 346.509 543.643 348.021 544.487 354.617C547.15 375.398 552.763 395.42 559.978 409.864C564.791 419.501 572.634 429.453 579.238 434.3C581.775 436.162 582.031 436.529 581.142 437.027C578.85 438.31 550.031 451.298 544.257 453.651L538.056 456.178L519.828 457.253C503.293 458.228 501.443 458.442 499.918 459.553C487.346 468.713 481.214 472.386 469.546 477.75C462.518 480.981 449.395 486.409 446.496 487.285C445.388 487.619 445.244 487.252 444.592 482.473C443.022 470.939 439.249 460.128 435.03 455.072C432.495 452.034 429.094 450.583 422.889 449.89C411.495 448.619 381.438 447.902 339.024 447.891C293.992 447.88 282.036 448.312 278.629 450.073C272.797 453.09 266.81 465.568 264.285 479.972C263.858 482.408 263.225 484.597 262.877 484.836C262.53 485.074 256.723 485.273 249.973 485.279C239.109 485.286 237.656 485.176 237.325 484.313C236.807 482.962 238.136 470.695 239.874 460.786C242.374 446.533 245.862 434.252 249.559 426.69C252.238 421.21 248.509 426.989 244.917 433.885C238.85 445.529 233.33 461.347 229.794 477.215L229.421 478.887L222.8 478.504C210.024 477.763 193.048 476.364 182.81 475.208C170.282 473.794 156.78 471.856 156.331 471.408C156.151 471.228 156.739 469.58 157.638 467.747C161.433 460.008 164.826 448.481 166.576 437.379C168.635 424.307 168.362 402.613 165.949 387.543C165.48 384.62 165.096 382.029 165.095 381.785C165.093 381.541 166.622 381.342 168.492 381.342C173.211 381.342 185.896 379.803 193.064 378.361C209.312 375.092 229.606 368.496 245.372 361.359C247.852 360.236 248.113 360.224 250.389 361.135C251.709 361.664 254.917 363.521 257.518 365.263C290.365 387.271 334.245 398.423 374.164 394.908C412.488 391.534 446.715 377.553 477.978 352.504L483.456 348.115L488.608 348.804ZM687.79 473.18C659.284 369.138 657.696 363.288 657.666 362.239C657.659 361.964 658.79 362.407 660.182 363.222C661.573 364.037 664.282 365.256 666.201 365.931C668.12 366.606 669.887 367.359 670.127 367.606C670.574 368.065 671.883 372.75 684.521 419.14C688.548 433.92 698.368 469.915 706.344 499.129C714.32 528.342 720.846 553.138 720.846 554.231C720.846 558.405 717.783 561.497 714.793 560.341C713.079 559.679 711.175 557.518 710.33 555.273C709.791 553.842 699.944 518.105 696.417 504.777C695.944 502.991 692.062 488.772 687.79 473.18ZM678.825 372.069C678.595 371.484 678.387 370.674 678.364 370.268C678.318 369.438 678.623 369.389 680.569 369.91L681.928 370.274L680.586 371.703C679.353 373.016 679.211 373.045 678.825 372.069ZM282.029 457.757C282.518 457.55 285.309 457.188 288.232 456.953C291.156 456.718 297.733 456.486 302.85 456.437L312.152 456.348V477.296V498.244L316.433 501.762C331.403 514.063 342.248 523.232 343.978 525.049L345.98 527.151L345.3 544.165C344.926 553.523 344.623 562.442 344.627 563.985L344.634 566.79L334.447 566.785C322.394 566.778 303.851 565.873 296.796 564.947C286.35 563.576 281.235 559.96 276.818 550.824C272.083 541.029 271.817 539.043 271.553 511.525L271.319 487.266L272.888 480.269C275.52 468.539 279.453 458.851 282.029 457.757ZM318.662 495.032L318.655 475.617L318.648 456.202L358.071 456.46C361.009 456.479 363.739 456.496 366.276 456.511C394.051 456.677 398.687 456.704 401.423 458.998C401.971 459.458 402.443 460.008 403.01 460.669C403.268 460.97 403.545 461.294 403.859 461.642C404.101 461.912 404.332 462.163 404.551 462.401C405.199 463.106 405.745 463.701 406.207 464.355C408.69 467.876 408.712 473.132 408.857 506.675C408.866 508.783 408.876 511.003 408.886 513.341C409.019 542.368 408.88 557.146 408.462 558.572C408.12 559.737 406.743 561.775 405.403 563.102C403.048 565.433 402.804 565.526 398.163 565.866C395.521 566.06 383.924 566.28 372.393 566.357L351.426 566.495L351.496 564.723C351.534 563.748 351.75 555.377 351.976 546.119C352.201 536.861 352.492 528.477 352.622 527.488C352.752 526.499 352.454 524.91 351.96 523.959C350.541 521.222 340.353 512.193 324.8 499.889L318.662 495.032ZM413.836 465.277C413.161 463.53 411.928 461.072 411.096 459.814L409.584 457.529L412.397 457.545C418.153 457.578 426.243 458.644 427.63 459.553C430.912 461.704 435.46 475.185 436.515 485.894L436.91 489.909L433.443 490.309C428.56 490.871 425.806 491.645 424.929 492.702C424.318 493.439 424.316 497.427 424.92 513.812C425.377 526.208 425.928 534.575 426.344 535.471C427.351 537.634 429.473 538.423 434.313 538.432L438.651 538.441L438.273 541.542C437.248 549.96 435.351 554.558 430.96 559.278C427.08 563.448 423.484 565.005 417.721 565.012C415.203 565.016 413.144 564.936 413.144 564.834C413.144 564.732 413.688 563.523 414.353 562.147C415.516 559.74 415.574 558.349 415.883 525.272C416.253 485.7 415.723 470.165 413.836 465.277ZM521.519 465.788C528.016 465.389 533.442 464.962 533.577 464.839C533.713 464.717 534.281 464.616 534.84 464.616C536.078 464.616 536.101 464.735 538.027 481.153C543.192 525.158 544.331 551.826 541.393 559.975C539.735 564.578 536.705 569.088 531.905 574.1C528.239 577.928 520.984 583.917 520.014 583.917C519.771 583.917 519.396 581.99 519.182 579.636C517.125 557.049 510.55 528.66 504.059 514.345L502.309 510.485L506.945 505.711C509.496 503.086 512.356 499.609 513.302 497.985C514.914 495.219 515.021 494.639 514.99 488.831C514.96 483.043 514.776 482.099 512.228 474.662C510.728 470.28 509.546 466.654 509.603 466.604C509.66 466.554 515.022 466.187 521.519 465.788ZM437.732 498.284C449.791 496.604 480.064 483.428 495.533 473.126C498.131 471.395 500.523 470.053 500.848 470.144C502.786 470.683 507.545 487.485 506.833 491.274C506.349 493.847 501.997 499.366 498.049 502.414C496.34 503.732 494.278 505.385 493.466 506.088C484.094 514.194 468.245 521.928 448.322 528.117C441.935 530.102 440.943 530.26 437.767 529.797L434.261 529.287L434.089 526.925C433.994 525.625 433.752 520.576 433.552 515.703C433.353 510.831 433.032 505.082 432.842 502.929L432.495 499.013L437.732 498.284ZM230.222 496.173C230.294 496.115 231.417 495.513 232.716 494.837C234.905 493.698 236.079 493.606 248.747 493.582L262.414 493.556L262.817 503.744C263.038 509.347 263.134 516.657 263.028 519.988L262.836 526.044L249.937 526.126L237.038 526.207L234.689 524.203L232.34 522.2L231.215 509.24C230.596 502.112 230.149 496.232 230.222 496.173ZM455.962 534.582C471.038 529.368 483.773 523.552 491.398 518.398C493.347 517.08 495.075 516.003 495.237 516.003C495.4 516.003 496.445 518.325 497.561 521.164C505.676 541.82 511.11 571.515 512.069 600.454C512.268 606.464 512.707 613.506 513.043 616.105C514.9 630.437 512.429 645.134 506.162 657.032C503.75 661.611 504.795 660.857 508.691 655.206C514.761 646.402 518.854 636.223 520.591 625.602C521.849 617.918 522.61 617.656 525.517 623.908C537.144 648.912 539.472 677.774 532.355 708.682C531.701 711.524 531.059 713.849 530.928 713.849C530.798 713.849 526.767 714.628 521.971 715.58C508.938 718.167 498.4 719.2 481.358 719.562C460.214 720.011 449.752 718.592 436.473 713.474C419.085 706.772 403.116 693.686 392.151 677.157C388.597 671.799 384.189 663.746 384.218 662.663C384.225 662.393 386.152 661.558 388.499 660.809C394.3 658.956 401.363 654.706 406.158 650.182C409.936 646.618 414.325 640.865 414.325 639.477C414.325 639.124 412 640.267 409.157 642.018C396.054 650.087 382.879 654.528 367.701 655.991C356.273 657.093 340.796 655.216 326.031 650.936C319.831 649.14 305.112 643.719 304.017 642.83C303.134 642.113 302.225 642.751 303.037 643.517C304.337 644.744 315.331 650.455 321.386 653.049C338.038 660.185 353.451 663.648 368.557 663.648H375.087L374.851 673.406C374.394 692.333 377.006 706.943 383.049 719.259L385.268 723.782L382.717 727.585C373.032 742.021 353.873 755.964 330.644 765.477C319.721 769.952 299.931 775.866 295.91 775.859C294.616 775.856 293.186 773.747 282.901 756.668C268.486 732.729 256.922 709.964 253.726 699.231C247.092 676.954 241.65 617.941 240.301 553.649L239.908 534.898H251.734H263.56L263.939 538.124C264.947 546.697 270.159 558.293 275.639 564.15C281.475 570.389 286.737 572.459 300.635 573.985C309.214 574.927 392.724 574.984 412.047 574.061L424.238 573.479L428.793 571.315C439.106 566.417 445.566 556.039 446.693 542.556L447.103 537.646L455.962 534.582ZM530.225 617.29C530.396 617.174 573.503 604.388 576.74 603.494C579.767 602.658 579.82 602.667 582.678 604.506C590.409 609.48 603.087 622.802 614.046 637.465C628.791 657.195 637.435 674.622 639.383 688.546C641.17 701.326 635.964 711.12 624.359 716.806C616.783 720.519 613.267 721.24 603.022 721.181C592.93 721.123 588.803 720.26 579.401 716.243C573.228 713.606 564.584 708.674 561.847 706.229C560.063 704.635 560.04 704.539 559.769 697.569C559.417 688.518 560.829 681.163 564.293 674.006C566.914 668.592 567.112 667.679 565.889 666.663C564.69 665.668 563.32 666.445 561.443 669.182C555.667 677.608 551.943 690.187 551.937 701.289L551.935 705.561L549.042 707.027C546.241 708.447 540.188 710.895 539.48 710.896C539.289 710.896 539.61 708.696 540.193 706.006C543.143 692.4 543.987 671.94 542.175 657.92C540.581 645.576 536.854 632.327 531.925 621.475C530.906 619.231 530.141 617.348 530.225 617.29ZM368.052 752.33C374.213 747.564 382.941 738.964 386.272 734.377C387.571 732.588 388.804 731.221 389.013 731.341C389.632 731.695 398.758 748.745 403.378 758.179C409.824 771.342 414.325 785.886 414.325 793.553C414.325 798.587 411.038 804.033 403.435 811.594C389.084 825.865 367.825 838.363 344.634 846.16C333.29 849.974 327.515 851.113 319.534 851.111C311.17 851.108 308.597 850.024 305.733 845.299C302.374 839.756 300.844 834.296 300.495 826.601C300.148 818.934 300.781 814.078 303.091 806.705C304.295 802.862 304.828 801.875 305.582 802.093C310.504 803.511 312.757 803.8 318.648 803.771C328.769 803.719 342.227 800.457 354.25 795.139C357.844 793.55 358.459 792.905 357.938 791.267C357.357 789.435 356.165 789.417 351.004 791.161C344.007 793.526 334.039 795.783 327.44 796.497C320.64 797.232 313.349 796.491 309.002 794.621C306.45 793.523 305.644 792.697 302.607 788.072C300.696 785.161 299.237 782.673 299.367 782.544C299.497 782.414 303.556 781.269 308.388 779.999C332.43 773.68 352.464 764.39 368.052 752.33Z" fill="url(#paint26_linear_937_819)"/>
<path d="M655.446 271.515C652.725 270.422 650.444 269.528 650.378 269.528L642.079 265.984C638.905 254.298 633.904 235.968 627.014 210.763C620.798 188.025 615.356 168.092 614.921 166.468C612.869 158.814 603.234 123.592 602.44 120.845C601.947 119.139 601.364 117.755 601.143 117.769L598.675 110.639C600.7 109.177 602.366 107.244 603.403 105.057L610.453 106.84L615.933 108.729C626.186 112.264 633.634 113.746 646.582 114.826C663.264 116.22 681.39 114.731 701.266 110.337C718.419 106.546 720.804 106.266 735.694 106.309C746.931 106.34 750.578 106.587 759.318 107.908C771.416 109.736 783.27 112.351 800.069 116.895C815.922 121.184 819.118 122.832 822.761 128.592C826.575 134.622 831.748 148.378 834.895 160.858C838.134 173.703 839.579 182.295 844.055 215.321C846.753 235.232 849.484 248.209 853.635 260.851C855.206 265.636 855.658 267.881 855.441 269.814C854.928 274.361 851.081 277.724 846.336 277.772C842.719 277.808 832.8 275.331 817.787 270.641C799.345 264.879 793.218 263.445 786.781 263.385C781.69 263.337 780.99 263.5 770.232 267.254C745.897 275.745 727.938 279.375 707.275 279.979C687.394 280.559 671.502 277.964 655.446 271.515Z" fill="url(#paint27_linear_937_819)" fill-opacity="0.3"/>
<path d="M196.049 127.58C205.104 112.256 220.189 97.1353 236.238 87.2954C243.711 82.7129 256.742 76.8122 266.654 73.5226C286.815 66.8311 305.336 63.871 330.734 63.2822C357.605 62.6591 384.247 65.3487 411.253 71.41C454.475 81.1118 487.926 98.0254 511.204 121.949C524.202 135.307 532.966 149.471 538.651 166.312C539.557 168.992 540.398 171.084 540.521 170.961L541.284 192.74L540.381 212.821L536.208 236.659L529.472 260.069L524.904 272.913C522.843 278.709 520.251 284.302 517.163 289.622L510.313 301.419L497.724 319.736L491.732 326.618C487.373 331.624 482.526 336.185 477.262 340.231L471.001 345.044C471.001 344.909 469.739 345.438 468.196 346.218C456.614 352.075 434.871 359.167 417.257 362.833C397.833 366.876 383.383 368.114 360.735 367.674C339.226 367.257 329.344 366.017 311.835 361.541C281.04 353.668 248.555 337.522 224.721 318.241C217.879 312.706 216.076 311.28 216.051 311.475L216.215 311.757C216.109 311.613 216.045 311.513 216.051 311.475L205.528 293.438L195.487 273.909L190.635 262.424C187.815 255.75 185.729 248.789 184.413 241.664L180.723 221.68V196.661L182.198 174.136L184.562 155.828L186.798 147.043C188.056 142.1 190.05 137.375 192.714 133.025L196.049 127.58Z" fill="url(#paint28_linear_937_819)" fill-opacity="0.1"/>
<path d="M612.849 308.991C625.468 296.342 628.354 293.943 633.418 291.886C637.184 290.356 646.145 290.661 650.13 292.454C652.642 293.584 653.153 294.149 654.642 297.441C658.64 306.281 660.081 314.975 658.186 318.821C656.901 321.43 653.669 322.808 648.63 322.898C643.833 322.983 641.482 322.058 637.013 318.323C635.624 317.163 633.848 316.214 633.067 316.214C631.016 316.214 629.284 318.207 629.284 320.568C629.284 322.159 629.796 323.032 631.831 324.908C633.232 326.199 635.586 327.964 637.062 328.828C639.713 330.382 639.749 330.445 640.097 334.168C640.544 338.96 642.391 344.547 644.9 348.697C646.368 351.125 647.865 355.672 650.834 366.71C653.017 374.831 655.381 383.595 656.088 386.187L657.371 390.898L653.22 394.185C640.097 404.574 622.497 415.438 599.893 427.102L589.082 432.681L585.957 430.787C567.777 419.769 554.509 389.348 549.858 348.015L549.482 344.676L555.571 342.791C568.954 338.646 581.941 332.792 593.908 325.51C599.461 322.131 601.605 320.261 612.849 308.991Z" fill="url(#paint29_linear_937_819)" fill-opacity="0.3"/>
<path d="M663.555 296.667C662.117 293.134 662.035 292.612 662.877 292.357C663.404 292.198 665.827 292.141 668.264 292.229C675.908 292.509 682.378 296.747 687.681 304.951C693.649 314.185 696.518 328.422 694.882 340.681C694.098 346.557 691.424 355.423 689.349 359.032L687.99 361.394L684.18 361.334C672.722 361.152 657.956 353.645 652.745 345.352C651.004 342.581 649.054 337.428 648.511 334.16L648.107 331.732L651.245 331.333C667.235 329.306 671.709 316.704 663.555 296.667Z" fill="url(#paint30_linear_937_819)" fill-opacity="0.3"/>
<path d="M678.215 371.906C677.985 371.322 677.777 370.512 677.754 370.106C677.708 369.276 678.013 369.227 679.959 369.748L681.318 370.112L679.976 371.54C678.743 372.853 678.601 372.883 678.215 371.906Z" fill="url(#paint31_linear_937_819)" fill-opacity="0.3"/>
<path d="M494.921 472.552C479.452 482.854 449.179 496.03 437.12 497.71L431.883 498.439L432.23 502.355C432.421 504.508 432.741 510.257 432.94 515.129C433.14 520.002 433.382 525.051 433.477 526.351L433.65 528.713L437.155 529.223C440.331 529.686 441.323 529.527 447.71 527.543C467.633 521.354 483.482 513.62 492.854 505.514C493.666 504.811 495.728 503.158 497.437 501.84C501.385 498.792 505.737 493.273 506.221 490.7C506.933 486.911 502.174 470.109 500.236 469.57C499.911 469.479 497.519 470.821 494.921 472.552Z" fill="url(#paint32_linear_937_819)" fill-opacity="0.3"/>
<path d="M410.484 459.24C411.316 460.498 412.549 462.956 413.224 464.703C415.111 469.591 415.641 485.126 415.271 524.698C414.962 557.775 414.904 559.166 413.741 561.573C413.076 562.949 412.532 564.158 412.532 564.26C412.532 564.362 414.591 564.442 417.109 564.438C422.872 564.431 426.468 562.874 430.348 558.704C434.739 553.984 436.636 549.386 437.661 540.968L438.039 537.867L433.701 537.858C428.861 537.849 426.739 537.06 425.732 534.897C425.316 534.001 424.765 525.634 424.308 513.238C423.704 496.853 423.706 492.865 424.317 492.128C425.195 491.071 427.948 490.297 432.832 489.735L436.298 489.335L435.903 485.32C434.848 474.611 430.3 461.13 427.018 458.979C425.632 458.07 417.541 457.004 411.786 456.971L408.972 456.955L410.484 459.24Z" fill="url(#paint33_linear_937_819)" fill-opacity="0.3"/>
<path fill-rule="evenodd" clip-rule="evenodd" d="M318.043 475.043L318.05 494.458L324.188 499.315C339.741 511.619 349.929 520.648 351.348 523.385C351.842 524.336 352.14 525.925 352.01 526.914C351.88 527.903 351.589 536.287 351.364 545.545C351.138 554.803 350.922 563.174 350.884 564.149L350.814 565.921L371.781 565.783C383.312 565.706 394.909 565.486 397.551 565.292C402.192 564.952 402.436 564.859 404.791 562.528C406.131 561.201 407.508 559.163 407.85 557.998C408.269 556.572 408.407 541.794 408.274 512.767C408.264 510.429 408.254 508.209 408.245 506.101V506.099C408.1 472.558 408.078 467.302 405.595 463.781C405.133 463.126 404.587 462.532 403.939 461.827L403.933 461.821L403.93 461.818C403.714 461.582 403.486 461.335 403.247 461.068C402.934 460.72 402.656 460.396 402.398 460.095L402.398 460.095C401.831 459.434 401.359 458.884 400.811 458.424C398.075 456.13 393.44 456.103 365.664 455.937C363.127 455.922 360.397 455.905 357.459 455.886L318.036 455.628L318.043 475.043ZM353.938 485.842C357.001 479.456 362.759 474.912 369.578 473.5C375.709 472.229 383.066 474.38 387.994 478.885C397.477 487.551 397.432 501.997 387.896 510.712C383.781 514.473 379.396 516.138 373.552 516.158C367.152 516.18 363.045 514.47 358.44 509.866C353.789 505.214 352.132 501.19 352.096 494.458C352.074 490.339 352.31 489.234 353.938 485.842Z" fill="url(#paint34_linear_937_819)" fill-opacity="0.3"/>
<path d="M367.171 481.518C360.227 484.979 357.067 493.16 359.914 500.304C360.567 501.941 360.633 501.967 361.445 500.895C361.912 500.278 362.302 499.24 362.312 498.588C362.342 496.722 365.19 491.738 367.736 489.095C370.597 486.127 375.074 484.571 380.596 484.626L384.479 484.665L382.707 483.219C378.472 479.763 372.094 479.065 367.171 481.518Z" fill="url(#paint35_linear_937_819)" fill-opacity="0.3"/>
<path d="M287.62 456.379C284.697 456.614 281.906 456.976 281.417 457.183C278.841 458.277 274.908 467.965 272.277 479.695L270.707 486.692L270.941 510.951C271.205 538.469 271.471 540.455 276.206 550.25C280.623 559.386 285.738 563.002 296.184 564.373C303.239 565.299 321.782 566.204 333.835 566.211L344.023 566.216L344.015 563.411C344.011 561.868 344.314 552.949 344.688 543.591L345.368 526.577L343.366 524.475C341.636 522.658 330.791 513.489 315.821 501.188L311.54 497.67V476.722V455.774L302.238 455.863C297.121 455.912 290.544 456.144 287.62 456.379Z" fill="url(#paint36_linear_937_819)" fill-opacity="0.3"/>
<path d="M232.104 494.263C230.805 494.939 229.682 495.541 229.61 495.599C229.537 495.658 229.984 501.538 230.603 508.666L231.728 521.626L234.077 523.629L236.427 525.633L249.325 525.552L262.225 525.47L262.416 519.414C262.522 516.083 262.426 508.773 262.205 503.17L261.802 492.982L248.135 493.008C235.467 493.032 234.293 493.124 232.104 494.263Z" fill="url(#paint37_linear_937_819)" fill-opacity="0.3"/>
<path d="M62.8648 352.16C62.8813 346.096 63.1831 344.121 64.4931 341.522C64.9431 340.628 65.5183 339.897 65.7711 339.897C66.6228 339.897 71.6913 343.354 79.8806 349.52C93.9977 360.149 103.578 366.075 114.848 371.147C126.458 376.373 139.627 380.052 151.113 381.279C158.961 382.118 157.939 380.967 159.466 390.689C162.254 408.445 161.612 432.072 157.95 446.501C156.488 452.261 152.923 462.236 150.823 466.442C148.833 470.428 148.362 470.99 147.216 470.738C146.491 470.579 141.114 469.499 135.267 468.338C106.225 462.574 83.1519 455.164 62.6232 445.008C32.8505 430.28 14.8219 412.189 9.70022 391.903C8.67435 387.839 8.49363 385.76 8.72397 380.681C9.49706 363.653 16.537 358.994 40.7758 359.474C46.7314 359.592 51.7905 359.874 52.0178 360.102C52.2452 360.329 51.8247 362.72 51.0829 365.414C49.4357 371.396 48.8463 382.49 49.8923 387.807C50.5219 391.008 53.3851 398.647 53.7997 398.233C53.8895 398.144 53.5859 396.617 53.1252 394.842C50.7339 385.622 53.4707 372.908 60.1551 362.184L62.8488 357.862L62.8648 352.16Z" fill="url(#paint38_linear_937_819)" fill-opacity="0.3"/>
<path d="M529.858 617.181C530.03 617.064 573.136 604.278 576.373 603.384C579.401 602.549 579.453 602.558 582.311 604.396C590.043 609.371 602.721 622.692 613.679 637.356C628.425 657.086 637.068 674.512 639.016 688.437C640.804 701.217 635.597 711.01 623.992 716.697C616.416 720.409 612.9 721.13 602.655 721.071C592.564 721.014 588.436 720.151 579.034 716.133C572.862 713.496 564.217 708.565 561.48 706.12C559.697 704.526 559.674 704.429 559.403 697.459C559.05 688.409 560.463 681.053 563.926 673.897C566.547 668.482 566.745 667.569 565.522 666.554C564.323 665.559 562.953 666.335 561.077 669.073C555.301 677.499 551.577 690.077 551.571 701.179L551.568 705.451L548.675 706.918C545.874 708.337 539.822 710.786 539.113 710.786C538.922 710.787 539.243 708.586 539.826 705.896C542.777 692.29 543.62 671.83 541.809 657.811C540.214 645.466 536.487 632.217 531.559 621.365C530.539 619.122 529.775 617.239 529.858 617.181Z" fill="url(#paint39_linear_937_819)" fill-opacity="0.3"/>
<path d="M367.686 752.221C373.846 747.455 382.574 738.854 385.905 734.267C387.204 732.478 388.438 731.112 388.646 731.231C389.266 731.586 398.392 748.636 403.011 758.07C409.458 771.233 413.959 785.776 413.959 793.443C413.959 798.477 410.671 803.923 403.069 811.484C388.718 825.756 367.458 838.253 344.268 846.05C332.923 849.864 327.149 851.003 319.167 851.001C310.803 850.999 308.23 849.915 305.366 845.189C302.007 839.647 300.477 834.187 300.129 826.492C299.782 818.824 300.415 813.968 302.725 806.596C303.929 802.752 304.461 801.766 305.215 801.983C310.137 803.401 312.391 803.69 318.282 803.661C328.402 803.609 341.86 800.347 353.883 795.029C357.478 793.44 358.092 792.795 357.572 791.157C356.991 789.325 355.799 789.307 350.637 791.052C343.64 793.416 333.673 795.674 327.074 796.388C320.273 797.123 312.982 796.381 308.636 794.511C306.084 793.413 305.277 792.587 302.24 787.962C300.329 785.052 298.871 782.563 299.001 782.434C299.131 782.304 303.189 781.159 308.021 779.889C332.063 773.57 352.097 764.28 367.686 752.221Z" fill="url(#paint40_linear_937_819)" fill-opacity="0.3"/>
<path d="M330.514 90.5483C302.325 93.0873 280.26 98.6637 260.232 108.311C249.526 113.467 243.28 117.712 236.845 124.202C230.995 130.101 227.461 135.029 223.019 143.48C211.439 165.504 206.856 198.291 210.076 236.061C211.02 247.129 211.035 247.154 213.28 241.34C216.067 234.122 219.544 226.374 224.6 216.115C228.407 208.388 230.935 203.705 240.131 187.336C240.861 186.037 243.335 181.918 245.63 178.182C258.757 156.807 265.947 148.211 281.494 135.303C290.303 127.989 297.155 123.452 308.957 117.12C326.677 107.612 350.29 99.239 368.754 95.9145C372.733 95.1981 375.988 94.4392 375.989 94.2271C375.99 93.5432 372.287 92.5085 366.54 91.5889C361.118 90.7208 336.496 90.0097 330.514 90.5483Z" fill="url(#paint41_linear_937_819)"/>
<path d="M490.416 184.106C484.211 185.658 478.706 189.641 474.012 195.972C468.044 204.02 465.034 213.253 465.081 223.363C465.177 243.882 478.285 254.895 493.85 247.534C496.646 246.213 504.495 239.753 503.958 239.216C503.824 239.082 504.476 238.157 505.407 237.161C506.337 236.165 506.951 235.111 506.77 234.819C506.59 234.528 506.669 234.289 506.945 234.289C507.737 234.289 510.391 228.56 512.144 223.068C513.517 218.763 513.752 216.996 513.787 210.665C513.823 204.099 513.649 202.769 512.22 198.645C511.337 196.094 509.898 193.037 509.022 191.853C506.688 188.694 504.015 186.376 503.109 186.723C502.673 186.89 502.461 186.794 502.637 186.508C503.653 184.866 494.54 183.075 490.416 184.106Z" fill="url(#paint42_linear_937_819)"/>
<path d="M450.487 265.678C443.115 267.8 437.707 276.52 438.886 284.384C440.561 295.55 452.458 298.832 460.199 290.264C467.317 282.385 466.424 270.503 458.41 266.47C455.317 264.914 453.703 264.753 450.487 265.678Z" fill="url(#paint43_linear_937_819)"/>
<defs>
<linearGradient id="paint0_linear_937_819" x1="597.319" y1="-1.00724e-05" x2="196.246" y2="790.688" gradientUnits="userSpaceOnUse">
<stop stop-color="#02E5FF"/>
<stop offset="1" stop-color="#3393DA"/>
</linearGradient>
<linearGradient id="paint1_linear_937_819" x1="597.319" y1="-1.00724e-05" x2="196.246" y2="790.688" gradientUnits="userSpaceOnUse">
<stop stop-color="#02E5FF"/>
<stop offset="1" stop-color="#3393DA"/>
</linearGradient>
<linearGradient id="paint2_linear_937_819" x1="597.319" y1="-1.00724e-05" x2="196.246" y2="790.688" gradientUnits="userSpaceOnUse">
<stop stop-color="#02E5FF"/>
<stop offset="1" stop-color="#3393DA"/>
</linearGradient>
<linearGradient id="paint3_linear_937_819" x1="597.319" y1="-1.00724e-05" x2="196.246" y2="790.688" gradientUnits="userSpaceOnUse">
<stop stop-color="#02E5FF"/>
<stop offset="1" stop-color="#3393DA"/>
</linearGradient>
<linearGradient id="paint4_linear_937_819" x1="597.319" y1="-1.00724e-05" x2="196.246" y2="790.688" gradientUnits="userSpaceOnUse">
<stop stop-color="#02E5FF"/>
<stop offset="1" stop-color="#3393DA"/>
</linearGradient>
<linearGradient id="paint5_linear_937_819" x1="597.319" y1="-1.00724e-05" x2="196.246" y2="790.688" gradientUnits="userSpaceOnUse">
<stop stop-color="#02E5FF"/>
<stop offset="1" stop-color="#3393DA"/>
</linearGradient>
<linearGradient id="paint6_linear_937_819" x1="597.319" y1="-1.00724e-05" x2="196.246" y2="790.688" gradientUnits="userSpaceOnUse">
<stop stop-color="#02E5FF"/>
<stop offset="1" stop-color="#3393DA"/>
</linearGradient>
<linearGradient id="paint7_linear_937_819" x1="597.319" y1="-1.00724e-05" x2="196.246" y2="790.688" gradientUnits="userSpaceOnUse">
<stop stop-color="#02E5FF"/>
<stop offset="1" stop-color="#3393DA"/>
</linearGradient>
<linearGradient id="paint8_linear_937_819" x1="597.319" y1="-1.00724e-05" x2="196.246" y2="790.688" gradientUnits="userSpaceOnUse">
<stop stop-color="#02E5FF"/>
<stop offset="1" stop-color="#3393DA"/>
</linearGradient>
<linearGradient id="paint9_linear_937_819" x1="597.319" y1="-1.00724e-05" x2="196.246" y2="790.688" gradientUnits="userSpaceOnUse">
<stop stop-color="#02E5FF"/>
<stop offset="1" stop-color="#3393DA"/>
</linearGradient>
<linearGradient id="paint10_linear_937_819" x1="597.319" y1="-1.00724e-05" x2="196.246" y2="790.688" gradientUnits="userSpaceOnUse">
<stop stop-color="#02E5FF"/>
<stop offset="1" stop-color="#3393DA"/>
</linearGradient>
<linearGradient id="paint11_linear_937_819" x1="597.319" y1="-1.00724e-05" x2="196.246" y2="790.688" gradientUnits="userSpaceOnUse">
<stop stop-color="#02E5FF"/>
<stop offset="1" stop-color="#3393DA"/>
</linearGradient>
<linearGradient id="paint12_linear_937_819" x1="597.319" y1="-1.00724e-05" x2="196.246" y2="790.688" gradientUnits="userSpaceOnUse">
<stop stop-color="#02E5FF"/>
<stop offset="1" stop-color="#3393DA"/>
</linearGradient>
<linearGradient id="paint13_linear_937_819" x1="597.319" y1="-1.00724e-05" x2="196.246" y2="790.688" gradientUnits="userSpaceOnUse">
<stop stop-color="#02E5FF"/>
<stop offset="1" stop-color="#3393DA"/>
</linearGradient>
<linearGradient id="paint14_linear_937_819" x1="597.319" y1="-1.00724e-05" x2="196.246" y2="790.688" gradientUnits="userSpaceOnUse">
<stop stop-color="#02E5FF"/>
<stop offset="1" stop-color="#3393DA"/>
</linearGradient>
<linearGradient id="paint15_linear_937_819" x1="597.319" y1="-1.00724e-05" x2="196.246" y2="790.688" gradientUnits="userSpaceOnUse">
<stop stop-color="#02E5FF"/>
<stop offset="1" stop-color="#3393DA"/>
</linearGradient>
<linearGradient id="paint16_linear_937_819" x1="597.319" y1="-1.00724e-05" x2="196.246" y2="790.688" gradientUnits="userSpaceOnUse">
<stop stop-color="#02E5FF"/>
<stop offset="1" stop-color="#3393DA"/>
</linearGradient>
<linearGradient id="paint17_linear_937_819" x1="597.319" y1="-1.00724e-05" x2="196.246" y2="790.688" gradientUnits="userSpaceOnUse">
<stop stop-color="#02E5FF"/>
<stop offset="1" stop-color="#3393DA"/>
</linearGradient>
<linearGradient id="paint18_linear_937_819" x1="597.319" y1="-1.00724e-05" x2="196.246" y2="790.688" gradientUnits="userSpaceOnUse">
<stop stop-color="#02E5FF"/>
<stop offset="1" stop-color="#3393DA"/>
</linearGradient>
<linearGradient id="paint19_linear_937_819" x1="597.319" y1="-1.00724e-05" x2="196.246" y2="790.688" gradientUnits="userSpaceOnUse">
<stop stop-color="#02E5FF"/>
<stop offset="1" stop-color="#3393DA"/>
</linearGradient>
<linearGradient id="paint20_linear_937_819" x1="597.319" y1="-1.00724e-05" x2="196.246" y2="790.688" gradientUnits="userSpaceOnUse">
<stop stop-color="#02E5FF"/>
<stop offset="1" stop-color="#3393DA"/>
</linearGradient>
<linearGradient id="paint21_linear_937_819" x1="597.319" y1="-1.00724e-05" x2="196.246" y2="790.688" gradientUnits="userSpaceOnUse">
<stop stop-color="#02E5FF"/>
<stop offset="1" stop-color="#3393DA"/>
</linearGradient>
<linearGradient id="paint22_linear_937_819" x1="597.319" y1="-1.00724e-05" x2="196.246" y2="790.688" gradientUnits="userSpaceOnUse">
<stop stop-color="#02E5FF"/>
<stop offset="1" stop-color="#3393DA"/>
</linearGradient>
<linearGradient id="paint23_linear_937_819" x1="597.319" y1="-1.00724e-05" x2="196.246" y2="790.688" gradientUnits="userSpaceOnUse">
<stop stop-color="#02E5FF"/>
<stop offset="1" stop-color="#3393DA"/>
</linearGradient>
<linearGradient id="paint24_linear_937_819" x1="597.319" y1="-1.00724e-05" x2="196.246" y2="790.688" gradientUnits="userSpaceOnUse">
<stop stop-color="#02E5FF"/>
<stop offset="1" stop-color="#3393DA"/>
</linearGradient>
<linearGradient id="paint25_linear_937_819" x1="597.319" y1="-1.00724e-05" x2="196.246" y2="790.688" gradientUnits="userSpaceOnUse">
<stop stop-color="#02E5FF"/>
<stop offset="1" stop-color="#3393DA"/>
</linearGradient>
<linearGradient id="paint26_linear_937_819" x1="597.319" y1="-1.00724e-05" x2="196.246" y2="790.688" gradientUnits="userSpaceOnUse">
<stop stop-color="#02E5FF"/>
<stop offset="1" stop-color="#3393DA"/>
</linearGradient>
<linearGradient id="paint27_linear_937_819" x1="775.62" y1="90.3613" x2="696.794" y2="294.045" gradientUnits="userSpaceOnUse">
<stop stop-color="#02E5FF"/>
<stop offset="1" stop-color="#3393DA"/>
</linearGradient>
<linearGradient id="paint28_linear_937_819" x1="436.143" y1="63.1943" x2="310.392" y2="362.482" gradientUnits="userSpaceOnUse">
<stop stop-color="#02E5FF"/>
<stop offset="1" stop-color="#3393DA"/>
</linearGradient>
<linearGradient id="paint29_linear_937_819" x1="731.034" y1="262.816" x2="643.58" y2="485.897" gradientUnits="userSpaceOnUse">
<stop stop-color="#02E5FF"/>
<stop offset="1" stop-color="#3393DA"/>
</linearGradient>
<linearGradient id="paint30_linear_937_819" x1="731.034" y1="262.816" x2="643.58" y2="485.897" gradientUnits="userSpaceOnUse">
<stop stop-color="#02E5FF"/>
<stop offset="1" stop-color="#3393DA"/>
</linearGradient>
<linearGradient id="paint31_linear_937_819" x1="731.034" y1="262.816" x2="643.58" y2="485.897" gradientUnits="userSpaceOnUse">
<stop stop-color="#02E5FF"/>
<stop offset="1" stop-color="#3393DA"/>
</linearGradient>
<linearGradient id="paint32_linear_937_819" x1="470.061" y1="436.453" x2="436.963" y2="599.566" gradientUnits="userSpaceOnUse">
<stop stop-color="#02E5FF"/>
<stop offset="1" stop-color="#3393DA"/>
</linearGradient>
<linearGradient id="paint33_linear_937_819" x1="470.061" y1="436.453" x2="436.963" y2="599.566" gradientUnits="userSpaceOnUse">
<stop stop-color="#02E5FF"/>
<stop offset="1" stop-color="#3393DA"/>
</linearGradient>
<linearGradient id="paint34_linear_937_819" x1="470.061" y1="436.453" x2="436.963" y2="599.566" gradientUnits="userSpaceOnUse">
<stop stop-color="#02E5FF"/>
<stop offset="1" stop-color="#3393DA"/>
</linearGradient>
<linearGradient id="paint35_linear_937_819" x1="470.061" y1="436.453" x2="436.963" y2="599.566" gradientUnits="userSpaceOnUse">
<stop stop-color="#02E5FF"/>
<stop offset="1" stop-color="#3393DA"/>
</linearGradient>
<linearGradient id="paint36_linear_937_819" x1="470.061" y1="436.453" x2="436.963" y2="599.566" gradientUnits="userSpaceOnUse">
<stop stop-color="#02E5FF"/>
<stop offset="1" stop-color="#3393DA"/>
</linearGradient>
<linearGradient id="paint37_linear_937_819" x1="470.061" y1="436.453" x2="436.963" y2="599.566" gradientUnits="userSpaceOnUse">
<stop stop-color="#02E5FF"/>
<stop offset="1" stop-color="#3393DA"/>
</linearGradient>
<linearGradient id="paint38_linear_937_819" x1="164.749" y1="252.776" x2="64.6274" y2="462.77" gradientUnits="userSpaceOnUse">
<stop stop-color="#02E5FF"/>
<stop offset="1" stop-color="#3393DA"/>
</linearGradient>
<linearGradient id="paint39_linear_937_819" x1="525.922" y1="593.553" x2="433.598" y2="870.543" gradientUnits="userSpaceOnUse">
<stop stop-color="#02E5FF"/>
<stop offset="1" stop-color="#3393DA"/>
</linearGradient>
<linearGradient id="paint40_linear_937_819" x1="525.922" y1="593.553" x2="433.598" y2="870.543" gradientUnits="userSpaceOnUse">
<stop stop-color="#02E5FF"/>
<stop offset="1" stop-color="#3393DA"/>
</linearGradient>
<linearGradient id="paint41_linear_937_819" x1="421.706" y1="90.3613" x2="349.673" y2="302.65" gradientUnits="userSpaceOnUse">
<stop stop-color="#02E5FF"/>
<stop offset="1" stop-color="#3393DA"/>
</linearGradient>
<linearGradient id="paint42_linear_937_819" x1="421.706" y1="90.3613" x2="349.673" y2="302.65" gradientUnits="userSpaceOnUse">
<stop stop-color="#02E5FF"/>
<stop offset="1" stop-color="#3393DA"/>
</linearGradient>
<linearGradient id="paint43_linear_937_819" x1="421.706" y1="90.3613" x2="349.673" y2="302.65" gradientUnits="userSpaceOnUse">
<stop stop-color="#02E5FF"/>
<stop offset="1" stop-color="#3393DA"/>
</linearGradient>
</defs>
</svg>
