<svg width="170" height="169" viewBox="0 0 170 169" fill="none" xmlns="http://www.w3.org/2000/svg">
<path fill-rule="evenodd" clip-rule="evenodd" d="M112.242 147.312C112.454 148.439 111.819 149.636 110.762 150.058C102.728 153.227 94.0594 154.917 84.9679 154.917C70.0078 154.958 55.4307 150.194 43.387 141.326C42.4004 140.622 42.1185 139.214 42.7527 138.158C46.6289 131.257 61.7813 109.076 95.2575 96.6823C96.526 96.1894 97.9355 96.8231 98.3584 98.0906C106.816 120.554 110.762 139.566 112.242 147.312ZM154.105 97.7949C150.873 114.827 141.399 130.043 127.535 140.467C126.056 141.594 123.941 140.749 123.589 138.989C122.109 131.384 118.515 114.977 111.608 95.4711C111.115 93.9924 112.101 92.3728 113.652 92.1615C131.2 90.049 146.564 93.429 152.343 94.9782C153.541 95.4007 154.316 96.5978 154.105 97.7949Z" fill="white" fill-opacity="0.8"/>
<path opacity="0.4" fill-rule="evenodd" clip-rule="evenodd" d="M152.485 83.2258C145.296 81.9583 126.972 79.2825 108.226 81.3246C107.098 81.4654 106.112 80.8316 105.618 79.7754C105.336 79.1416 105.125 78.5079 104.843 77.8741C103.715 75.2687 102.517 72.5929 101.319 69.9875C100.685 68.72 101.319 67.1708 102.588 66.6075C122.321 58.087 133.315 47.102 137.614 42.1729C138.671 40.9758 140.504 41.0462 141.491 42.3137C149.808 53.3763 154.641 66.6625 155.374 80.4795C155.445 82.24 154.035 83.5075 152.485 83.2258Z" fill="white" fill-opacity="0.8"/>
<path fill-rule="evenodd" clip-rule="evenodd" d="M130.285 33.7293C126.62 38.1655 116.331 48.728 96.8087 56.4738C96.2439 56.7018 95.6145 56.7129 95.042 56.5048C94.4694 56.2968 93.9942 55.8844 93.7078 55.3472C86.7215 42.8314 79.0271 30.7236 70.6621 19.0826C70.4154 18.7357 70.2606 18.332 70.2121 17.9092C70.1636 17.4864 70.2231 17.0582 70.3849 16.6646C70.5467 16.2709 70.8056 15.9246 71.1375 15.6579C71.4694 15.3912 71.8635 15.2127 72.2831 15.1393C76.3707 14.4351 80.5992 14.083 84.9688 14.083C102.024 14.083 117.74 20.1388 129.933 30.2788C130.99 31.1238 131.131 32.673 130.285 33.7293ZM77.9916 62.248C51.2812 68.9376 27.6717 69.853 19.0736 69.9938C17.4526 69.9938 16.2545 68.4447 16.6774 66.8955C21.7517 47.1788 35.2831 30.7013 53.1136 21.6176C54.1707 21.0543 55.5097 21.4063 56.2145 22.3922C59.8793 27.4622 69.8164 41.7568 79.5421 58.5863C80.3173 59.9947 79.6126 61.8255 77.9916 62.248Z" fill="white" fill-opacity="0.8"/>
<path opacity="0.4" fill-rule="evenodd" clip-rule="evenodd" d="M91.3818 81.6832C92.0161 83.0212 91.2408 84.6407 89.8313 85.1337C58.6104 95.2032 39.9342 120.201 34.2961 128.792C33.3799 130.2 31.4066 130.271 30.3495 129.003C20.4123 116.892 14.4219 103.019 14.4219 86.1195V84.852C14.4219 83.4437 15.5495 82.317 16.959 82.3874C25.839 82.7395 54.8047 81.5424 84.898 72.8812C86.0256 72.5291 87.2942 73.0924 87.7875 74.1487C89.0561 76.6837 90.2542 79.1482 91.3818 81.6832Z" fill="white" fill-opacity="0.8"/>
</svg>
