<svg width="170" height="169" viewBox="0 0 170 169" fill="none" xmlns="http://www.w3.org/2000/svg">
<path opacity="0.4" d="M114.101 14.083H55.1126C29.4593 14.083 14.166 29.3634 14.166 54.9951V113.934C14.166 139.566 29.4593 154.846 55.1126 154.846H114.101C139.754 154.846 155.048 139.566 155.048 113.934V54.9951C155.048 29.3634 139.754 14.083 114.101 14.083Z" fill="white" fill-opacity="0.8"/>
<path d="M98.1023 65.3462L98.4547 86.1191L116.99 85.8375C118.329 85.8375 119.316 87.0345 119.104 88.302L116.638 101.752C116.426 102.737 115.58 103.442 114.594 103.512L98.7366 103.794L99.5823 154.846L78.4395 155.198L77.5938 104.146L65.6128 104.357C64.4147 104.357 63.4985 103.442 63.4985 102.245L63.2871 88.8654C63.2871 87.6683 64.2033 86.7529 65.4014 86.7529L77.3823 86.5416L77.03 63.6562C76.9796 60.881 77.4778 58.123 78.4961 55.5405C79.5144 52.958 81.0327 50.6016 82.9641 48.6065C84.8955 46.6113 87.2019 45.0166 89.7512 43.9137C92.3006 42.8107 95.0427 42.2213 97.8204 42.1791L116.849 41.8975C118.047 41.8975 118.963 42.8129 118.963 44.01L119.245 60.91C119.245 62.107 118.329 63.0225 117.131 63.0225L100.217 63.3041C99.0185 63.2337 98.1023 64.2195 98.1023 65.3462Z" fill="white" fill-opacity="0.8"/>
</svg>
