<svg width="170" height="169" viewBox="0 0 170 169" fill="none" xmlns="http://www.w3.org/2000/svg">
<path opacity="0.4" d="M114.543 14.083H55.4837C29.8304 14.083 14.5371 29.3634 14.5371 54.9951V113.934C14.5371 139.636 29.8304 154.916 55.4837 154.916H114.472C140.126 154.916 155.419 139.636 155.419 114.004V54.9951C155.489 29.3634 140.196 14.083 114.543 14.083Z" fill="white" fill-opacity="0.8"/>
<path d="M85.0127 111.828C88.6037 111.828 92.1595 111.122 95.4771 109.749C98.7947 108.376 101.809 106.363 104.348 103.826C106.888 101.289 108.902 98.2771 110.276 94.9623C111.65 91.6475 112.357 88.0947 112.357 84.5067C112.357 80.9188 111.65 77.366 110.276 74.0512C108.902 70.7364 106.888 67.7244 104.348 65.1874C101.809 62.6503 98.7947 60.6378 95.4771 59.2648C92.1595 57.8918 88.6037 57.1851 85.0127 57.1851C77.7604 57.1851 70.8052 60.0636 65.6771 65.1874C60.5489 70.3112 57.668 77.2606 57.668 84.5067C57.668 91.7529 60.5489 98.7023 65.6771 103.826C70.8052 108.95 77.7604 111.828 85.0127 111.828ZM120.251 52.8122C119.323 52.8214 118.402 52.6456 117.543 52.295C116.684 51.9443 115.903 51.4259 115.247 50.7701C114.613 50.0659 114.119 49.2914 113.767 48.4464C113.405 47.6001 113.213 46.6908 113.203 45.7705C113.203 44.8551 113.415 43.9397 113.767 43.0947C114.119 42.1793 114.613 41.4751 115.247 40.7709C116.868 39.1514 119.335 38.3768 121.59 38.8697C122.083 38.9401 122.506 39.0809 122.929 39.2922C123.352 39.433 123.775 39.6443 124.197 39.9259C124.55 40.1372 124.902 40.4893 125.255 40.7709C125.889 41.4751 126.382 42.1793 126.735 43.0947C127.087 43.9397 127.298 44.8551 127.298 45.7705C127.298 46.6859 127.087 47.6014 126.735 48.4464C126.382 49.2914 125.889 50.0659 125.255 50.7701C124.55 51.4039 123.775 51.8968 122.929 52.2489C122.083 52.6009 121.167 52.8122 120.251 52.8122Z" fill="white" fill-opacity="0.8"/>
</svg>
