<svg width="170" height="169" viewBox="0 0 170 169" fill="none" xmlns="http://www.w3.org/2000/svg">
<path opacity="0.4" d="M85.3394 154.916C124.263 154.916 155.816 123.391 155.816 84.4997C155.816 45.6086 124.263 14.083 85.3394 14.083C46.4154 14.083 14.8633 45.6086 14.8633 84.4997C14.8633 123.391 46.4154 154.916 85.3394 154.916Z" fill="white" fill-opacity="0.8"/>
<path d="M123.96 80.4231C122.903 80.4231 121.846 80.0711 120.859 79.4373C99.8574 64.3681 72.9355 61.0586 48.9736 70.6352C47.6742 71.1438 46.2262 71.1183 44.9455 70.5643C43.6648 70.0102 42.6554 68.9726 42.1374 67.6777C41.0803 65.0019 42.4194 61.9036 45.0974 60.8473C72.4422 50.0031 103.099 53.7352 127.061 70.9169C129.457 72.6069 129.951 75.9165 128.259 78.3106C127.273 79.6486 125.652 80.4231 123.96 80.4231Z" fill="white" fill-opacity="0.8"/>
<path d="M112.895 99.3583C111.838 99.3583 110.78 99.0062 109.794 98.3725C102.48 93.1145 93.9578 89.7838 85.0146 88.6884C76.0714 87.5929 66.9962 88.7682 58.6281 92.1054C57.3282 92.6083 55.8825 92.5799 54.6033 92.0266C53.3242 91.4732 52.3143 90.4391 51.7919 89.1479C51.2828 87.8495 51.3084 86.4027 51.8629 85.1231C52.4174 83.8435 53.4559 82.835 54.7519 82.3175C64.7588 78.3261 75.6124 76.924 86.3062 78.2411C97.0001 79.5582 107.188 83.552 115.925 89.8521C118.321 91.5421 118.815 94.8517 117.123 97.2458C116.137 98.5837 114.516 99.3583 112.895 99.3583ZM105.142 119.005C104.085 119.005 103.028 118.652 102.041 118.019C96.7265 114.215 90.5424 111.804 84.0543 111.004C77.5661 110.205 70.9809 111.043 64.9004 113.442C63.6006 113.945 62.1548 113.916 60.8757 113.363C59.5965 112.809 58.5867 111.775 58.0643 110.484C57.5552 109.186 57.5807 107.739 58.1353 106.459C58.6898 105.18 59.7283 104.171 61.0243 103.654C76.8109 97.3867 94.4299 99.5696 108.173 109.428C110.569 111.118 111.062 114.427 109.371 116.822C108.903 117.508 108.271 118.067 107.533 118.448C106.795 118.829 105.973 119.02 105.142 119.005Z" fill="white" fill-opacity="0.8"/>
</svg>
