<svg width="171" height="169" viewBox="0 0 171 169" fill="none" xmlns="http://www.w3.org/2000/svg">
<path opacity="0.4" fill-rule="evenodd" clip-rule="evenodd" d="M36.4027 14.0835H145.359C149.235 14.0835 152.406 17.2523 152.406 21.1252V95.6964C152.406 97.5977 151.631 99.3581 150.363 100.696L119.283 131.75C118.626 132.406 117.846 132.924 116.987 133.275C116.127 133.625 115.207 133.801 114.279 133.792H85.736C83.4103 133.792 81.1551 134.989 79.8865 136.961L69.9494 151.819C68.6103 153.79 66.4255 154.987 64.0998 154.987H53.8103C49.9341 154.987 46.7627 151.819 46.7627 147.946V140.904C46.7627 137.031 43.5913 133.862 39.7151 133.862H25.6199C21.7437 133.862 18.5723 130.694 18.5723 126.821V37.3914C18.5723 35.9831 18.9951 34.6452 19.7704 33.5185L30.6237 17.3227C31.2176 16.3234 32.0643 15.4979 33.0788 14.9293C34.0932 14.3607 35.2396 14.069 36.4027 14.0835Z" fill="white" fill-opacity="0.8"/>
<path fill-rule="evenodd" clip-rule="evenodd" d="M60.7871 50.2774V90.4853C60.7871 92.7387 62.6195 94.4991 64.8042 94.4991H72.8385C75.0938 94.4991 76.8557 92.6683 76.8557 90.4853V50.2774C76.8557 49.7503 76.7518 49.2284 76.5499 48.7414C76.348 48.2545 76.0521 47.812 75.6791 47.4393C75.306 47.0666 74.8632 46.7709 74.3758 46.5692C73.8884 46.3675 73.3661 46.2637 72.8385 46.2637H64.8042C62.6195 46.2637 60.7871 48.0945 60.7871 50.2774ZM101.029 50.2774V90.4853C101.029 92.7387 102.861 94.4991 105.046 94.4991H113.08C115.336 94.4991 117.098 92.6683 117.098 90.4853V50.2774C117.098 49.2129 116.674 48.192 115.921 47.4393C115.168 46.6865 114.146 46.2637 113.08 46.2637H105.046C102.861 46.2637 101.029 48.0945 101.029 50.2774Z" fill="white" fill-opacity="0.8"/>
</svg>
