<svg width="1182" height="232" viewBox="0 0 1182 232" fill="none" xmlns="http://www.w3.org/2000/svg">
<rect width="121" height="231" transform="translate(0 1)" fill="#05D5F3"/>
<path d="M1087 200L1159 116.5L1087 33" stroke="#05D5F3" stroke-width="45" stroke-miterlimit="10" stroke-linecap="square" stroke-linejoin="round"/>
<path d="M1011 200L1083 116.5L1011 33" stroke="#05D5F3" stroke-width="45" stroke-miterlimit="10" stroke-linecap="square" stroke-linejoin="round"/>
<path d="M933 200L1005 116.5L933 33" stroke="#05D5F3" stroke-width="45" stroke-miterlimit="10" stroke-linecap="square" stroke-linejoin="round"/>
<path d="M994 116.5L922 33V200L994 116.5Z" fill="#05D5F3" stroke="#05D5F3" stroke-width="45" stroke-miterlimit="10" stroke-linecap="square" stroke-linejoin="round"/>
<path d="M276.022 179.511C270.945 176.929 265.17 174.606 258.85 172.603C258.479 172.408 257.751 172.022 256.769 171.491C248.71 167.107 242.356 162.962 239.304 160.129V148.537C253.996 140.245 264.043 125.367 267.255 107.156C275.578 104.803 282.823 97.0909 282.823 89.9974C282.823 82.8171 277.355 78.052 268.316 77.0649V72.0979H285.24V68.518C285.24 63.9095 281.187 46.1761 272.184 45.8602C266.091 28.0428 252.251 13.8029 234.468 7.06219V0.5H188.532V7.06219C170.726 13.8101 156.877 28.0514 150.799 45.8611C141.808 46.1986 137.759 63.9124 137.759 68.518V72.0979H154.684V77.0649C145.645 78.052 140.177 82.8171 140.177 89.9974C140.177 97.0909 147.422 104.803 155.745 107.156C158.96 125.374 169.009 140.252 183.696 148.537V160.129C180.644 162.962 174.291 167.106 166.237 171.487C165.241 172.026 164.508 172.414 164.14 172.608C157.656 174.709 151.876 177.067 146.981 179.605C116.725 194.966 116.016 215.555 116.001 216.425L116 232H307V216.469C306.996 215.593 306.541 194.826 276.022 179.511ZM258.646 180.076C263.003 181.536 267.05 183.154 270.734 184.91V205.747H258.646V180.076ZM275.57 89.9974C275.57 92.9215 272.365 96.9028 268.188 99.0999C268.268 97.6851 268.316 84.261 268.316 84.261C274.78 85.1555 275.57 88.4547 275.57 89.9974ZM234.468 14.7995C248.229 20.8033 259.036 31.9859 264.47 45.8454H234.468V14.7995ZM195.785 7.65979H227.215V45.8454H195.785V7.65979ZM188.532 14.7986V45.8454H158.513C163.936 31.9916 174.751 20.8076 188.532 14.7986ZM147.43 89.9974C147.43 88.4547 148.22 85.1555 154.684 84.261C154.684 84.261 154.732 97.6856 154.812 99.0999C150.635 96.9023 147.43 92.9215 147.43 89.9974ZM145.454 64.9381C146.559 59.7969 149.474 53.6324 151.139 53.0052H271.861C273.526 53.6324 276.441 59.7969 277.546 64.9381H145.454ZM162.53 103.675C162.136 100.912 161.937 97.9162 161.937 94.7706V72.0979H261.063V94.7706C261.063 97.9162 260.864 100.912 260.469 103.684C257.975 121.511 248.332 135.927 234.003 143.241C227.251 146.71 219.68 148.469 211.5 148.469C203.32 148.469 195.749 146.71 188.989 143.237C174.669 135.927 165.026 121.511 162.53 103.675ZM232.051 151.953V160.216C229.57 162.776 221.709 169.948 211.5 169.948C201.357 169.948 193.442 162.762 190.949 160.209V151.953C197.323 154.391 204.21 155.629 211.5 155.629C218.791 155.629 225.679 154.39 232.051 151.953ZM171.608 176.728C176.324 174.099 182.827 170.227 187.198 166.624C191.377 170.509 200.148 177.108 211.5 177.108C222.852 177.108 231.623 170.509 235.802 166.623C240.171 170.225 246.673 174.096 251.392 176.728V205.747H171.608V176.728ZM152.266 184.988C155.857 183.25 159.905 181.61 164.354 180.092V205.747H152.266V184.988ZM137.856 224.84H123.253V216.549C123.298 215.564 124.312 201.414 145.013 188.902V205.843C140.919 206.425 137.759 209.901 137.759 214.101V223.647C137.759 224.053 137.799 224.449 137.856 224.84ZM277.987 223.647C277.987 224.294 277.434 224.84 276.778 224.84H146.222C145.566 224.84 145.013 224.294 145.013 223.647V214.101C145.013 213.454 145.566 212.907 146.222 212.907H276.778C277.434 212.907 277.987 213.454 277.987 214.101V223.647ZM299.747 224.84H285.144C285.201 224.449 285.24 224.053 285.24 223.647V214.101C285.24 209.901 282.081 206.425 277.987 205.843V188.772C298.995 201.328 299.723 215.689 299.747 216.521V224.84Z" fill="#05D5F3"/>
<path d="M211.5 122.217H221.171V115.057H215.127V99.5438H207.873V118.637C207.873 120.614 209.497 122.217 211.5 122.217Z" fill="#05D5F3"/>
<path d="M211.5 122.217H221.171V115.057H215.127V99.5438H207.873V118.637C207.873 120.614 209.497 122.217 211.5 122.217Z" fill="#05D5F3" fill-opacity="0.3"/>
<path fill-rule="evenodd" clip-rule="evenodd" d="M276.022 179.511C270.945 176.929 265.17 174.606 258.85 172.603C258.479 172.408 257.751 172.022 256.769 171.491C248.71 167.107 242.356 162.962 239.304 160.129V148.537C253.996 140.245 264.043 125.367 267.255 107.156C275.578 104.803 282.823 97.0909 282.823 89.9974C282.823 82.8171 277.355 78.052 268.316 77.0649V72.0979H285.24V68.518C285.24 63.9095 281.187 46.1761 272.184 45.8602C266.091 28.0428 252.251 13.8029 234.468 7.06219V0.5H188.532V7.06219C170.726 13.8101 156.877 28.0514 150.799 45.8611C141.808 46.1986 137.759 63.9124 137.759 68.518V72.0979H154.684V77.0649C145.645 78.052 140.177 82.8171 140.177 89.9974C140.177 97.0909 147.422 104.803 155.745 107.156C158.96 125.374 169.009 140.252 183.696 148.537V160.129C180.644 162.962 174.291 167.106 166.237 171.487C165.241 172.026 164.508 172.414 164.14 172.608C157.656 174.709 151.876 177.067 146.981 179.605C116.725 194.966 116.016 215.555 116.001 216.425L116 232H307V216.469C306.996 215.593 306.541 194.826 276.022 179.511ZM270.734 184.91C267.05 183.154 263.003 181.536 258.646 180.076V205.747H270.734V184.91ZM268.188 99.0999C272.365 96.9028 275.57 92.9215 275.57 89.9974C275.57 88.4547 274.78 85.1555 268.316 84.261C268.316 84.261 268.268 97.6851 268.188 99.0999ZM264.47 45.8454C259.036 31.9859 248.229 20.8033 234.468 14.7995V45.8454H264.47ZM227.215 7.65979H195.785V45.8454H227.215V7.65979ZM188.532 45.8454V14.7986C174.751 20.8076 163.936 31.9916 158.513 45.8454H188.532ZM154.684 84.261C148.22 85.1555 147.43 88.4547 147.43 89.9974C147.43 92.9215 150.635 96.9023 154.812 99.0999C154.732 97.6856 154.684 84.261 154.684 84.261ZM151.139 53.0052C149.474 53.6324 146.559 59.7969 145.454 64.9381H277.546C276.441 59.7969 273.526 53.6324 271.861 53.0052H151.139ZM161.937 94.7706C161.937 97.9162 162.136 100.912 162.53 103.675C165.026 121.511 174.669 135.927 188.989 143.237C195.749 146.71 203.32 148.469 211.5 148.469C219.68 148.469 227.251 146.71 234.003 143.241C248.332 135.927 257.975 121.511 260.469 103.684C260.864 100.912 261.063 97.9162 261.063 94.7706V72.0979H161.937V94.7706ZM232.051 160.216V151.953C225.679 154.39 218.791 155.629 211.5 155.629C204.21 155.629 197.323 154.391 190.949 151.953V160.209C193.442 162.762 201.357 169.948 211.5 169.948C221.709 169.948 229.57 162.776 232.051 160.216ZM187.198 166.624C182.827 170.227 176.324 174.099 171.608 176.728V205.747H251.392V176.728C246.673 174.096 240.171 170.225 235.802 166.623C231.623 170.509 222.852 177.108 211.5 177.108C200.148 177.108 191.377 170.509 187.198 166.624ZM164.354 180.092C159.905 181.61 155.857 183.25 152.266 184.988V205.747H164.354V180.092ZM123.253 224.84H137.856C137.799 224.449 137.759 224.053 137.759 223.647V214.101C137.759 209.901 140.919 206.425 145.013 205.843V188.902C124.312 201.414 123.298 215.564 123.253 216.549V224.84ZM276.778 224.84C277.434 224.84 277.987 224.294 277.987 223.647V214.101C277.987 213.454 277.434 212.907 276.778 212.907H146.222C145.566 212.907 145.013 213.454 145.013 214.101V223.647C145.013 224.294 145.566 224.84 146.222 224.84H276.778ZM285.144 224.84H299.747V216.521C299.723 215.689 298.995 201.328 277.987 188.772V205.843C282.081 206.425 285.24 209.901 285.24 214.101V223.647C285.24 224.053 285.201 224.449 285.144 224.84Z" fill="#05D5F3" fill-opacity="0.3"/>
<path fill-rule="evenodd" clip-rule="evenodd" d="M162.53 103.675C162.136 100.912 161.937 97.9162 161.937 94.7706V72.0979H261.063V94.7706C261.063 97.9162 260.864 100.912 260.469 103.684C257.975 121.511 248.332 135.927 234.003 143.241C227.251 146.71 219.68 148.469 211.5 148.469C203.32 148.469 195.749 146.71 188.989 143.237C174.669 135.927 165.026 121.511 162.53 103.675ZM221.171 122.217H211.5C209.497 122.217 207.873 120.614 207.873 118.637V99.5438H215.127V115.057H221.171V122.217Z" fill="#05D5F3" fill-opacity="0.3"/>
<path d="M147.43 89.9974C147.43 88.4547 148.22 85.1555 154.684 84.261C154.684 84.261 154.732 97.6856 154.812 99.0999C150.635 96.9023 147.43 92.9215 147.43 89.9974Z" fill="#05D5F3" fill-opacity="0.3"/>
<path d="M145.454 64.9381C146.559 59.7969 149.474 53.6324 151.139 53.0052H271.861C273.526 53.6324 276.441 59.7969 277.546 64.9381H145.454Z" fill="#05D5F3" fill-opacity="0.3"/>
<path d="M188.532 14.7986V45.8454H158.513C163.936 31.9916 174.751 20.8076 188.532 14.7986Z" fill="#05D5F3" fill-opacity="0.3"/>
<path d="M195.785 7.65979H227.215V45.8454H195.785V7.65979Z" fill="#05D5F3" fill-opacity="0.3"/>
<path d="M234.468 14.7995C248.229 20.8033 259.036 31.9859 264.47 45.8454H234.468V14.7995Z" fill="#05D5F3" fill-opacity="0.3"/>
<path d="M275.57 89.9974C275.57 92.9215 272.365 96.9028 268.188 99.0999C268.268 97.6851 268.316 84.261 268.316 84.261C274.78 85.1555 275.57 88.4547 275.57 89.9974Z" fill="#05D5F3" fill-opacity="0.3"/>
<path d="M232.051 151.953V160.216C229.57 162.776 221.709 169.948 211.5 169.948C201.357 169.948 193.442 162.762 190.949 160.209V151.953C197.323 154.391 204.21 155.629 211.5 155.629C218.791 155.629 225.679 154.39 232.051 151.953Z" fill="#05D5F3" fill-opacity="0.3"/>
<path d="M171.608 176.728C176.324 174.099 182.827 170.227 187.198 166.624C191.377 170.509 200.148 177.108 211.5 177.108C222.852 177.108 231.623 170.509 235.802 166.623C240.171 170.225 246.673 174.096 251.392 176.728V205.747H171.608V176.728Z" fill="#05D5F3" fill-opacity="0.3"/>
<path d="M152.266 184.988C155.857 183.25 159.905 181.61 164.354 180.092V205.747H152.266V184.988Z" fill="#05D5F3" fill-opacity="0.3"/>
<path d="M258.646 180.076C263.003 181.536 267.05 183.154 270.734 184.91V205.747H258.646V180.076Z" fill="#05D5F3" fill-opacity="0.3"/>
<path d="M299.747 224.84H285.144C285.201 224.449 285.24 224.053 285.24 223.647V214.101C285.24 209.901 282.081 206.425 277.987 205.843V188.772C298.995 201.328 299.723 215.689 299.747 216.521V224.84Z" fill="#05D5F3" fill-opacity="0.3"/>
<path d="M277.987 223.647C277.987 224.294 277.434 224.84 276.778 224.84H146.222C145.566 224.84 145.013 224.294 145.013 223.647V214.101C145.013 213.454 145.566 212.907 146.222 212.907H276.778C277.434 212.907 277.987 213.454 277.987 214.101V223.647Z" fill="#05D5F3" fill-opacity="0.3"/>
<path d="M137.856 224.84H123.253V216.549C123.298 215.564 124.312 201.414 145.013 188.902V205.843C140.919 206.425 137.759 209.901 137.759 214.101V223.647C137.759 224.053 137.799 224.449 137.856 224.84Z" fill="#05D5F3" fill-opacity="0.3"/>
<path fill-rule="evenodd" clip-rule="evenodd" d="M935.3 1.5H303V232H935.3V1.5ZM520.191 143H507.991L482.191 96.1V95.4C482.191 93.3 487.291 93 488.491 93C493.591 93 497.791 96.3 500.191 100.9L513.991 127.2L527.691 100.9C530.091 96.3 534.291 93 539.491 93C540.891 93 546.391 93.6 546.391 95.7V96.1L520.191 143ZM549.31 143C549.31 133.5 549.31 114 550.21 102.3C551.71 96.1 557.31 93 563.31 93C563.31 101.9 563.31 122 562.41 133.7C560.91 139.9 555.31 143 549.31 143ZM587.526 143C573.826 143 567.326 130.7 567.326 119.6C567.326 106.3 572.526 96.4 587.526 93.6C589.082 93.5409 590.553 93.4818 591.967 93.425C597.73 93.1934 602.544 93 608.326 93C619.126 93 632.426 96.1 632.426 108.8C632.426 118.6 622.026 124.1 612.226 124.1H581.026C581.926 128.2 585.626 131.6 590.126 131.6H630.526C630.526 138.1 623.026 143 616.826 143H587.526ZM602.165 104.096C602.006 104.098 601.891 104.1 601.826 104.1C601.553 104.1 601.251 104.098 600.926 104.097C595.06 104.064 581.326 103.989 581.326 112.8H613.526C615.426 112.8 621.326 112.2 621.326 109.1C621.326 103.803 604.953 104.053 602.165 104.096ZM700.945 121.7C701.345 129.2 714.145 129.2 718.345 129.2C722.845 129.2 736.545 129 736.545 120.7V93.1C742.445 93.1 748.345 96.8 749.045 103.8V110.8C749.045 127.3 743.145 140.4 726.445 142.7H719.045C703.676 142.7 698.789 139.277 695.293 136.827C694.649 136.376 694.052 135.958 693.445 135.6L691.745 137.4C687.845 140.2 681.245 143.3 675.845 143.3L662.645 143.2C653.445 143.2 639.045 136.2 639.045 124.8V103.8C639.045 97.3 646.345 93.5 651.545 93.5V120.2C651.545 129.5 663.545 129.7 669.445 129.7C673.245 129.7 687.445 129.5 687.445 122.2V93.5C692.645 93.5 699.745 96.5 699.945 103.3L700.945 121.7Z" fill="#05D5F3"/>
</svg>
