<svg width="1182" height="236" viewBox="0 0 1182 236" fill="none" xmlns="http://www.w3.org/2000/svg">
<path fill-rule="evenodd" clip-rule="evenodd" d="M387.048 0.204831C386.21 0.416504 372.397 10.76 356.351 23.1897C326.897 46.0056 325.791 47.0212 326.681 50.4249C326.968 51.5226 326.203 52.0308 321.839 53.6367C317.38 55.2771 315.66 55.5437 309.532 55.5437C302.572 55.5437 302.085 55.4386 288.346 50.9494C280.611 48.4228 272.773 46.0693 270.927 45.7193C266.25 44.8319 260.861 45.8563 255.299 48.6915L250.654 51.0586L247.272 49.7736C241.608 47.6216 237.942 47.4846 227.039 49.0165C213.607 50.9032 198.788 52.3293 186.69 52.8985L176.808 53.3632L177.033 51.0613C177.157 49.7953 176.872 48.2885 176.399 47.7125C174.91 45.8984 118.083 2.12549 116.77 1.7822C114.808 1.26863 112.214 2.17366 111.426 3.64723C111.029 4.38673 104.318 32.8398 96.5116 66.8757C84.1979 120.557 82.4251 128.985 83.1341 130.46C83.7108 131.661 88.3404 134.612 98.8766 140.495C107.086 145.079 114.357 148.829 115.034 148.829C116.954 148.829 118.783 147.604 119.876 145.586C122.126 141.433 122.153 141.437 128.573 146.794C128.862 147.035 128.424 148.735 127.601 150.574C124.292 157.966 126.446 167.609 132.58 172.859C135.584 175.431 140.291 177.324 143.679 177.324C145.791 177.324 145.846 177.404 146.215 180.968C146.668 185.361 148.43 189 151.764 192.424C155.808 196.579 159.117 197.949 165.191 197.985C170.364 198.015 170.446 198.043 170.449 199.749C170.453 202.384 173.638 208.21 176.399 210.635C180.23 213.998 184.302 215.507 189.453 215.476C191.914 215.46 195.026 214.988 196.368 214.427L198.81 213.407L199.891 216.235C201.362 220.087 204.533 223.774 208.246 225.95C212.902 228.679 220.517 229.002 225.503 226.681C227.501 225.751 231.419 222.991 234.208 220.55C238.585 216.718 239.468 216.21 240.653 216.834C241.409 217.233 245.94 219.828 250.721 222.601C263.384 229.945 265.955 231.005 271.104 231.005C275.959 231.005 279.263 229.867 282.997 226.909C285.702 224.767 288.743 219.742 289.498 216.169C289.876 214.379 290.175 214.081 291.097 214.575C293.346 215.779 298.625 216.142 302.023 215.327C308.746 213.714 315.047 207.635 316.024 201.819C316.825 197.05 316.869 196.998 320.068 196.998C329.561 196.998 337.944 189.128 339.121 179.111L339.555 175.416L342.355 174.997C350.723 173.741 357.501 166.156 358.217 157.244L358.553 153.048L368.183 143.436L377.812 133.823L380.408 138.104C381.837 140.458 383.738 143.376 384.635 144.589C387.385 148.31 388.927 147.861 405.489 138.52C420.689 129.947 421.43 129.317 420.88 125.423C419.999 119.179 392.651 2.37719 391.866 1.50608C390.622 0.126131 389.044 -0.299928 387.048 0.204831ZM361.772 31.8004C348.898 41.7714 338.416 50.1244 338.479 50.3618C338.541 50.6 348.463 66.757 360.528 86.2669C372.593 105.777 382.93 122.568 383.5 123.581C384.071 124.594 385.856 127.627 387.467 130.322L390.397 135.221L392.876 133.946C394.239 133.245 398.739 130.734 402.876 128.367L410.398 124.063L398.039 70.1288C391.241 40.4648 385.567 15.6264 385.429 14.9331C385.229 13.9303 380.386 17.3829 361.772 31.8004ZM106.07 70.2998C99.2246 100.244 93.5848 124.985 93.5366 125.28C93.4884 125.574 97.8413 128.298 103.21 131.333C112.565 136.622 113.011 136.797 113.928 135.547C114.455 134.83 126.214 115.805 140.06 93.2704C157.762 64.4591 165.053 52.0322 164.621 51.4032C163.959 50.4385 119.465 15.87 118.874 15.8605C118.678 15.8578 112.916 40.3555 106.07 70.2998ZM254.401 60.5961C227.372 74.6927 218.959 79.361 218.768 80.3726C218.502 81.7722 226.233 85.2947 232.108 86.4507C241.698 88.3375 255.085 85.7662 266.085 79.9248C271.043 77.2925 272.551 77.0937 274.95 78.7538C277.408 80.4553 349.535 139.179 351.955 141.45L354.011 143.379L363.062 134.309C368.04 129.321 372 124.908 371.861 124.502C371.722 124.097 362.908 109.558 352.274 92.1937C335.876 65.4191 332.732 60.6653 331.581 60.9109C330.835 61.0703 327.477 62.185 324.118 63.3885C317.056 65.9198 308.161 66.7468 302.035 65.4429C300.002 65.01 291.686 62.5296 283.556 59.9305C275.425 57.3314 267.866 55.2045 266.757 55.2045C265.557 55.2045 260.555 57.3871 254.401 60.5961ZM230.494 58.6618C219.844 60.4957 191.95 62.9225 174.535 63.5317L170.139 63.685L148.978 97.9462C137.339 116.79 127.805 132.513 127.791 132.886C127.777 133.259 129.746 135.028 132.167 136.817L136.569 140.07L142.825 134.564C151.517 126.914 153.162 126.118 160.275 126.118C164.914 126.118 166.591 126.409 168.847 127.61C172.803 129.714 175.837 132.968 177.759 137.167C179.043 139.971 179.662 140.674 180.529 140.313C187.224 137.517 192.125 137.543 198.052 140.402C203.869 143.21 208.154 149.228 208.916 155.66L209.312 159.006H212.137C220.457 159.006 229.476 168.598 229.476 177.447C229.476 179.16 229.71 179.359 231.73 179.359C237.83 179.359 244.417 183.695 247.395 189.67C249.524 193.943 249.807 201.002 248.035 205.641C247.422 207.247 247.04 208.667 247.187 208.796C248.679 210.1 268.135 220.782 269.609 221.106C272.212 221.677 276.976 219.347 278.508 216.752C280.025 214.184 279.998 210.045 278.449 207.696C277.778 206.677 269.46 200.46 259.966 193.88C250.473 187.301 242.018 181.288 241.179 180.52C237.996 177.606 240.05 171.896 244.282 171.896C245.672 171.896 251.858 175.83 266.84 186.24C294.108 205.187 295.099 205.819 297.595 205.815C301.741 205.811 306.809 201.02 306.815 197.101C306.823 192.685 305.385 191.411 280.563 173.826C265.463 163.129 256.287 156.198 255.91 155.207C254.994 152.799 256.345 149.784 258.794 148.769C260.583 148.028 261.176 148.069 262.893 149.054C263.996 149.687 276.33 158.323 290.301 168.243C317.776 187.753 318.465 188.12 323.335 185.809C328.009 183.59 330.029 177.444 327.617 172.78C326.966 171.522 316.703 163.705 298.125 150.318C282.453 139.024 269.449 129.312 269.228 128.735C267.838 125.114 270.051 121.675 273.744 121.717C275.539 121.737 281.184 125.529 304.104 142.112C319.59 153.316 332.935 162.949 333.76 163.519C337.754 166.277 344.409 164.88 346.923 160.756C348.681 157.875 348.575 153.636 346.676 150.9C345.837 149.691 328.522 135.172 308.199 118.637L271.248 88.5729L267.993 90.2222C262.61 92.9502 253.257 95.7793 246.812 96.63C236.263 98.0215 227.06 96.5126 217.469 91.8178C210.26 88.2893 208.784 86.3327 208.784 80.3068C208.784 73.77 209.761 72.7517 222.5 66.0216C228.389 62.9109 234.123 59.8159 235.243 59.1442C237.244 57.9441 237.249 57.9244 235.582 58.0004C234.649 58.0431 232.359 58.3409 230.494 58.6618ZM155.109 137.439C154.032 138.265 149.59 142.094 145.237 145.948C135.512 154.557 134.387 156.867 137.215 162.411C138.856 165.628 141.533 167.147 145.563 167.147C149.031 167.147 149.19 167.04 160.428 157.132C166.687 151.613 168.548 149.566 169.159 147.525C170.195 144.066 169.081 140.734 165.977 138.008C162.948 135.349 158.162 135.099 155.109 137.439ZM185.917 149.029C183.907 149.924 160.535 170.246 157.863 173.421C156.583 174.943 156.205 176.174 156.205 178.822C156.205 181.966 156.451 182.497 159.168 185.215C161.696 187.742 162.538 188.179 164.891 188.179C166.408 188.179 168.357 187.901 169.221 187.562C171.217 186.779 196.174 164.831 197.754 162.469C202.438 155.472 193.707 145.56 185.917 149.029ZM208.004 169.169C205.243 169.805 182.399 189.668 180.974 192.672C179.662 195.434 179.681 197.245 181.051 200.132C183.165 204.587 188.07 206.695 192.254 204.948C195.321 203.666 216.937 184.674 218.276 182.084C221.798 175.273 215.559 167.428 208.004 169.169ZM227.78 189.592C225.806 190.153 211.807 201.944 209.848 204.694C208.299 206.872 208.534 211.913 210.301 214.391C212.403 217.337 216.589 218.944 219.856 218.058C223.694 217.016 236.923 205.247 238.591 201.39C239.89 198.387 239.89 198.322 238.581 195.165C236.708 190.645 232.221 188.329 227.78 189.592Z" fill="#05D5F3"/>
<path d="M106.07 70.2998C99.2246 100.244 93.5848 124.985 93.5366 125.28C93.4884 125.574 97.8413 128.298 103.21 131.333C112.565 136.622 113.011 136.797 113.928 135.547C114.455 134.83 126.214 115.805 140.06 93.2704C157.762 64.4591 165.053 52.0322 164.621 51.4032C163.959 50.4385 119.465 15.87 118.874 15.8605C118.678 15.8578 112.916 40.3555 106.07 70.2998Z" fill="#05D5F3" fill-opacity="0.3"/>
<path d="M230.494 58.6618C219.844 60.4957 191.95 62.9225 174.535 63.5317L170.139 63.685L148.978 97.9462C137.339 116.79 127.805 132.513 127.791 132.886C127.777 133.259 129.746 135.028 132.167 136.817L136.569 140.07L142.825 134.564C151.517 126.914 153.162 126.118 160.275 126.118C164.914 126.118 166.591 126.409 168.847 127.61C172.803 129.714 175.837 132.968 177.759 137.167C179.043 139.971 179.662 140.674 180.529 140.313C187.224 137.517 192.125 137.543 198.052 140.402C203.869 143.21 208.154 149.228 208.916 155.66L209.312 159.006H212.137C220.457 159.006 229.476 168.598 229.476 177.447C229.476 179.16 229.71 179.359 231.73 179.359C237.83 179.359 244.417 183.695 247.395 189.67C249.524 193.943 249.807 201.002 248.035 205.641C247.422 207.247 247.04 208.667 247.187 208.796C248.679 210.1 268.135 220.782 269.609 221.106C272.212 221.677 276.976 219.347 278.508 216.752C280.025 214.184 279.998 210.045 278.449 207.696C277.778 206.677 269.46 200.46 259.966 193.88C250.473 187.301 242.018 181.288 241.179 180.52C237.996 177.606 240.05 171.896 244.282 171.896C245.672 171.896 251.858 175.83 266.84 186.24C294.108 205.187 295.099 205.819 297.595 205.815C301.741 205.811 306.809 201.02 306.815 197.101C306.823 192.685 305.385 191.411 280.563 173.826C265.463 163.129 256.287 156.198 255.91 155.207C254.994 152.799 256.345 149.784 258.794 148.769C260.583 148.028 261.176 148.069 262.893 149.054C263.996 149.687 276.33 158.323 290.301 168.243C317.776 187.753 318.465 188.12 323.335 185.809C328.009 183.59 330.029 177.444 327.617 172.78C326.966 171.522 316.703 163.705 298.125 150.318C282.453 139.024 269.449 129.312 269.228 128.735C267.838 125.114 270.051 121.675 273.744 121.717C275.539 121.737 281.184 125.529 304.104 142.112C319.59 153.316 332.935 162.949 333.76 163.519C337.754 166.277 344.409 164.88 346.923 160.756C348.681 157.875 348.575 153.636 346.676 150.9C345.837 149.691 328.522 135.172 308.199 118.637L271.248 88.5729L267.993 90.2222C262.61 92.9502 253.257 95.7793 246.812 96.63C236.263 98.0215 227.06 96.5126 217.469 91.8178C210.26 88.2893 208.784 86.3327 208.784 80.3068C208.784 73.77 209.761 72.7517 222.5 66.0216C228.389 62.9109 234.123 59.8159 235.243 59.1442C237.244 57.9441 237.249 57.9244 235.582 58.0004C234.649 58.0431 232.359 58.3409 230.494 58.6618Z" fill="#05D5F3" fill-opacity="0.3"/>
<path d="M254.401 60.5961C227.372 74.6927 218.959 79.361 218.768 80.3726C218.502 81.7722 226.233 85.2947 232.108 86.4507C241.698 88.3375 255.085 85.7662 266.085 79.9248C271.043 77.2925 272.551 77.0937 274.95 78.7538C277.408 80.4553 349.535 139.179 351.955 141.45L354.011 143.379L363.062 134.309C368.04 129.321 372 124.908 371.861 124.502C371.722 124.097 362.908 109.558 352.274 92.1937C335.876 65.4191 332.732 60.6653 331.581 60.9109C330.835 61.0703 327.477 62.185 324.118 63.3885C317.056 65.9198 308.161 66.7468 302.035 65.4429C300.002 65.01 291.686 62.5296 283.556 59.9305C275.425 57.3314 267.866 55.2045 266.757 55.2045C265.557 55.2045 260.555 57.3871 254.401 60.5961Z" fill="#05D5F3" fill-opacity="0.3"/>
<path d="M361.772 31.8004C348.898 41.7714 338.416 50.1244 338.479 50.3618C338.541 50.6 348.463 66.757 360.528 86.2669C372.593 105.777 382.93 122.568 383.5 123.581C384.071 124.594 385.856 127.627 387.467 130.322L390.397 135.221L392.876 133.946C394.239 133.245 398.739 130.734 402.876 128.367L410.398 124.063L398.039 70.1288C391.241 40.4648 385.567 15.6264 385.429 14.9331C385.229 13.9303 380.386 17.3829 361.772 31.8004Z" fill="#05D5F3" fill-opacity="0.3"/>
<path d="M208.004 169.169C205.243 169.805 182.399 189.668 180.974 192.672C179.662 195.434 179.681 197.245 181.051 200.132C183.165 204.587 188.07 206.695 192.254 204.948C195.321 203.666 216.937 184.674 218.276 182.084C221.798 175.273 215.559 167.428 208.004 169.169Z" fill="#05D5F3" fill-opacity="0.3"/>
<path d="M227.78 189.592C225.806 190.153 211.807 201.944 209.848 204.694C208.299 206.872 208.534 211.913 210.301 214.391C212.403 217.337 216.589 218.944 219.856 218.058C223.694 217.016 236.923 205.247 238.591 201.39C239.89 198.387 239.89 198.322 238.581 195.165C236.708 190.645 232.221 188.329 227.78 189.592Z" fill="#05D5F3" fill-opacity="0.3"/>
<path d="M185.917 149.029C183.907 149.924 160.535 170.246 157.863 173.421C156.583 174.943 156.205 176.174 156.205 178.822C156.205 181.966 156.451 182.497 159.168 185.215C161.696 187.742 162.538 188.179 164.891 188.179C166.408 188.179 168.357 187.901 169.221 187.562C171.217 186.779 196.174 164.831 197.754 162.469C202.438 155.472 193.707 145.56 185.917 149.029Z" fill="#05D5F3" fill-opacity="0.3"/>
<path d="M155.109 137.439C154.032 138.265 149.59 142.094 145.237 145.948C135.512 154.557 134.387 156.867 137.215 162.411C138.856 165.628 141.533 167.147 145.563 167.147C149.031 167.147 149.19 167.04 160.428 157.132C166.687 151.613 168.548 149.566 169.159 147.525C170.195 144.066 169.081 140.734 165.977 138.008C162.948 135.349 158.162 135.099 155.109 137.439Z" fill="#05D5F3" fill-opacity="0.3"/>
<path fill-rule="evenodd" clip-rule="evenodd" d="M935 2H389V233H935V2ZM565.812 143H553.612L527.812 96.1V95.4C527.812 93.3 532.912 93 534.112 93C539.212 93 543.412 96.3 545.812 100.9L559.612 127.2L573.312 100.9C575.712 96.3 579.912 93 585.112 93C586.512 93 592.012 93.6 592.012 95.7V96.1L565.812 143ZM594.931 143C594.931 133.5 594.931 114 595.831 102.3C597.331 96.1 602.931 93 608.931 93C608.931 101.9 608.931 122 608.031 133.7C606.531 139.9 600.931 143 594.931 143ZM633.147 143C619.447 143 612.947 130.7 612.947 119.6C612.947 106.3 618.147 96.4 633.147 93.6C634.703 93.5409 636.174 93.4818 637.588 93.425C643.351 93.1934 648.165 93 653.947 93C664.747 93 678.047 96.1 678.047 108.8C678.047 118.6 667.647 124.1 657.847 124.1H626.647C627.547 128.2 631.247 131.6 635.747 131.6H676.147C676.147 138.1 668.647 143 662.447 143H633.147ZM647.786 104.096C647.627 104.098 647.512 104.1 647.447 104.1C647.174 104.1 646.872 104.098 646.547 104.097C640.681 104.064 626.947 103.989 626.947 112.8H659.147C661.047 112.8 666.947 112.2 666.947 109.1C666.947 103.803 650.574 104.053 647.786 104.096ZM746.566 121.7C746.966 129.2 759.766 129.2 763.966 129.2C768.466 129.2 782.166 129 782.166 120.7V93.1C788.066 93.1 793.966 96.8 794.666 103.8V110.8C794.666 127.3 788.766 140.4 772.066 142.7H764.666C749.297 142.7 744.41 139.277 740.914 136.827C740.27 136.376 739.673 135.958 739.066 135.6L737.366 137.4C733.466 140.2 726.866 143.3 721.466 143.3L708.266 143.2C699.066 143.2 684.666 136.2 684.666 124.8V103.8C684.666 97.3 691.966 93.5 697.166 93.5V120.2C697.166 129.5 709.166 129.7 715.066 129.7C718.866 129.7 733.066 129.5 733.066 122.2V93.5C738.266 93.5 745.366 96.5 745.566 103.3L746.566 121.7Z" fill="#05D5F3"/>
<rect width="116" height="234" transform="translate(0 1.66016)" fill="#05D5F3"/>
<path d="M1087 201L1159 117.5L1087 34" stroke="#05D5F3" stroke-width="45" stroke-miterlimit="10" stroke-linecap="square" stroke-linejoin="round"/>
<path d="M1011 201L1083 117.5L1011 34" stroke="#05D5F3" stroke-width="45" stroke-miterlimit="10" stroke-linecap="square" stroke-linejoin="round"/>
<path d="M933 201L1005 117.5L933 34" stroke="#05D5F3" stroke-width="45" stroke-miterlimit="10" stroke-linecap="square" stroke-linejoin="round"/>
<path d="M994 117.5L922 34V201L994 117.5Z" fill="#05D5F3" stroke="#05D5F3" stroke-width="45" stroke-miterlimit="10" stroke-linecap="square" stroke-linejoin="round"/>
</svg>
